<svg width="166" height="166" viewBox="0 0 166 166" fill="none" xmlns="http://www.w3.org/2000/svg">
  <path d="M165.317 1H1V165.317H165.317V1Z" fill="#FDFDFD" stroke="#C4C4C4" stroke-width="0.213954"/>
  <path d="M9.13025 28.3862H157.186C157.527 28.3862 157.853 28.5214 158.094 28.7622C158.335 29.0029 158.47 29.3294 158.47 29.6699V136.647C158.47 136.987 158.335 137.314 158.094 137.555C157.853 137.795 157.527 137.931 157.186 137.931H9.13025C8.78979 137.931 8.46327 137.795 8.22252 137.555C7.98178 137.314 7.84653 136.987 7.84653 136.647V29.6699C7.84653 29.3294 7.98178 29.0029 8.22252 28.7622C8.46327 28.5214 8.78979 28.3862 9.13025 28.3862V28.3862Z" stroke="#C4C4C4" stroke-width="0.213954"/>
  <path d="M136.647 7.84659H29.6699C28.9609 7.84659 28.3861 8.42133 28.3861 9.13031V157.187C28.3861 157.895 28.9609 158.47 29.6699 158.47H136.647C137.356 158.47 137.931 157.895 137.931 157.187V9.13031C137.931 8.42133 137.356 7.84659 136.647 7.84659Z" stroke="#C4C4C4" stroke-width="0.213954"/>
  <path d="M146.917 18.1164H19.4001C18.6911 18.1164 18.1163 18.6911 18.1163 19.4001V146.917C18.1163 147.626 18.6911 148.2 19.4001 148.2H146.917C147.626 148.2 148.2 147.626 148.2 146.917V19.4001C148.2 18.6911 147.626 18.1164 146.917 18.1164Z" stroke="#C4C4C4" stroke-width="0.213954"/>
  <path d="M83.1583 158.47C124.752 158.47 158.47 124.752 158.47 83.1584C158.47 41.5648 124.752 7.84659 83.1583 7.84659C41.5648 7.84659 7.84653 41.5648 7.84653 83.1584C7.84653 124.752 41.5648 158.47 83.1583 158.47Z" stroke="#C4C4C4" stroke-width="0.213954"/>
  <path d="M83.1584 117.391C102.065 117.391 117.391 102.065 117.391 83.1584C117.391 64.2522 102.065 48.9258 83.1584 48.9258C64.2522 48.9258 48.9257 64.2522 48.9257 83.1584C48.9257 102.065 64.2522 117.391 83.1584 117.391Z" stroke="#C4C4C4" stroke-width="0.213954"/>
  <path opacity="0.3" d="M1.17972 165.184L165.167 1.16695" stroke="#C4C4C4" stroke-width="0.213954" stroke-linecap="square"/>
  <path opacity="0.3" d="M165.094 165.09L1.15839 1.17978" stroke="#C4C4C4" stroke-width="0.213954" stroke-linecap="square"/>
  <path opacity="0.3" d="M59.1955 1.00006V165.317" stroke="#C4C4C4" stroke-width="0.213954" stroke-linecap="square"/>
  <path opacity="0.3" d="M83.1584 1.00006V165.317" stroke="#C4C4C4" stroke-width="0.213954" stroke-linecap="square"/>
  <path opacity="0.3" d="M107.155 1.00006V165.317" stroke="#C4C4C4" stroke-width="0.213954" stroke-linecap="square"/>
  <path opacity="0.3" d="M165.201 59.1956H1" stroke="#C4C4C4" stroke-width="0.0855816" stroke-linecap="square"/>
  <path opacity="0.3" d="M165.201 83.1584H1" stroke="#C4C4C4" stroke-width="0.0855816" stroke-linecap="square"/>
  <path opacity="0.3" d="M165.201 107.121H1" stroke="#C4C4C4" stroke-width="0.213954" stroke-linecap="square"/>
</svg>
