<svg viewBox="0 0 48 48" fill="currentColor" xmlns="http://www.w3.org/2000/svg">
  <path d="M21.2842 33.7388C21.6994 33.9062 22 34.2925 22 34.7402V46.9128C22 47.498 21.4993 47.96 20.9189 47.8848C15.3339 47.1611 10.1674 44.491 6.33862 40.3249C2.26392 35.8912 0.00163524 30.0866 0 24.0616V17.0521C0 16.4998 0.447715 16.0521 1 16.0521H5.17508C5.4047 16.0521 5.62732 16.1311 5.80555 16.2759L12.9368 22.0681C13.287 22.3525 13.3943 22.8342 13.2683 23.2674C13.116 23.7909 13.0387 24.3348 13.04 24.8826C13.0377 25.781 13.2442 26.6676 13.6434 27.4721C14.0426 28.2767 14.6235 28.9772 15.34 29.5181L19.75 32.8821C20.2243 33.2316 20.7398 33.5193 21.2842 33.7388Z" />
  <path d="M46.996 16.0261C47.5499 16.0239 48 16.4723 48 17.0261V24.0317C47.9984 30.0566 45.736 35.8611 41.6613 40.2948C37.8325 44.461 32.6661 47.131 27.0811 47.8547C26.5007 47.9299 26 47.4679 26 46.8827V34.7035C26 34.2589 26.2966 33.8747 26.7072 33.7045C27.2531 33.4781 27.7684 33.1817 28.24 32.822L32.66 29.458C33.3752 28.9166 33.9545 28.2158 34.3521 27.4111C34.7496 26.6065 34.9542 25.7202 34.95 24.8225C34.9467 24.3789 34.8929 23.9379 34.7901 23.508C34.6901 23.0899 34.8051 22.6376 35.139 22.3669L42.6663 16.264C42.8434 16.1205 43.0642 16.0417 43.2922 16.0408L46.996 16.0261Z" />
  <path d="M43.47 9.01386C43.47 9.46088 43.3704 9.90222 43.1783 10.3058C42.9863 10.7094 42.7067 11.0649 42.36 11.3466L41.53 12.0174L36.59 16.0222L32.4862 19.341C32.1683 19.5981 31.7289 19.6281 31.3514 19.4713C30.6492 19.1796 29.8947 19.0274 29.13 19.0257H18.87C18.2032 19.0251 17.543 19.1408 16.9187 19.366C16.5517 19.4985 16.1358 19.4591 15.8326 19.2135L6.94995 12.0174L6.11987 11.3466C5.77129 11.0659 5.48993 10.7108 5.29614 10.3071C5.10235 9.90351 5.00117 9.46169 5 9.01386C5.00117 8.56602 5.10235 8.12408 5.29614 7.72045C5.48993 7.31683 5.77129 6.96166 6.11987 6.68101L8.59009 4.67864C9.12459 4.24462 9.79178 4.00786 10.48 4.00792H11C11.5523 4.00792 11.9915 4.45863 12.081 5.00361C12.4461 7.22599 14.0318 9.1935 16.5599 10.4154C18.8865 11.5074 21.4307 12.0553 24 12.0174C26.5724 12.0547 29.1197 11.5069 31.45 10.4154C33.9774 9.15891 35.5554 7.21805 35.9192 5.00363C36.0087 4.45865 36.4477 4.00792 37 4.00792H38C38.6882 4.00786 39.3555 4.24462 39.89 4.67864L42.36 6.68101C42.7067 6.96264 42.9863 7.31823 43.1783 7.7218C43.3704 8.12537 43.47 8.56683 43.47 9.01386Z" />
  <path d="M30.9499 24.8526C30.9507 25.1339 30.886 25.4117 30.7611 25.6636C30.6361 25.9156 30.4543 26.135 30.2299 26.3044L27.5799 28.3068L25.9999 29.5081L25.8199 29.6483C25.2991 30.0439 24.6636 30.2583 24.01 30.259C23.3529 30.2605 22.7134 30.046 22.1899 29.6483L21.9999 29.5081L17.77 26.2844C17.4816 26.0662 17.2656 25.7662 17.15 25.4234C17.082 25.2339 17.0481 25.0338 17.0499 24.8326C17.0483 24.5511 17.1127 24.2733 17.2377 24.0212C17.3628 23.7691 17.5451 23.5498 17.77 23.3809C18.0794 23.1513 18.4548 23.0283 18.8399 23.0305H29.0999C29.4974 23.029 29.8841 23.1592 30.1999 23.4009L30.4 23.5811C30.5727 23.7448 30.7105 23.942 30.805 24.1605C30.8995 24.379 30.9488 24.6145 30.9499 24.8526Z" />
  <path d="M32 4.00795C32 5.44966 30.54 6.40074 29.66 6.84126C27.8851 7.65199 25.9506 8.05239 24 8.01269C22.0528 8.05088 20.1219 7.65052 18.35 6.84126C17.47 6.40074 16 5.44966 16 4.00795C16.0216 3.61405 16.1305 3.22983 16.3191 2.88345C16.5076 2.53706 16.771 2.23721 17.09 2.00557C17.4719 1.67465 17.8955 1.3952 18.35 1.17451C20.1206 0.361298 22.0524 -0.0391347 24 0.00320125C25.9509 -0.0403059 27.8863 0.360146 29.66 1.17451C30.1145 1.3952 30.538 1.67465 30.9199 2.00557C31.2375 2.23773 31.4994 2.53799 31.6863 2.88442C31.8731 3.23086 31.9803 3.61472 32 4.00795Z" />
</svg>
