<svg width="24" height="24" viewBox="0 0 24 24" fill="none" xmlns="http://www.w3.org/2000/svg">
<path d="M15 20H17C18.8856 20 19.8284 20 20.4142 19.4142C21 18.8284 21 17.8856 21 16V12V8C21 6.11438 21 5.17157 20.4142 4.58579C19.8284 4 18.8856 4 17 4H12H7C5.11438 4 4.17157 4 3.58579 4.58579C3 5.17157 3 6.11438 3 8V8" stroke="#323232" stroke-width="2" stroke-linecap="round" stroke-linejoin="round"/>
<path d="M5 19C5 19.5523 4.55228 20 4 20C3.44772 20 3 19.5523 3 19C3 18.4477 3.44772 18 4 18C4.55228 18 5 18.4477 5 19Z" stroke="#323232" stroke-width="2"/>
<path d="M8 20C8 16.5 6.5 15 3 15" stroke="#323232" stroke-width="2" stroke-linecap="round"/>
<path d="M11 20C11 15 8 12 3 12" stroke="#323232" stroke-width="2" stroke-linecap="round"/>
</svg>
