<svg width="24" height="24" viewBox="0 0 24 24" fill="none" xmlns="http://www.w3.org/2000/svg">
<path d="M12 15H16.5C17.3284 15 18 15.6716 18 16.5V16.5C18 17.3284 17.3284 18 16.5 18V18C15.6716 18 15 17.3284 15 16.5V7.5C15 6.67157 15.6716 6 16.5 6V6C17.3284 6 18 6.67157 18 7.5V7.5C18 8.32843 17.3284 9 16.5 9H7.5C6.67157 9 6 8.32843 6 7.5V7.5C6 6.67157 6.67157 6 7.5 6V6C8.32843 6 9 6.67157 9 7.5V16.5C9 17.3284 8.32843 18 7.5 18V18C6.67157 18 6 17.3284 6 16.5V16.5C6 15.6716 6.67157 15 7.5 15H12Z" stroke="#323232" stroke-width="2" stroke-linejoin="round"/>
</svg>
