<svg width="24" height="24" viewBox="0 0 24 24" fill="none" xmlns="http://www.w3.org/2000/svg">
<path d="M17.6573 5C16.1116 3.7492 14.1433 3 12 3C7.02944 3 3 7.02944 3 12C3 14.8273 3.64707 17.35 4.2051 19" stroke="#323232" stroke-width="2" stroke-linecap="round"/>
<path d="M20.4878 9C20.8194 9.93834 20.9999 10.9481 20.9999 12C20.9999 13.0519 20.4878 13.8115 20.4878 15C20.4878 15.6123 20.6237 16.3899 20.7555 17" stroke="#323232" stroke-width="2" stroke-linecap="round"/>
<path d="M9.00012 7.99828C9.49621 7.62612 10.0703 7.34065 10.706 7.17032C13.3733 6.45561 16.115 8.03852 16.8297 10.7058C17.5444 13.3732 16.5001 14.4999 16.5001 15.4999C16.5001 17.3524 17.5001 18.9999 18.0001 19.9999" stroke="#323232" stroke-width="2" stroke-linecap="round"/>
<path d="M9 21C7.5 18 6.5 14.5 7 12" stroke="#323232" stroke-width="2" stroke-linecap="round"/>
<path d="M14 21C12.5 18.5 10.5 14.5 12.5 12" stroke="#323232" stroke-width="2" stroke-linecap="round"/>
</svg>
