<svg width="24" height="24" viewBox="0 0 24 24" fill="none" xmlns="http://www.w3.org/2000/svg">
<path d="M11.5655 4.24138L3.64286 8.64286C3.36266 8.79852 3.36266 9.20148 3.64286 9.35714L11.5655 13.7586C11.8357 13.9087 12.1643 13.9087 12.4345 13.7586L20.5706 9.23853C20.7578 9.13456 20.7578 8.86544 20.5706 8.76147L12.4345 4.24138C12.1643 4.09126 11.8357 4.09126 11.5655 4.24138Z" stroke="#323232" stroke-width="2" stroke-linecap="round" stroke-linejoin="round"/>
<path d="M5.5 10.5L5.13149 15.2906C5.05583 16.2742 5.70934 17.1639 6.66043 17.426C7.28355 17.5976 7.96876 17.8017 8.5 18C9.26467 18.2854 10.1126 18.7657 10.7824 19.1841C11.5227 19.6465 12.4773 19.6465 13.2177 19.184C13.8874 18.7657 14.7354 18.2854 15.5 18C16.0312 17.8017 16.7165 17.5976 17.3396 17.4259C18.2907 17.1639 18.9442 16.2742 18.8686 15.2906L18.5 10.5" stroke="#323232" stroke-width="2" stroke-linecap="round" stroke-linejoin="round"/>
<path d="M11.5 10.5L9.00772 11.9242C8.38457 12.2802 8 12.9429 8 13.6606V20" stroke="#323232" stroke-width="2" stroke-linecap="round" stroke-linejoin="round"/>
</svg>
