<svg width="24" height="24" viewBox="0 0 24 24" fill="none" xmlns="http://www.w3.org/2000/svg">
<path d="M5 9C5 7.11438 5 6.17157 5.58579 5.58579C6.17157 5 7.11438 5 9 5H12H15C16.8856 5 17.8284 5 18.4142 5.58579C19 6.17157 19 7.11438 19 9V12V15C19 16.8856 19 17.8284 18.4142 18.4142C17.8284 19 16.8856 19 15 19H12H9C7.11438 19 6.17157 19 5.58579 18.4142C5 17.8284 5 16.8856 5 15V12V9Z" stroke="#323232" stroke-width="2" stroke-linejoin="round"/>
<path d="M9 12C9 11.0681 9 10.6022 9.15224 10.2346C9.35523 9.74458 9.74458 9.35523 10.2346 9.15224C10.6022 9 11.0681 9 12 9V9V9C12.9319 9 13.3978 9 13.7654 9.15224C14.2554 9.35523 14.6448 9.74458 14.8478 10.2346C15 10.6022 15 11.0681 15 12V12V12C15 12.9319 15 13.3978 14.8478 13.7654C14.6448 14.2554 14.2554 14.6448 13.7654 14.8478C13.3978 15 12.9319 15 12 15V15V15C11.0681 15 10.6022 15 10.2346 14.8478C9.74458 14.6448 9.35523 14.2554 9.15224 13.7654C9 13.3978 9 12.9319 9 12V12V12Z" stroke="#323232" stroke-width="2" stroke-linejoin="round"/>
<path d="M8 5L8 3" stroke="#323232" stroke-width="2" stroke-linecap="round"/>
<path d="M8 21L8 19" stroke="#323232" stroke-width="2" stroke-linecap="round"/>
<path d="M21 16L19 16" stroke="#323232" stroke-width="2" stroke-linecap="round"/>
<path d="M5 16L3 16" stroke="#323232" stroke-width="2" stroke-linecap="round"/>
<path d="M16 5L16 3" stroke="#323232" stroke-width="2" stroke-linecap="round"/>
<path d="M16 21L16 19" stroke="#323232" stroke-width="2" stroke-linecap="round"/>
<path d="M21 8L19 8" stroke="#323232" stroke-width="2" stroke-linecap="round"/>
<path d="M5 8L3 8" stroke="#323232" stroke-width="2" stroke-linecap="round"/>
</svg>
