<svg width="24" height="24" viewBox="0 0 24 24" fill="none" xmlns="http://www.w3.org/2000/svg">
<path d="M19.688 5.69833C20.3342 6.28473 20.6573 6.57793 20.8287 6.96478C21 7.35163 21 7.78795 21 8.66058L21 13C21 14.8856 21 15.8284 20.4142 16.4142C19.8284 17 18.8856 17 17 17H13C11.1144 17 10.1716 17 9.58579 16.4142C9 15.8284 9 14.8856 9 13L9 7C9 5.11438 9 4.17157 9.58579 3.58579C10.1716 3 11.1144 3 13 3H15.17C15.9332 3 16.3148 3 16.6625 3.13422C17.0101 3.26845 17.2927 3.52488 17.8579 4.03776L19.688 5.69833Z" stroke="#323232" stroke-width="2" stroke-linejoin="round"/>
<path d="M9 7L7 7C5.11438 7 4.17157 7 3.58579 7.58579C3 8.17157 3 9.11438 3 11L3 17C3 18.8856 3 19.8284 3.58579 20.4142C4.17157 21 5.11438 21 7 21H11C12.8856 21 13.8284 21 14.4142 20.4142C15 19.8284 15 18.8856 15 17V17" stroke="#323232" stroke-width="2" stroke-linejoin="round"/>
</svg>
