<svg width="24" height="24" viewBox="0 0 24 24" fill="none" xmlns="http://www.w3.org/2000/svg">
<path d="M3.17163 5.12988L21.1716 19.1299" stroke="#323232" stroke-width="2" stroke-linecap="round" stroke-linejoin="round"/>
<path d="M14.3653 13.8456C13.8162 14.5483 12.9609 15 12 15C10.3431 15 9 13.6569 9 12C9 11.3256 9.22253 10.7032 9.59817 10.2021" stroke="#323232" stroke-width="2"/>
<path d="M9 5.62667C11.5803 4.45322 14.7268 4.92775 16.8493 7.05025L19.8511 10.052C20.3477 10.5486 20.5959 10.7969 20.7362 11.0605C21.0487 11.6479 21.0487 12.3521 20.7362 12.9395C20.5959 13.2031 20.3477 13.4514 19.8511 13.948V13.948L19.799 14" stroke="#323232" stroke-width="2" stroke-linecap="round" stroke-linejoin="round"/>
<path d="M6.30886 7.69116L4.82843 9.17159C3.49509 10.5049 2.82843 11.1716 2.82843 12C2.82843 12.8284 3.49509 13.4951 4.82843 14.8284L6.94975 16.9498C9.68342 19.6834 14.1156 19.6834 16.8492 16.9498L17.4536 16.3454" stroke="#323232" stroke-width="2" stroke-linecap="round" stroke-linejoin="round"/>
</svg>
