<svg width="24" height="24" viewBox="0 0 24 24" fill="none" xmlns="http://www.w3.org/2000/svg">
<path d="M12 3L12 21" stroke="#323232" stroke-width="2" stroke-linecap="round"/>
<path d="M8.00005 9.5L8.00005 9.16229C8.00005 8.58013 7.1841 8.44771 7 9L4 18L3.63246 19.1026C3.32131 20.0361 4.01608 21 5 21L7 21C7.55228 21 8.00003 20.5523 8 20L8.00005 9.5Z" stroke="#323232" stroke-width="2" stroke-linecap="round" stroke-linejoin="round"/>
<path d="M16 9.5L16 9.16229C16 8.58013 16.8159 8.44771 17 9L20 18L20.3675 19.1026C20.6787 20.0361 19.9839 21 19 21L17 21C16.4477 21 16 20.5523 16 20L16 9.5Z" stroke="#323232" stroke-width="2" stroke-linecap="round" stroke-linejoin="round"/>
</svg>
