<svg width="24" height="24" viewBox="0 0 24 24" fill="none" xmlns="http://www.w3.org/2000/svg">
<path d="M21 12L3 12" stroke="#323232" stroke-width="2" stroke-linecap="round"/>
<path d="M14.5 8.00005L14.8377 8.00005C15.4199 8.00005 15.5523 7.1841 15 7L6 4L4.89737 3.63245C3.96394 3.32131 3 4.01608 3 5L3 7C3 7.55228 3.44772 8.00003 4 8L14.5 8.00005Z" stroke="#323232" stroke-width="2" stroke-linecap="round" stroke-linejoin="round"/>
<path d="M14.5 16L14.8377 16C15.4199 16 15.5523 16.8159 15 17L6 20L4.89737 20.3675C3.96394 20.6787 3 19.9839 3 19L3 17C3 16.4477 3.44772 16 4 16L14.5 16Z" stroke="#323232" stroke-width="2" stroke-linecap="round" stroke-linejoin="round"/>
</svg>
