<svg width="24" height="24" viewBox="0 0 24 24" fill="none" xmlns="http://www.w3.org/2000/svg">
<path d="M19.4558 6.79893C20.2141 7.38874 20.5933 7.68365 20.7966 8.09946C21 8.51528 21 8.99563 21 9.95634L21 15V17C21 18.8856 21 19.8284 20.4142 20.4142C19.8284 21 18.8856 21 17 21H7C5.11438 21 4.17157 21 3.58579 20.4142C3 19.8284 3 18.8856 3 17V15L3 6C3 5.06812 3 4.60218 3.15224 4.23463C3.35523 3.74458 3.74458 3.35523 4.23463 3.15224C4.60218 3 5.06812 3 6 3V3H13H13.199C13.8788 3 14.2188 3 14.5343 3.10825C14.8498 3.21651 15.1181 3.4252 15.6548 3.84259L19.4558 6.79893Z" stroke="#323232" stroke-width="2" stroke-linejoin="round"/>
<path d="M15 15C15 16.6569 13.6569 18 12 18C10.3431 18 9 16.6569 9 15C9 13.3431 10.3431 12 12 12C13.6569 12 15 13.3431 15 15Z" stroke="#323232" stroke-width="2"/>
<path d="M6 3V6C6 7.10457 6.89543 8 8 8H11C12.1046 8 13 7.10457 13 6V3" stroke="#323232" stroke-width="2" stroke-linecap="round" stroke-linejoin="round"/>
</svg>
