<svg width="24" height="24" viewBox="0 0 24 24" fill="none" xmlns="http://www.w3.org/2000/svg">
<path d="M10 11L15 16" stroke="#323232" stroke-width="2" stroke-linecap="round" stroke-linejoin="round"/>
<path d="M15 11L10 16" stroke="#323232" stroke-width="2" stroke-linecap="round" stroke-linejoin="round"/>
<path d="M3 9.312C3 4.93757 3.93757 4 8.312 4H9.92963C10.5983 4 11.2228 4.3342 11.5937 4.8906L12.4063 6.1094C12.7772 6.6658 13.4017 7 14.0704 7C15.9647 7 17.8145 7 19.1258 7C20.1807 7 21.0128 7.82095 21.0029 8.8758C21.0013 9.05376 21 9.20638 21 9.312V14.688C21 19.0624 20.0624 20 15.688 20H8.312C3.93757 20 3 19.0624 3 14.688V9.312Z" stroke="#323232" stroke-width="2"/>
</svg>
