<svg width="24" height="24" viewBox="0 0 24 24" fill="none" xmlns="http://www.w3.org/2000/svg">
<path d="M6 3C7.65685 3 9 4.34315 9 6C9 7.65685 7.65685 9 6 9C4.34315 9 3 7.65685 3 6C3 4.34315 4.34315 3 6 3Z" stroke="#323232" stroke-width="2"/>
<path d="M18 3C19.6569 3 21 4.34315 21 6C21 7.65685 19.6569 9 18 9C16.3431 9 15 7.65685 15 6C15 4.34315 16.3431 3 18 3Z" stroke="#323232" stroke-width="2"/>
<path d="M12 15C13.6569 15 15 16.3431 15 18C15 19.6569 13.6569 21 12 21C10.3431 21 9 19.6569 9 18C9 16.3431 10.3431 15 12 15Z" stroke="#323232" stroke-width="2"/>
<path d="M6.01221 9C6.11299 11.4506 6.87561 12 9.65202 12H14.348C17.1244 12 17.887 11.4506 17.9878 9" stroke="#323232" stroke-width="2" stroke-linecap="round"/>
<path d="M12 15V12" stroke="#323232" stroke-width="2" stroke-linecap="round" stroke-linejoin="round"/>
</svg>
