<svg width="24" height="24" viewBox="0 0 24 24" fill="none" xmlns="http://www.w3.org/2000/svg">
<path d="M21 12C21 16.9706 16.9706 21 12 21C7.02944 21 3 16.9706 3 12C3 7.02944 7.02944 3 12 3C16.9706 3 21 7.02944 21 12Z" stroke="#323232" stroke-width="2"/>
<path d="M13.717 8.88177C12.5881 8.56954 11.4119 8.56954 10.283 8.88177C10.2637 8.8871 10.2444 8.89254 10.2252 8.89808C10.1067 8.93218 9.97923 8.909 9.8807 8.83491V8.83491C8.69311 7.94193 8.07278 7.98181 7.91927 8.01161V8.01161C7.8946 8.0164 7.87585 8.03481 7.86732 8.05844C7.86516 8.06441 7.86303 8.07038 7.8609 8.07636C7.61639 8.76505 7.57904 9.52813 7.75277 10.2425C7.76289 10.2841 7.77371 10.3255 7.78525 10.3667C7.78601 10.3694 7.78677 10.3721 7.78753 10.3748C7.79754 10.4102 7.7902 10.4483 7.7678 10.4776V10.4776C7.75074 10.4998 7.73394 10.5223 7.71741 10.545C7.24479 11.1939 6.98907 12.0213 7.00036 12.8747C7.00036 16.3399 8.80396 17.1358 10.535 17.3711L10.5708 17.3758C11.5347 17.5199 12.4587 17.511 13.4195 17.3479L13.4438 17.345C15.1832 17.1339 16.9996 16.3587 16.9996 12.8747C17.0109 12.0213 16.7552 11.1939 16.2826 10.545C16.2674 10.5242 16.252 10.5035 16.2364 10.483C16.236 10.4825 16.2356 10.482 16.2352 10.4815C16.211 10.4498 16.203 10.4085 16.2138 10.3701V10.3701C16.2257 10.3277 16.2368 10.2852 16.2471 10.2425C16.421 9.52611 16.3815 8.76076 16.1329 8.07176C16.1313 8.06753 16.1298 8.06331 16.1283 8.05909C16.1195 8.03503 16.1004 8.01628 16.0752 8.01142V8.01142C15.921 7.98164 15.3041 7.94381 14.1193 8.83491V8.83491C14.0208 8.90896 13.8933 8.93197 13.7748 8.89804C13.7556 8.89252 13.7363 8.8871 13.717 8.88177Z" stroke="#323232" stroke-width="2" stroke-linecap="round" stroke-linejoin="round"/>
</svg>
