<svg width="24" height="24" viewBox="0 0 24 24" fill="none" xmlns="http://www.w3.org/2000/svg">
<path d="M21 7L10 7" stroke="#323232" stroke-width="2" stroke-linecap="round" stroke-linejoin="round"/>
<path d="M17 10L10 10" stroke="#323232" stroke-width="2" stroke-linecap="round" stroke-linejoin="round"/>
<path d="M21 14L10 14" stroke="#323232" stroke-width="2" stroke-linecap="round" stroke-linejoin="round"/>
<path d="M17 17L10 17" stroke="#323232" stroke-width="2" stroke-linecap="round" stroke-linejoin="round"/>
<path d="M4.5 17C3.67157 17 3 16.3284 3 15.5C3 14.6716 3.67157 14 4.5 14C5.32843 14 6 14.6716 6 15.5C6 16.3284 5.32843 17 4.5 17Z" stroke="#323232" stroke-width="2" stroke-linejoin="round"/>
<path d="M4.5 10C3.67157 10 3 9.32843 3 8.5C3 7.67157 3.67157 7 4.5 7C5.32843 7 6 7.67157 6 8.5C6 9.32843 5.32843 10 4.5 10Z" stroke="#323232" stroke-width="2" stroke-linejoin="round"/>
</svg>
