<svg width="24" height="24" viewBox="0 0 24 24" fill="none" xmlns="http://www.w3.org/2000/svg">
<path d="M12 4C7.02944 4 3 8.02944 3 13C3 15.5728 4.07954 17.8934 5.81036 19.5337C6.14278 19.8487 6.59253 20 7.0505 20H16.9495C17.4075 20 17.8572 19.8487 18.1896 19.5337C19.9205 17.8934 21 15.5728 21 13C21 8.02944 16.9706 4 12 4Z" stroke="#323232" stroke-width="2"/>
<path d="M14 13C14 14.1046 13.1046 15 12 15C10.8954 15 10 14.1046 10 13C10 11.8954 10.8954 11 12 11C13.1046 11 14 11.8954 14 13Z" stroke="#323232" stroke-width="2"/>
<path d="M13.5 11.5L16 9" stroke="#323232" stroke-width="2" stroke-linecap="round" stroke-linejoin="round"/>
</svg>
