<svg width="24" height="24" viewBox="0 0 24 24" fill="none" xmlns="http://www.w3.org/2000/svg">
<path d="M13 3C14.8856 3 15.8284 3 16.4142 3.58579C17 4.17157 17 5.11438 17 7L17 12L17 17C17 18.8856 17 19.8284 16.4142 20.4142C15.8284 21 14.8856 21 13 21L10 21L7 21C5.11438 21 4.17157 21 3.58579 20.4142C3 19.8284 3 18.8856 3 17L3 12L3 7C3 5.11438 3 4.17157 3.58579 3.58579C4.17157 3 5.11438 3 7 3L10 3L13 3Z" stroke="#323232" stroke-width="2" stroke-linejoin="round"/>
<path d="M10 21L17 21C18.8856 21 19.8284 21 20.4142 20.4142C21 19.8284 21 18.8856 21 17L21 15.5L21 14C21 12.1144 21 11.1716 20.4142 10.5858C19.8284 10 18.8856 10 17 10V10" stroke="#323232" stroke-width="2" stroke-linejoin="round"/>
<path d="M13 12L7 12" stroke="#323232" stroke-width="2" stroke-linecap="round" stroke-linejoin="round"/>
<path d="M13 16L7 16" stroke="#323232" stroke-width="2" stroke-linecap="round" stroke-linejoin="round"/>
<path d="M13 8L7 8" stroke="#323232" stroke-width="2" stroke-linecap="round" stroke-linejoin="round"/>
</svg>
