<svg width="24" height="24" viewBox="0 0 24 24" fill="none" xmlns="http://www.w3.org/2000/svg">
<path d="M10.75 6L11.9369 3.15144V3.15144C11.9603 3.09535 12.0397 3.09535 12.0631 3.15144V3.15144L13.9872 7.76923C14.2977 8.51452 15.0259 9 15.8333 9H20.8931V9C20.9326 9 20.9523 9.04768 20.9244 9.07557L20.8931 9.10687L17.5 12.5" stroke="#323232" stroke-width="2" stroke-linecap="round" stroke-linejoin="round"/>
<path d="M9 9H3.13547V9C3.08548 9 3.06044 9.06044 3.09579 9.09579L3.13547 9.13547L7.16787 13.1679C7.68147 13.6815 7.87625 14.4331 7.67671 15.1315L6.06393 20.7762L6.0564 20.8026C6.03711 20.8701 6.1124 20.9251 6.17083 20.8861V20.8861L10.8906 17.7396C11.5624 17.2917 12.4376 17.2917 13.1094 17.7396L17.8186 20.879L17.837 20.8913C17.8928 20.9285 17.9646 20.8761 17.9462 20.8117V20.8117L16.8571 17" stroke="#323232" stroke-width="2" stroke-linecap="round" stroke-linejoin="round"/>
<path d="M3 3L21 21" stroke="#323232" stroke-width="2" stroke-linecap="round" stroke-linejoin="round"/>
</svg>
