<svg width="24" height="24" viewBox="0 0 24 24" fill="none" xmlns="http://www.w3.org/2000/svg">
<path d="M6 11.1936C6 6.91667 6.91667 6 11.1936 6H12.8064C17.0833 6 18 6.91667 18 11.1936V12.8064C18 17.0833 17.0833 18 12.8064 18H11.1936C6.91667 18 6 17.0833 6 12.8064V11.1936Z" stroke="#323232" stroke-width="2"/>
<path d="M9 6V5C9 3.89543 9.89543 3 11 3H13C14.1046 3 15 3.89543 15 5V6" stroke="#323232" stroke-width="2" stroke-linecap="round" stroke-linejoin="round"/>
<path d="M15 18L15 19C15 20.1046 14.1046 21 13 21L11 21C9.89543 21 9 20.1046 9 19L9 18" stroke="#323232" stroke-width="2" stroke-linecap="round" stroke-linejoin="round"/>
</svg>
