<svg width="24" height="24" viewBox="0 0 24 24" fill="none" xmlns="http://www.w3.org/2000/svg">
<path opacity="0.1" d="M9.6 19L9.5145 19.1425C9.28807 19.5199 9.5599 20 10 20H14C14.4401 20 14.7119 19.5199 14.4855 19.1425L14.4 19L12.6 16C12.3282 15.547 11.6718 15.547 11.4 16L9.6 19Z" fill="#323232"/>
<path d="M9.6 19L9.5145 19.1425C9.28807 19.5199 9.5599 20 10 20H14C14.4401 20 14.7119 19.5199 14.4855 19.1425L14.4 19L12.6 16C12.3282 15.547 11.6718 15.547 11.4 16L9.6 19Z" stroke="#323232" stroke-width="2" stroke-linecap="round" stroke-linejoin="round"/>
<path d="M7 16H6V16C5.06812 16 4.60218 16 4.23463 15.8478C3.74458 15.6448 3.35523 15.2554 3.15224 14.7654C3 14.3978 3 13.9319 3 13V8C3 6.11438 3 5.17157 3.58579 4.58579C4.17157 4 5.11438 4 7 4H17C18.8856 4 19.8284 4 20.4142 4.58579C21 5.17157 21 6.11438 21 8V13C21 13.9319 21 14.3978 20.8478 14.7654C20.6448 15.2554 20.2554 15.6448 19.7654 15.8478C19.3978 16 18.9319 16 18 16V16H17" stroke="#323232" stroke-width="2" stroke-linecap="round" stroke-linejoin="round"/>
</svg>
