<svg width="24" height="24" viewBox="0 0 24 24" fill="none" xmlns="http://www.w3.org/2000/svg">
<path opacity="0.1" fill-rule="evenodd" clip-rule="evenodd" d="M15.9998 16C17.2861 14.7137 18.3497 13.3465 19.1568 12.0001C18.3497 10.6536 17.2861 9.28634 15.9998 8C14.7134 6.71368 13.3462 5.65007 11.9998 4.84302C10.6533 5.65006 9.28611 6.71367 7.99981 7.99998C6.71346 9.28632 5.64983 10.6536 4.84277 12.0001C5.64982 13.3465 6.71343 14.7137 7.99974 16C9.28606 17.2864 10.6533 18.35 11.9998 19.157C13.3463 18.35 14.7135 17.2863 15.9998 16ZM11.9998 9.74994C10.7571 9.74994 9.74976 10.7573 9.74976 11.9999C9.74976 13.2426 10.7571 14.2499 11.9998 14.2499C13.2424 14.2499 14.2498 13.2426 14.2498 11.9999C14.2498 10.7573 13.2424 9.74994 11.9998 9.74994Z" fill="#323232"/>
<path d="M20 20.0001C17.7909 22.2092 12.4183 20.4183 8 16.0001C3.58171 11.5818 1.79084 6.20916 3.99999 4.00001C6.20913 1.79087 11.5817 3.58173 16 8.00003C20.4183 12.4183 22.2092 17.7909 20 20.0001Z" stroke="#323232" stroke-width="2"/>
<path d="M3.99994 20C1.79079 17.7909 3.58166 12.4183 7.99995 8C12.4182 3.58171 17.7908 1.79084 20 3.99999C22.2091 6.20913 20.4183 11.5817 16 16C11.5817 20.4183 6.20908 22.2092 3.99994 20Z" stroke="#323232" stroke-width="2"/>
<path d="M14 12C14 13.1046 13.1046 14 12 14C10.8954 14 10 13.1046 10 12C10 10.8954 10.8954 10 12 10C13.1046 10 14 10.8954 14 12Z" stroke="#323232" stroke-width="2"/>
</svg>
