<svg width="24" height="24" viewBox="0 0 24 24" fill="none" xmlns="http://www.w3.org/2000/svg">
<path d="M9 18C9 18 9 21 12.0464 21C15.0929 21 15.0929 18 15.0929 18" stroke="#323232" stroke-width="2" stroke-linejoin="round"/>
<path d="M18 12.8438L17.0035 7.70578C17.0012 7.69359 16.999 7.68277 16.9962 7.67066C16.9263 7.36502 15.86 3 12 3C10.7106 3 9.73293 3.48707 9 4.14721" stroke="#323232" stroke-width="2" stroke-linecap="round" stroke-linejoin="round"/>
<path d="M18 18H16H15H9H7.42514C6.16781 18 5.22234 16.8536 5.46173 15.6192L6.99645 7.70579C6.99882 7.6936 7.00128 7.6815 7.00406 7.6694C7.01554 7.61935 7.05196 7.46822 7.12042 7.24927" stroke="#323232" stroke-width="2" stroke-linecap="round" stroke-linejoin="round"/>
<path d="M3 3L21 21" stroke="#323232" stroke-width="2" stroke-linecap="round" stroke-linejoin="round"/>
<path opacity="0.1" d="M7.06848 7.42224C7.04176 7.51584 7.01482 7.61015 6.99627 7.70581L5.46154 15.6192C5.22216 16.8536 6.16763 18 7.42496 18H16.5747C16.8896 18 17.185 17.9281 17.4471 17.8009L7.06848 7.42224Z" fill="#323232"/>
</svg>
