<svg width="24" height="24" viewBox="0 0 24 24" fill="none" xmlns="http://www.w3.org/2000/svg">
<path opacity="0.1" fill-rule="evenodd" clip-rule="evenodd" d="M16.2841 5C18.0315 5.67886 20.5002 6 20.5002 6C21.1551 10.5839 20.2513 14.4093 17.6215 17.2814C17.4206 17.17 17.2352 17.0384 17.0591 16.8892C16.0243 16.0126 14.4011 15.75 12.0002 15.75C9.64764 15.75 8.04395 16.0223 7.00733 16.8697C6.80812 17.0325 6.60207 17.1578 6.3789 17.2814C3.74913 14.4093 2.84539 10.5839 3.50024 6C3.50024 6 6.15237 5.67886 7.89978 5C9.33366 4.44294 11.1047 3.49316 11.7501 3.13876C11.9095 3.05122 12.0002 3 12.0002 3C12.0002 3 12.0982 3.05122 12.2691 3.13876C12.9612 3.49316 14.8502 4.44294 16.2841 5ZM8.75023 10C8.75023 8.20507 10.2053 6.75 12.0002 6.75C13.7952 6.75 15.2502 8.20507 15.2502 10C15.2502 11.7949 13.7952 13.25 12.0002 13.25C10.2053 13.25 8.75023 11.7949 8.75023 10Z" fill="#323232"/>
<path d="M15 10C15 11.6569 13.6569 13 12 13C10.3431 13 9 11.6569 9 10C9 8.34315 10.3431 7 12 7C13.6569 7 15 8.34315 15 10Z" stroke="#323232" stroke-width="2"/>
<path d="M6.89258 17.3151C7.83086 16.335 9.41279 16 11.9998 16C14.6214 16 16.2109 16.3191 17.1443 17.3151" stroke="#323232" stroke-width="2" stroke-linecap="round"/>
<path d="M16.2836 5C18.031 5.67886 20.4998 6 20.4998 6C21.4998 13 18.8651 18.231 11.9997 21C5.13433 18.231 2.49976 13 3.49976 6C3.49976 6 6.15189 5.67886 7.89931 5C9.33319 4.44294 11.1043 3.49316 11.7496 3.13876C11.909 3.05122 11.9998 3 11.9998 3C11.9998 3 12.0977 3.05122 12.2686 3.13876C12.9607 3.49316 14.8497 4.44294 16.2836 5Z" stroke="#323232" stroke-width="2" stroke-linecap="round" stroke-linejoin="round"/>
</svg>
