<svg width="24" height="24" viewBox="0 0 24 24" fill="none" xmlns="http://www.w3.org/2000/svg">
<path d="M8 8.5H13.5C16 8.5 16 12 13.5 12H10.5" stroke="#323232" stroke-width="2" stroke-linecap="round" stroke-linejoin="round"/>
<path d="M10.5 12H13.5C16 12 16 15.5 13.5 15.5H8" stroke="#323232" stroke-width="2" stroke-linecap="round" stroke-linejoin="round"/>
<path d="M10 17V7" stroke="#323232" stroke-width="2" stroke-linecap="round" stroke-linejoin="round"/>
<path d="M13 8.5V7" stroke="#323232" stroke-width="2" stroke-linecap="round" stroke-linejoin="round"/>
<path d="M13 17V15.5" stroke="#323232" stroke-width="2" stroke-linecap="round" stroke-linejoin="round"/>
<path d="M3 12C3 4.5885 4.5885 3 12 3C19.4115 3 21 4.5885 21 12C21 19.4115 19.4115 21 12 21C4.5885 21 3 19.4115 3 12Z" stroke="#323232" stroke-width="2"/>
<path opacity="0.1" fill-rule="evenodd" clip-rule="evenodd" d="M12 3C4.5885 3 3 4.5885 3 12C3 19.4115 4.5885 21 12 21C19.4115 21 21 19.4115 21 12C21 4.5885 19.4115 3 12 3ZM8 8.25C7.86193 8.25 7.75 8.36193 7.75 8.5C7.75 8.63807 7.86193 8.75 8 8.75H9.75V15.25H8C7.86193 15.25 7.75 15.3619 7.75 15.5C7.75 15.6381 7.86193 15.75 8 15.75H9.75V17C9.75 17.1381 9.86193 17.25 10 17.25C10.1381 17.25 10.25 17.1381 10.25 17V15.75H12.75V17C12.75 17.1381 12.8619 17.25 13 17.25C13.1381 17.25 13.25 17.1381 13.25 17V15.75H13.5C14.187 15.75 14.7234 15.5076 15.0873 15.1255C15.4481 14.7467 15.625 14.2456 15.625 13.75C15.625 13.2544 15.4481 12.7533 15.0873 12.3745C14.9467 12.2268 14.7803 12.1 14.5894 12C14.7803 11.9 14.9467 11.7732 15.0873 11.6255C15.4481 11.2467 15.625 10.7456 15.625 10.25C15.625 9.75436 15.4481 9.25328 15.0873 8.87446C14.7234 8.49236 14.187 8.25 13.5 8.25H13.25V7C13.25 6.86193 13.1381 6.75 13 6.75C12.8619 6.75 12.75 6.86193 12.75 7V8.25H10.25V7C10.25 6.86193 10.1381 6.75 10 6.75C9.86193 6.75 9.75 6.86193 9.75 7V8.25H8Z" fill="#323232"/>
</svg>
