<svg width="24" height="24" viewBox="0 0 24 24" fill="none" xmlns="http://www.w3.org/2000/svg">
<path opacity="0.1" fill-rule="evenodd" clip-rule="evenodd" d="M7 3.50006V10.0619C7 11.9132 9.37545 12.6744 10.4515 11.168C11.2104 10.1055 12.7896 10.1055 13.5485 11.168C14.6246 12.6744 17 11.9132 17 10.0619V3.50006C17 3.35514 16.9846 3.21381 16.9553 3.07764C20.233 3.39449 21 4.77942 21 8.97606V15.0241C21 19.9453 19.9452 21.0001 15.024 21.0001H8.976C4.05476 21.0001 3 19.9453 3 15.0241V8.97606C3 4.77942 3.76702 3.39449 7.04469 3.07764C7.01541 3.21381 7 3.35514 7 3.50006Z" fill="#323232"/>
<path d="M3 8.976C3 4.05476 4.05476 3 8.976 3H15.024C19.9452 3 21 4.05476 21 8.976V15.024C21 19.9452 19.9452 21 15.024 21H8.976C4.05476 21 3 19.9452 3 15.024V8.976Z" stroke="#323232" stroke-width="2"/>
<path d="M7 3.5L7 10.0618C7 11.9131 9.37545 12.6744 10.4515 11.1679V11.1679C11.2104 10.1054 12.7896 10.1054 13.5485 11.1679V11.1679C14.6246 12.6744 17 11.9131 17 10.0618V3.5" stroke="#323232" stroke-width="2" stroke-linecap="round"/>
</svg>
