<svg width="24" height="24" viewBox="0 0 24 24" fill="none" xmlns="http://www.w3.org/2000/svg">
<path opacity="0.1" d="M16 21C17.8856 21 19.8284 21 20.4142 20.4142C21 19.8284 21 18.8856 21 17V11C21 9.11438 21 8.17157 20.4142 7.58579C19.8284 7 17.8856 7 16 7V21Z" fill="#323232"/>
<path opacity="0.1" d="M8 21V7C6.11438 7 4.17157 7 3.58579 7.58579C3 8.17157 3 9.11438 3 11V17C3 18.8856 3 19.8284 3.58579 20.4142C4.17157 21 6.11438 21 8 21Z" fill="#323232"/>
<path d="M8 21V5C8 3.89543 8.89543 3 10 3H14C15.1046 3 16 3.89543 16 5V21" stroke="#323232" stroke-width="2" stroke-linejoin="round"/>
<path d="M3 11C3 9.11438 3 8.17157 3.58579 7.58579C4.17157 7 5.11438 7 7 7H8H16H17C18.8856 7 19.8284 7 20.4142 7.58579C21 8.17157 21 9.11438 21 11V17C21 18.8856 21 19.8284 20.4142 20.4142C19.8284 21 18.8856 21 17 21H16H8H7C5.11438 21 4.17157 21 3.58579 20.4142C3 19.8284 3 18.8856 3 17V11Z" stroke="#323232" stroke-width="2" stroke-linejoin="round"/>
</svg>
