<svg width="24" height="24" viewBox="0 0 24 24" fill="none" xmlns="http://www.w3.org/2000/svg">
<path opacity="0.1" d="M8.656 9C6.46878 9 6 9.46878 6 11.656V12.5C6 12.7761 6.22386 13 6.5 13H17.5C17.7761 13 18 12.7761 18 12.5V11.656C18 9.46878 17.5312 9 15.344 9H8.656Z" fill="#323232"/>
<path d="M3 15.9248C3 13.5162 3.51623 13 5.9248 13H18.0752C20.4838 13 21 13.5162 21 15.9248V18.0752C21 20.4838 20.4838 21 18.0752 21H5.9248C3.51623 21 3 20.4838 3 18.0752V15.9248Z" stroke="#323232" stroke-width="2"/>
<path d="M6 13V11.656C6 9.46878 6.46878 9 8.656 9H15.344C17.5312 9 18 9.46878 18 11.656V13" stroke="#323232" stroke-width="2" stroke-linecap="round"/>
<path d="M9 9V7" stroke="#323232" stroke-width="2" stroke-linecap="round" stroke-linejoin="round"/>
<path d="M9 3.5V3" stroke="#323232" stroke-width="2" stroke-linecap="round" stroke-linejoin="round"/>
<path d="M15 9V7" stroke="#323232" stroke-width="2" stroke-linecap="round" stroke-linejoin="round"/>
<path d="M15 3.5V3" stroke="#323232" stroke-width="2" stroke-linecap="round" stroke-linejoin="round"/>
<path d="M12 9V7" stroke="#323232" stroke-width="2" stroke-linecap="round" stroke-linejoin="round"/>
<path d="M12 3.5V3" stroke="#323232" stroke-width="2" stroke-linecap="round" stroke-linejoin="round"/>
<path d="M3 16.0397C3.30926 16.0122 3.63847 16 4 16C5.61017 16 6.38983 17 8 17C9.61017 17 10.3898 16 12 16C13.6102 16 14.3898 17 16 17C17.6102 17 18.3898 16 20 16C20.3615 16 20.6907 16.0122 21 16.0397" stroke="#323232" stroke-width="2" stroke-linecap="round" stroke-linejoin="round"/>
<path opacity="0.1" d="M21 16.2897C20.9927 16.2897 20.9853 16.2894 20.9778 16.2887C20.6776 16.262 20.356 16.25 20 16.25C19.2504 16.25 18.6947 16.4803 18.0965 16.7306L18.0856 16.7352C17.4921 16.9836 16.8553 17.25 16 17.25C15.1447 17.25 14.5079 16.9836 13.9144 16.7352L13.9035 16.7306C13.3053 16.4803 12.7496 16.25 12 16.25C11.2504 16.25 10.6947 16.4803 10.0965 16.7306L10.0856 16.7352C9.49208 16.9836 8.85535 17.25 8 17.25C7.14465 17.25 6.50792 16.9836 5.91436 16.7352L5.9035 16.7306C5.30525 16.4803 4.74961 16.25 4 16.25C3.64399 16.25 3.32239 16.262 3.02216 16.2887C3.01472 16.2894 3.00733 16.2897 3 16.2897V18.0752C3 20.4838 3.51623 21 5.9248 21H18.0752C20.4838 21 21 20.4838 21 18.0752V16.2897Z" fill="#323232"/>
</svg>
