<svg width="24" height="24" viewBox="0 0 24 24" fill="none" xmlns="http://www.w3.org/2000/svg">
<path opacity="0.1" d="M3.03671 9C3.01115 9.39861 3 9.83486 3 10.312V15.688C3 20.0624 3.93757 21 8.312 21H15.688C20.0624 21 21 20.0624 21 15.688V10.312C21 9.83486 20.9888 9.39861 20.9633 9H3.03671Z" fill="#323232"/>
<path d="M3 10.312C3 5.93757 3.93757 5 8.312 5H15.688C20.0624 5 21 5.93757 21 10.312V15.688C21 20.0624 20.0624 21 15.688 21H8.312C3.93757 21 3 20.0624 3 15.688V10.312Z" stroke="#323232" stroke-width="2"/>
<path d="M6 5L6 3" stroke="#323232" stroke-width="2" stroke-linecap="round"/>
<path d="M18 5L18 3" stroke="#323232" stroke-width="2" stroke-linecap="round"/>
<path d="M3.5 9H20.5" stroke="#323232" stroke-width="2" stroke-linecap="round"/>
</svg>
