<svg width="24" height="24" viewBox="0 0 24 24" fill="none" xmlns="http://www.w3.org/2000/svg">
<path opacity="0.1" fill-rule="evenodd" clip-rule="evenodd" d="M17.7654 5.15224C17.3978 5 16.9319 5 16 5H8C7.06812 5 6.60218 5 6.23463 5.15224C5.74458 5.35523 5.35523 5.74458 5.15224 6.23463C5 6.60218 5 7.06812 5 8V16C5 16.9319 5 17.3978 5.15224 17.7654C5.35523 18.2554 5.74458 18.6448 6.23463 18.8478C6.60218 19 7.06812 19 8 19H16C16.9319 19 17.3978 19 17.7654 18.8478C18.2554 18.6448 18.6448 18.2554 18.8478 17.7654C19 17.3978 19 16.9319 19 16V8C19 7.06812 19 6.60218 18.8478 6.23463C18.6448 5.74458 18.2554 5.35523 17.7654 5.15224ZM15.25 11.9906C15.25 11.5326 15.25 11.1761 15.2304 10.8887C15.2105 10.597 15.1696 10.3583 15.0787 10.139C14.8504 9.58765 14.4124 9.14963 13.861 8.92127C13.6417 8.83043 13.403 8.78951 13.1113 8.76961C12.8239 8.75 12.4674 8.75 12.0094 8.75H11.9906C11.5326 8.75 11.1761 8.75 10.8887 8.76961C10.597 8.78951 10.3583 8.83043 10.139 8.92127C9.58765 9.14963 9.14963 9.58765 8.92127 10.139C8.83043 10.3583 8.78951 10.597 8.76961 10.8887C8.75 11.1761 8.75 11.5326 8.75 11.9906V12.0094C8.75 12.4674 8.75 12.8239 8.76961 13.1113C8.78951 13.403 8.83043 13.6417 8.92127 13.861C9.14963 14.4124 9.58765 14.8504 10.139 15.0787C10.3583 15.1696 10.597 15.2105 10.8887 15.2304C11.1761 15.25 11.5326 15.25 11.9906 15.25H12.0094C12.4674 15.25 12.8239 15.25 13.1113 15.2304C13.403 15.2105 13.6417 15.1696 13.861 15.0787C14.4124 14.8504 14.8504 14.4124 15.0787 13.861C15.1696 13.6417 15.2105 13.403 15.2304 13.1113C15.25 12.8239 15.25 12.4674 15.25 12.0094V11.9906Z" fill="#323232"/>
<path d="M16 5C16.9319 5 17.3978 5 17.7654 5.15224C18.2554 5.35523 18.6448 5.74458 18.8478 6.23463C19 6.60218 19 7.06812 19 8V8L19 16V16C19 16.9319 19 17.3978 18.8478 17.7654C18.6448 18.2554 18.2554 18.6448 17.7654 18.8478C17.3978 19 16.9319 19 16 19V19L8 19V19C7.06812 19 6.60218 19 6.23463 18.8478C5.74458 18.6448 5.35523 18.2554 5.15224 17.7654C5 17.3978 5 16.9319 5 16V16L5 8V8C5 7.06812 5 6.60217 5.15224 6.23463C5.35523 5.74458 5.74458 5.35523 6.23463 5.15224C6.60218 5 7.06812 5 8 5V5L16 5V5Z" stroke="#323232" stroke-width="2" stroke-linejoin="round"/>
<path d="M13.7143 9C14.4244 9 15 9.57563 15 10.2857V10.2857L15 13.7143V13.7143C15 14.4244 14.4244 15 13.7143 15V15L10.2857 15V15C9.57563 15 9 14.4244 9 13.7143V13.7143L9 10.2857V10.2857C9 9.57563 9.57563 9 10.2857 9V9L13.7143 9V9Z" stroke="#323232" stroke-width="2" stroke-linejoin="round"/>
<path d="M8 5L8 3" stroke="#323232" stroke-width="2" stroke-linecap="round"/>
<path d="M8 21L8 19" stroke="#323232" stroke-width="2" stroke-linecap="round"/>
<path d="M21 16L19 16" stroke="#323232" stroke-width="2" stroke-linecap="round"/>
<path d="M5 16L3 16" stroke="#323232" stroke-width="2" stroke-linecap="round"/>
<path d="M16 5L16 3" stroke="#323232" stroke-width="2" stroke-linecap="round"/>
<path d="M16 21L16 19" stroke="#323232" stroke-width="2" stroke-linecap="round"/>
<path d="M21 8L19 8" stroke="#323232" stroke-width="2" stroke-linecap="round"/>
<path d="M5 8L3 8" stroke="#323232" stroke-width="2" stroke-linecap="round"/>
</svg>
