<svg width="24" height="24" viewBox="0 0 24 24" fill="none" xmlns="http://www.w3.org/2000/svg">
<path opacity="0.1" fill-rule="evenodd" clip-rule="evenodd" d="M17.7654 5.15224C17.3978 5 16.9319 5 16 5H8C7.06812 5 6.60218 5 6.23463 5.15224C5.74458 5.35523 5.35523 5.74458 5.15224 6.23463C5 6.60218 5 7.06812 5 8V16C5 16.9319 5 17.3978 5.15224 17.7654C5.35523 18.2554 5.74458 18.6448 6.23463 18.8478C6.60218 19 7.06812 19 8 19H16C16.9319 19 17.3978 19 17.7654 18.8478C18.2554 18.6448 18.6448 18.2554 18.8478 17.7654C19 17.3978 19 16.9319 19 16V8C19 7.06812 19 6.60218 18.8478 6.23463C18.6448 5.74458 18.2554 5.35523 17.7654 5.15224ZM15.25 11.9906C15.25 11.5326 15.25 11.1761 15.2304 10.8887C15.2105 10.597 15.1696 10.3583 15.0787 10.139C14.8504 9.58765 14.4124 9.14963 13.861 8.92127C13.6417 8.83043 13.403 8.78951 13.1113 8.76961C12.8239 8.75 12.4674 8.75 12.0094 8.75H11.9906C11.5326 8.75 11.1761 8.75 10.8887 8.76961C10.597 8.78951 10.3583 8.83043 10.139 8.92127C9.58765 9.14963 9.14963 9.58765 8.92127 10.139C8.83043 10.3583 8.78951 10.597 8.76961 10.8887C8.75 11.1761 8.75 11.5326 8.75 11.9906V12.0094C8.75 12.4674 8.75 12.8239 8.76961 13.1113C8.78951 13.403 8.83043 13.6417 8.92127 13.861C9.14963 14.4124 9.58765 14.8504 10.139 15.0787C10.3583 15.1696 10.597 15.2105 10.8887 15.2304C11.1761 15.25 11.5326 15.25 11.9906 15.25H12.0094C12.4674 15.25 12.8239 15.25 13.1113 15.2304C13.403 15.2105 13.6417 15.1696 13.861 15.0787C14.4124 14.8504 14.8504 14.4124 15.0787 13.861C15.1696 13.6417 15.2105 13.403 15.2304 13.1113C15.25 12.8239 15.25 12.4674 15.25 12.0094V11.9906Z" fill="#323232"/>
    <path d="M5 9C5 7.11438 5 6.17157 5.58579 5.58579C6.17157 5 7.11438 5 9 5H12H15C16.8856 5 17.8284 5 18.4142 5.58579C19 6.17157 19 7.11438 19 9V12V15C19 16.8856 19 17.8284 18.4142 18.4142C17.8284 19 16.8856 19 15 19H12H9C7.11438 19 6.17157 19 5.58579 18.4142C5 17.8284 5 16.8856 5 15V12V9Z" stroke="#323232" stroke-width="2" stroke-linejoin="round"/>
    <path d="M9 12C9 11.0681 9 10.6022 9.15224 10.2346C9.35523 9.74458 9.74458 9.35523 10.2346 9.15224C10.6022 9 11.0681 9 12 9V9V9C12.9319 9 13.3978 9 13.7654 9.15224C14.2554 9.35523 14.6448 9.74458 14.8478 10.2346C15 10.6022 15 11.0681 15 12V12V12C15 12.9319 15 13.3978 14.8478 13.7654C14.6448 14.2554 14.2554 14.6448 13.7654 14.8478C13.3978 15 12.9319 15 12 15V15V15C11.0681 15 10.6022 15 10.2346 14.8478C9.74458 14.6448 9.35523 14.2554 9.15224 13.7654C9 13.3978 9 12.9319 9 12V12V12Z" stroke="#323232" stroke-width="2" stroke-linejoin="round"/>
<path d="M8 5L8 3" stroke="#323232" stroke-width="2" stroke-linecap="round"/>
<path d="M8 21L8 19" stroke="#323232" stroke-width="2" stroke-linecap="round"/>
<path d="M21 16L19 16" stroke="#323232" stroke-width="2" stroke-linecap="round"/>
<path d="M5 16L3 16" stroke="#323232" stroke-width="2" stroke-linecap="round"/>
<path d="M16 5L16 3" stroke="#323232" stroke-width="2" stroke-linecap="round"/>
<path d="M16 21L16 19" stroke="#323232" stroke-width="2" stroke-linecap="round"/>
<path d="M21 8L19 8" stroke="#323232" stroke-width="2" stroke-linecap="round"/>
<path d="M5 8L3 8" stroke="#323232" stroke-width="2" stroke-linecap="round"/>
</svg>
