<svg width="24" height="24" viewBox="0 0 24 24" fill="none" xmlns="http://www.w3.org/2000/svg">
<path opacity="0.1" fill-rule="evenodd" clip-rule="evenodd" d="M12 3C7.02944 3 3 7.02944 3 12C3 16.9706 7.02944 21 12 21C16.9706 21 21 16.9706 21 12C21 7.02944 16.9706 3 12 3ZM14.0449 7.16323C13.4378 6.90625 12.8502 7.06007 12.4269 7.43359C12.0101 7.80131 11.75 8.38045 11.75 9V15C11.75 15.6195 12.0101 16.1987 12.4269 16.5664C12.8502 16.9399 13.4378 17.0938 14.0449 16.8368C15.928 16.0397 17.25 14.1745 17.25 12C17.25 9.82549 15.928 7.96033 14.0449 7.16323Z" fill="#323232"/>
<path d="M21 12C21 16.9706 16.9706 21 12 21C7.02944 21 3 16.9706 3 12C3 7.02944 7.02944 3 12 3C16.9706 3 21 7.02944 21 12Z" stroke="#323232" stroke-width="2"/>
<path d="M17 12C17 14.0706 15.7414 15.8472 13.9475 16.6065C12.9303 17.0371 12 16.1046 12 15V9C12 7.89543 12.9303 6.96289 13.9475 7.39346C15.7414 8.15279 17 9.92941 17 12Z" stroke="#323232" stroke-width="2"/>
</svg>
