<svg width="24" height="24" viewBox="0 0 24 24" fill="none" xmlns="http://www.w3.org/2000/svg">
<path opacity="0.1" d="M3.58579 3.58579C3 4.17157 3 5.11438 3 7V13H21V7C21 5.11438 21 4.17157 20.4142 3.58579C19.8284 3 18.8856 3 17 3H7C5.11438 3 4.17157 3 3.58579 3.58579Z" fill="#323232"/>
<path d="M3 7C3 5.11438 3 4.17157 3.58579 3.58579C4.17157 3 5.11438 3 7 3H12H17C18.8856 3 19.8284 3 20.4142 3.58579C21 4.17157 21 5.11438 21 7V10V13C21 14.8856 21 15.8284 20.4142 16.4142C19.8284 17 18.8856 17 17 17H12H7C5.11438 17 4.17157 17 3.58579 16.4142C3 15.8284 3 14.8856 3 13V10V7Z" stroke="#323232" stroke-width="2" stroke-linejoin="round"/>
<path d="M13.3333 17L14.6667 19V19C15.2366 19.8549 14.6238 21 13.5963 21H12H10.4037C9.37624 21 8.7634 19.8549 9.33333 19V19L10.6667 17" stroke="#323232" stroke-width="2" stroke-linecap="round" stroke-linejoin="round"/>
<path d="M3 13H21" stroke="#323232" stroke-width="2" stroke-linecap="round"/>
</svg>
