<svg width="24" height="24" viewBox="0 0 24 24" fill="none" xmlns="http://www.w3.org/2000/svg">
<path d="M12.5 16C17.75 16 17.75 8 12.5 8H11C9.89543 8 9 8.89543 9 10V14C9 15.1046 9.89543 16 11 16H12.5Z" stroke="#323232" stroke-width="2" stroke-linecap="round" stroke-linejoin="round"/>
<path d="M7 12H11" stroke="#323232" stroke-width="2" stroke-linecap="round" stroke-linejoin="round"/>
<path d="M21 12C21 16.9706 16.9706 21 12 21C7.02944 21 3 16.9706 3 12C3 7.02944 7.02944 3 12 3C16.9706 3 21 7.02944 21 12Z" stroke="#323232" stroke-width="2"/>
<path opacity="0.1" fill-rule="evenodd" clip-rule="evenodd" d="M21 12C21 16.9706 16.9706 21 12 21C7.02944 21 3 16.9706 3 12C3 7.02944 7.02944 3 12 3C16.9706 3 21 7.02944 21 12ZM8.75 10C8.75 8.75736 9.75736 7.75 11 7.75H12.5C13.8817 7.75 14.9357 8.279 15.6413 9.08537C16.3426 9.88686 16.6875 10.9478 16.6875 12C16.6875 13.0522 16.3426 14.1131 15.6413 14.9146C14.9357 15.721 13.8817 16.25 12.5 16.25H11C9.75736 16.25 8.75 15.2426 8.75 14V12.25H7C6.86193 12.25 6.75 12.1381 6.75 12C6.75 11.8619 6.86193 11.75 7 11.75H8.75V10Z" fill="#323232"/>
</svg>
