<svg width="24" height="24" viewBox="0 0 24 24" fill="none" xmlns="http://www.w3.org/2000/svg">
<path opacity="0.1" d="M4 13.5C4 8.79134 8.92699 5.0065 11.0478 3.59543C11.6294 3.20848 12.3706 3.20848 12.9522 3.59543C15.073 5.0065 20 8.79134 20 13.5C20 17.9183 16.4183 21.5 12 21.5C7.58172 21.5 4 17.9183 4 13.5Z" fill="#323232"/>
<path d="M4 13.5C4 11.0008 5.38798 8.76189 7.00766 7C8.43926 5.44272 10.0519 4.25811 11.0471 3.5959C11.6287 3.20893 12.3713 3.20893 12.9529 3.5959C13.9481 4.25811 15.5607 5.44272 16.9923 7C18.612 8.76189 20 11.0008 20 13.5C20 17.9183 16.4183 21.5 12 21.5C7.58172 21.5 4 17.9183 4 13.5Z" stroke="#323232" stroke-width="2"/>
</svg>
