<svg width="24" height="24" viewBox="0 0 24 24" fill="none" xmlns="http://www.w3.org/2000/svg">
<path opacity="0.1" d="M20.2263 3.4201C20.0865 3.31156 19.9318 3.22116 19.7654 3.15224C19.3978 3 18.9319 3 18 3H6C5.06812 3 4.60218 3 4.23463 3.15224C3.74458 3.35523 3.35523 3.74458 3.15224 4.23463C3 4.60218 3 5.06812 3 6V18C3 18.9319 3 19.3978 3.15224 19.7654C3.22116 19.9318 3.31156 20.0865 3.4201 20.2263L20.2263 3.4201Z" fill="#323232"/>
<path d="M3 6C3 5.06812 3 4.60218 3.15224 4.23463C3.35523 3.74458 3.74458 3.35523 4.23463 3.15224C4.60218 3 5.06812 3 6 3V3H18V3C18.9319 3 19.3978 3 19.7654 3.15224C20.2554 3.35523 20.6448 3.74458 20.8478 4.23463C21 4.60218 21 5.06812 21 6V6V18V18C21 18.9319 21 19.3978 20.8478 19.7654C20.6448 20.2554 20.2554 20.6448 19.7654 20.8478C19.3978 21 18.9319 21 18 21V21H6V21C5.06812 21 4.60218 21 4.23463 20.8478C3.74458 20.6448 3.35523 20.2554 3.15224 19.7654C3 19.3978 3 18.9319 3 18V18V6V6Z" stroke="#323232" stroke-width="2" stroke-linejoin="round"/>
<path d="M4 20L20 4" stroke="#323232" stroke-width="2" stroke-linecap="round" stroke-linejoin="round"/>
<path d="M8.5 6L8.5 11" stroke="#323232" stroke-width="2" stroke-linecap="round" stroke-linejoin="round"/>
<path d="M11 8.5L6 8.5" stroke="#323232" stroke-width="2" stroke-linecap="round" stroke-linejoin="round"/>
<path d="M18 16L13 16" stroke="#323232" stroke-width="2" stroke-linecap="round" stroke-linejoin="round"/>
</svg>
