<svg width="24" height="24" viewBox="0 0 24 24" fill="none" xmlns="http://www.w3.org/2000/svg">
<path opacity="0.1" d="M6.29528 7.87634L5 9.17162C3.66667 10.505 3 11.1716 3 12C3 12.8285 3.66667 13.4951 5 14.8285L7.12132 16.9498C9.85499 19.6835 14.2871 19.6835 17.0208 16.9498L17.4322 16.5384L14.5053 14.2619C13.9146 14.8713 13.0873 15.2501 12.1716 15.2501C10.3766 15.2501 8.92157 13.795 8.92157 12.0001C8.92157 11.3746 9.09827 10.7904 9.40447 10.2946L6.29528 7.87634Z" fill="#323232"/>
<path d="M3.17139 5.12988L21.1714 19.1299" stroke="#323232" stroke-width="2" stroke-linecap="round" stroke-linejoin="round"/>
<path d="M9 5.62667C11.5803 4.45322 14.7268 4.92775 16.8493 7.05025L19.8511 10.052C20.3477 10.5486 20.5959 10.7969 20.7362 11.0605C21.0487 11.6479 21.0487 12.3521 20.7362 12.9395C20.5959 13.2031 20.3477 13.4514 19.8511 13.948V13.948L19.799 14" stroke="#323232" stroke-width="2" stroke-linecap="round" stroke-linejoin="round"/>
<path d="M14.3653 13.8456C13.8162 14.5483 12.9609 15 12 15C10.3431 15 9 13.6569 9 12C9 11.3256 9.22253 10.7032 9.59817 10.2021" stroke="#323232" stroke-width="2"/>
<path d="M6.30886 7.69116L4.82843 9.17159C3.49509 10.5049 2.82843 11.1716 2.82843 12C2.82843 12.8284 3.49509 13.4951 4.82843 14.8284L6.94975 16.9498C9.68342 19.6834 14.1156 19.6834 16.8492 16.9498L17.4536 16.3454" stroke="#323232" stroke-width="2" stroke-linecap="round" stroke-linejoin="round"/>
</svg>
