<svg width="24" height="24" viewBox="0 0 24 24" fill="none" xmlns="http://www.w3.org/2000/svg">
<path opacity="0.1" fill-rule="evenodd" clip-rule="evenodd" d="M16.8494 7.05025C14.1158 4.31658 9.6836 4.31658 6.94993 7.05025L4.82861 9.17157C3.49528 10.5049 2.82861 11.1716 2.82861 12C2.82861 12.8284 3.49528 13.4951 4.82861 14.8284L6.94993 16.9497C9.6836 19.6834 14.1158 19.6834 16.8494 16.9497L18.9707 14.8284C20.3041 13.4951 20.9707 12.8284 20.9707 12C20.9707 11.1716 20.3041 10.5049 18.9707 9.17157L16.8494 7.05025ZM12.0002 8.75C10.2053 8.75 8.75019 10.2051 8.75019 12C8.75019 13.7949 10.2053 15.25 12.0002 15.25C13.7951 15.25 15.2502 13.7949 15.2502 12C15.2502 10.2051 13.7951 8.75 12.0002 8.75Z" fill="#323232"/>
<path d="M15 12C15 13.6569 13.6569 15 12 15C10.3431 15 9 13.6569 9 12C9 10.3431 10.3431 9 12 9C13.6569 9 15 10.3431 15 12Z" stroke="#323232" stroke-width="2"/>
<path d="M6.94975 7.05025C9.68342 4.31658 14.1156 4.31658 16.8492 7.05025L18.9706 9.17157C20.3039 10.5049 20.9706 11.1716 20.9706 12C20.9706 12.8284 20.3039 13.4951 18.9706 14.8284L16.8492 16.9497C14.1156 19.6834 9.68342 19.6834 6.94975 16.9497L4.82843 14.8284C3.49509 13.4951 2.82843 12.8284 2.82843 12C2.82843 11.1716 3.49509 10.5049 4.82843 9.17157L6.94975 7.05025Z" stroke="#323232" stroke-width="2" stroke-linejoin="round"/>
</svg>
