<svg width="24" height="24" viewBox="0 0 24 24" fill="none" xmlns="http://www.w3.org/2000/svg">
<path d="M19.7563 8.84562L11.0867 17.5826C10.7112 17.961 10.2002 18.1739 9.66704 18.1739L7.16153 18.1739C6.42402 18.1739 5.82615 17.5706 5.82615 16.8331V14.3052C5.82615 13.7775 6.03474 13.2711 6.40647 12.8965L15.0825 4.15311C19.0886 0.801307 23.0948 5.4938 19.7563 8.84562Z" stroke="#000" stroke-width="2" stroke-linecap="round" stroke-linejoin="round"/>
<path d="M3 20.9999L16 7.99994" stroke="#000" stroke-width="2" stroke-linecap="round" stroke-linejoin="round"/>
<path d="M16 4V8H20" stroke="#000" stroke-width="2" stroke-linecap="round" stroke-linejoin="round"/>
<path d="M11 9V13H15" stroke="#000" stroke-width="2" stroke-linecap="round" stroke-linejoin="round"/>
<path opacity="0.1" fill-rule="evenodd" clip-rule="evenodd" d="M20.5769 7.75C22.2488 4.59248 18.6656 1.15524 15.0825 4.15311L6.4065 12.8965C6.03477 13.2711 5.82617 13.7775 5.82617 14.3052V16.8331C5.82617 17.1125 5.91194 17.3725 6.05857 17.5878L15.8232 7.82316C15.8735 7.77294 15.9398 7.74855 16.0056 7.75M16.0056 7.75H20.5769H16.0056Z" fill="#000"/>
</svg>
