<svg width="24" height="24" viewBox="0 0 24 24" fill="none" xmlns="http://www.w3.org/2000/svg">
<path opacity="0.1" d="M16 3.12991C15.1971 3.03775 14.2725 3 13.2096 3H10.7904C9.72745 3 8.80288 3.03775 8 3.12991V20.8701C8.80288 20.9623 9.72745 21 10.7904 21H13.2096C14.2725 21 15.1971 20.9623 16 20.8701V3.12991Z" fill="#323232"/>
<path d="M8 3.5V20.5" stroke="#323232" stroke-width="2" stroke-linecap="round" stroke-linejoin="round"/>
<path d="M16 3.5V20.5" stroke="#323232" stroke-width="2" stroke-linecap="round" stroke-linejoin="round"/>
<path d="M21 12L4 12" stroke="#323232" stroke-width="2" stroke-linecap="round" stroke-linejoin="round"/>
<path d="M8 8H4" stroke="#323232" stroke-width="2" stroke-linecap="round" stroke-linejoin="round"/>
<path d="M8 16H4" stroke="#323232" stroke-width="2" stroke-linecap="round" stroke-linejoin="round"/>
<path d="M20 8H16" stroke="#323232" stroke-width="2" stroke-linecap="round" stroke-linejoin="round"/>
<path d="M20 16H16" stroke="#323232" stroke-width="2" stroke-linecap="round" stroke-linejoin="round"/>
<path d="M3 10.7904C3 4.37501 4.37501 3 10.7904 3H13.2096C19.625 3 21 4.37501 21 10.7904V13.2096C21 19.625 19.625 21 13.2096 21H10.7904C4.37501 21 3 19.625 3 13.2096V10.7904Z" stroke="#323232" stroke-width="2"/>
</svg>
