<svg width="24" height="24" viewBox="0 0 24 24" fill="none" xmlns="http://www.w3.org/2000/svg">
<path opacity="0.1" fill-rule="evenodd" clip-rule="evenodd" d="M6.05135 8.6838C6.5942 7.05533 9.00008 7.44578 9.00008 9.16234L9.00003 20C9.00005 21.1046 8.10453 22 7.00003 22L5.00003 22C3.33355 22 2.15682 20.3674 2.6838 18.7864L6.05135 8.6838Z" fill="#323232"/>
<path opacity="0.1" fill-rule="evenodd" clip-rule="evenodd" d="M17.9486 8.6838C17.4058 7.05533 14.9999 7.44578 14.9999 9.16234L15 20C14.9999 21.1046 15.8955 22 17 22L19 22C20.6664 22 21.8432 20.3674 21.3162 18.7864L17.9486 8.6838Z" fill="#323232"/>
<path d="M12 3L12 21" stroke="#323232" stroke-width="2" stroke-linecap="round"/>
<path d="M8.00005 9.5L8.00005 9.16229C8.00005 8.58013 7.1841 8.44771 7 9L4 18L3.63246 19.1026C3.32131 20.0361 4.01608 21 5 21L7 21C7.55228 21 8.00003 20.5523 8 20L8.00005 9.5Z" stroke="#323232" stroke-width="2" stroke-linecap="round" stroke-linejoin="round"/>
<path d="M16 9.5L16 9.16229C16 8.58013 16.8159 8.44771 17 9L20 18L20.3675 19.1026C20.6787 20.0361 19.9839 21 19 21L17 21C16.4477 21 16 20.5523 16 20L16 9.5Z" stroke="#323232" stroke-width="2" stroke-linecap="round" stroke-linejoin="round"/>
</svg>
