<svg width="24" height="24" viewBox="0 0 24 24" fill="none" xmlns="http://www.w3.org/2000/svg">
<path opacity="0.1" fill-rule="evenodd" clip-rule="evenodd" d="M5.75 3.00924C4.66395 3.03684 4.02467 3.14691 3.58579 3.58579C3 4.17157 3 5.11438 3 7V17C3 18.8856 3 19.8284 3.58579 20.4142C4.17157 21 5.11438 21 7 21H17C18.8856 21 19.8284 21 20.4142 20.4142C21 19.8284 21 18.8856 21 17L21 9.95634C21 8.99563 21 8.51528 20.7966 8.09946C20.5933 7.68365 20.2141 7.38874 19.4558 6.79893L15.6548 3.84259C15.1181 3.4252 14.8498 3.21651 14.5343 3.10825C14.2268 3.00274 13.8961 3.00007 13.25 3V6C13.25 7.24264 12.2426 8.25 11 8.25H8C6.75736 8.25 5.75 7.24264 5.75 6V3.00924ZM8.75 15C8.75 13.2051 10.2051 11.75 12 11.75C13.7949 11.75 15.25 13.2051 15.25 15C15.25 16.7949 13.7949 18.25 12 18.25C10.2051 18.25 8.75 16.7949 8.75 15Z" fill="#323232"/>
<path d="M19.4558 6.79893C20.2141 7.38874 20.5933 7.68365 20.7966 8.09946C21 8.51528 21 8.99563 21 9.95634L21 15V17C21 18.8856 21 19.8284 20.4142 20.4142C19.8284 21 18.8856 21 17 21H7C5.11438 21 4.17157 21 3.58579 20.4142C3 19.8284 3 18.8856 3 17V15L3 6C3 5.06812 3 4.60218 3.15224 4.23463C3.35523 3.74458 3.74458 3.35523 4.23463 3.15224C4.60218 3 5.06812 3 6 3V3H13H13.199C13.8788 3 14.2188 3 14.5343 3.10825C14.8498 3.21651 15.1181 3.4252 15.6548 3.84259L19.4558 6.79893Z" stroke="#323232" stroke-width="2" stroke-linejoin="round"/>
<path d="M15 15C15 16.6569 13.6569 18 12 18C10.3431 18 9 16.6569 9 15C9 13.3431 10.3431 12 12 12C13.6569 12 15 13.3431 15 15Z" stroke="#323232" stroke-width="2"/>
<path d="M6 3V6C6 7.10457 6.89543 8 8 8H11C12.1046 8 13 7.10457 13 6V3" stroke="#323232" stroke-width="2" stroke-linecap="round" stroke-linejoin="round"/>
</svg>
