<svg width="24" height="24" viewBox="0 0 24 24" fill="none" xmlns="http://www.w3.org/2000/svg">
<path opacity="0.1" d="M8.312 4C3.93757 4 3 4.93757 3 9.312V14.688C3 18.4835 3.70583 19.6916 6.75 19.9449V16.312C6.75 15.2127 6.80858 14.3122 6.9708 13.5823C7.13365 12.8495 7.40426 12.2734 7.83881 11.8388C8.27336 11.4043 8.84952 11.1337 9.5823 10.9708C10.3122 10.8086 11.2127 10.75 12.312 10.75H21V9.312C21 9.20638 21.0013 9.05376 21.0029 8.8758C21.0128 7.82095 20.1807 7 19.1258 7H14.0704C13.4017 7 12.7772 6.6658 12.4063 6.1094L11.5937 4.8906C11.2228 4.3342 10.5983 4 9.92963 4H8.312Z" fill="#323232"/>
<path d="M3 9.312C3 4.93757 3.93757 4 8.312 4H9.92963C10.5983 4 11.2228 4.3342 11.5937 4.8906L12.4063 6.1094C12.7772 6.6658 13.4017 7 14.0704 7C15.9647 7 17.8145 7 19.1258 7C20.1807 7 21.0128 7.82095 21.0029 8.8758C21.0013 9.05376 21 9.20638 21 9.312V14.688C21 19.0624 20.0624 20 15.688 20H8.312C3.93757 20 3 19.0624 3 14.688V9.312Z" stroke="#323232" stroke-width="2" stroke-linejoin="round"/>
<path d="M21 11H17.688H12.312C7.93757 11 7 11.9376 7 16.312V19.5" stroke="#323232" stroke-width="2" stroke-linecap="round"/>
</svg>
