<svg width="24" height="24" viewBox="0 0 24 24" fill="none" xmlns="http://www.w3.org/2000/svg">
<path opacity="0.1" d="M17 8.5C17 11.2614 14.7615 13.5 12 13.5C9.41291 13.5 7.2847 11.5351 7.02637 9.01616C7.0882 9.06156 7.17004 9.078 7.24889 9.05342C7.49182 8.97769 7.71978 8.88711 7.93868 8.79646C7.99291 8.774 8.04628 8.75167 8.09917 8.72955C8.26245 8.66122 8.42139 8.59472 8.58541 8.5329C9.0136 8.37152 9.45694 8.25 10.0001 8.25C10.7497 8.25 11.3053 8.48029 11.9036 8.73062L11.9144 8.73517C12.508 8.98355 13.1447 9.25 14.0001 9.25C14.6382 9.25 15.1525 9.10234 15.6214 8.92346C15.7959 8.85689 15.9575 8.78916 16.1148 8.72322C16.3934 8.60641 16.6586 8.49524 16.9586 8.4061C16.9729 8.40184 16.9866 8.3964 16.9995 8.38993C16.9999 8.42661 17 8.4633 17 8.5Z" fill="#323232"/>
<path d="M12 13.5C14.7614 13.5 17 11.2614 17 8.5C17 6.94339 16.6822 5.39404 16.405 4.33839C16.1916 3.52591 15.4412 3 14.6011 3H9.39886C8.55883 3 7.80843 3.52591 7.59503 4.33839C7.31776 5.39404 7 6.94339 7 8.5C7 11.2614 9.23858 13.5 12 13.5Z" stroke="#323232" stroke-width="2" stroke-linecap="round"/>
<path d="M8 21H16" stroke="#323232" stroke-width="2" stroke-linecap="round" stroke-linejoin="round"/>
<path d="M12 21V13.5" stroke="#323232" stroke-width="2" stroke-linecap="round" stroke-linejoin="round"/>
<path d="M7.17432 8.81475C8.10164 8.52566 8.83248 8 9.99989 8C11.6101 8 12.3897 9 13.9999 9C15.1931 9 15.9302 8.45087 16.8872 8.16646" stroke="#323232" stroke-width="2" stroke-linecap="round" stroke-linejoin="round"/>
</svg>
