<svg width="24" height="24" viewBox="0 0 24 24" fill="none" xmlns="http://www.w3.org/2000/svg">
<path d="M3 12C3 4.5885 4.5885 3 12 3C19.4115 3 21 4.5885 21 12C21 19.4115 19.4115 21 12 21C4.5885 21 3 19.4115 3 12Z" stroke="#323232" stroke-width="2"/>
<path d="M13.9139 15.1002L15.3202 11.194C15.8934 9.60173 14.3532 8.06156 12.7609 8.63476L8.85473 10.041C7.17598 10.6454 7.3918 13.0851 9.15057 13.3854C9.87673 13.5094 10.4456 14.0782 10.5695 14.8044C10.8698 16.5631 13.3096 16.7789 13.9139 15.1002Z" stroke="#323232" stroke-width="2" stroke-linecap="round" stroke-linejoin="round"/>
<path opacity="0.1" fill-rule="evenodd" clip-rule="evenodd" d="M12 3C4.5885 3 3 4.5885 3 12C3 19.4115 4.5885 21 12 21C19.4115 21 21 19.4115 21 12C21 4.5885 19.4115 3 12 3ZM15.3199 11.194L13.9137 15.1002C13.3093 16.7789 10.8696 16.5631 10.5693 14.8044C10.4453 14.0782 9.87649 13.5094 9.15032 13.3854C7.39155 13.0851 7.17574 10.6454 8.85449 10.041L12.7607 8.63476C14.353 8.06156 15.8931 9.60173 15.3199 11.194Z" fill="#323232"/>
</svg>
