<svg width="24" height="24" viewBox="0 0 24 24" fill="none" xmlns="http://www.w3.org/2000/svg">
<path opacity="0.1" fill-rule="evenodd" clip-rule="evenodd" d="M12 21C16.9706 21 21 16.9706 21 12C21 7.02944 16.9706 3 12 3C7.02944 3 3 7.02944 3 12C3 16.9706 7.02944 21 12 21ZM14.149 15.1848C13.4576 17.1053 10.6665 16.8584 10.323 14.8464C10.2169 14.2248 9.72996 13.7379 9.10837 13.6318C7.09631 13.2882 6.84941 10.4971 8.76993 9.80572L12.6761 8.39948C14.4674 7.75462 16.2001 9.48732 15.5553 11.2786L14.149 15.1848Z" fill="#323232"/>
<path d="M21 12C21 16.9706 16.9706 21 12 21C7.02944 21 3 16.9706 3 12C3 7.02944 7.02944 3 12 3C16.9706 3 21 7.02944 21 12Z" stroke="#323232" stroke-width="2"/>
<path d="M13.9139 15.1002L15.3202 11.194C15.8934 9.60173 14.3532 8.06156 12.7609 8.63476L8.85473 10.041C7.17598 10.6454 7.3918 13.0851 9.15057 13.3854C9.87673 13.5094 10.4456 14.0782 10.5695 14.8044C10.8698 16.5631 13.3096 16.7789 13.9139 15.1002Z" stroke="#323232" stroke-width="2" stroke-linecap="round" stroke-linejoin="round"/>
</svg>
