<svg width="24" height="24" viewBox="0 0 24 24" fill="none" xmlns="http://www.w3.org/2000/svg">
<path opacity="0.1" d="M10.5021 19.3071L4.8824 12.9557C3.20947 11.0649 2.3404 8.6871 3.59728 6.41967C5.04945 3.79992 7.71053 3.26448 10.0229 5.02375C10.818 5.62861 11.4706 6.31934 11.7893 6.67771C11.8268 6.71986 11.8745 6.74774 11.9255 6.76135C11.8514 6.78454 11.7892 6.84173 11.7628 6.92094L10.7628 9.92094C10.7384 9.99413 10.7492 10.0745 10.792 10.1387L12.6995 13L10.792 15.8613C10.7513 15.9223 10.7395 15.9982 10.7596 16.0687L11.75 19.535V19.9663C11.2865 19.9083 10.8397 19.6886 10.5021 19.3071Z" fill="#000"/>
<path d="M4.8824 12.9557L10.5021 19.3071C11.2981 20.2067 12.7019 20.2067 13.4979 19.3071L19.1176 12.9557C20.7905 11.0649 21.6596 8.6871 20.4027 6.41967C18.9505 3.79992 16.2895 3.26448 13.9771 5.02375C13.182 5.62861 12.5294 6.31934 12.2107 6.67771C12.1 6.80224 11.9 6.80224 11.7893 6.67771C11.4706 6.31934 10.818 5.62861 10.0229 5.02375C7.71053 3.26448 5.04945 3.79992 3.59728 6.41967C2.3404 8.6871 3.20947 11.0649 4.8824 12.9557Z" stroke="#000" stroke-width="2" stroke-linejoin="round"/>
<path d="M12 7L11 10L13 13L11 16L12 19.5" stroke="#000" stroke-width="2" stroke-linecap="round" stroke-linejoin="round"/>
</svg>
