<svg width="24" height="24" viewBox="0 0 24 24" fill="none" xmlns="http://www.w3.org/2000/svg">
<path opacity="0.1" d="M17.7218 7.81307L14.7218 5.02736C13.4309 3.82862 12.7854 3.22925 12 3.22925C11.2146 3.22925 10.5691 3.82862 9.2782 5.02736L6.2782 7.81307C5.64836 8.39791 5.33345 8.69034 5.16672 9.07267C5 9.455 5 9.88475 5 10.7442V17C5 18.8856 5 19.8284 5.58579 20.4142C6.17157 21 7.11438 21 9 21H9.75V17C9.75 15.7573 10.7574 14.75 12 14.75C13.2426 14.75 14.25 15.7573 14.25 17V21H15C16.8856 21 17.8284 21 18.4142 20.4142C19 19.8284 19 18.8856 19 17L19 10.7442C19 9.88475 19 9.455 18.8333 9.07267C18.6666 8.69034 18.3516 8.39791 17.7218 7.81307Z" fill="#323232"/>
<path d="M17.7218 7.8131C18.3516 8.39795 18.6666 8.69037 18.8333 9.0727C19 9.45504 19 9.88478 19 10.7443L19 17C19 18.8856 19 19.8284 18.4142 20.4142C17.8284 21 16.8856 21 15 21L14 21L10 21L9 21C7.11438 21 6.17157 21 5.58579 20.4142C5 19.8284 5 18.8856 5 17L5 10.7443C5 9.88478 5 9.45503 5.16672 9.0727C5.33345 8.69037 5.64836 8.39795 6.2782 7.8131L8.5 5.75L9.2782 5.02739C10.5691 3.82865 11.2146 3.22928 12 3.22928C12.7854 3.22928 13.4309 3.82865 14.7218 5.02739L15.5 5.75L17.7218 7.8131Z" stroke="#323232" stroke-width="2" stroke-linejoin="round"/>
<path d="M10 21V17C10 15.8954 10.8954 15 12 15V15C13.1046 15 14 15.8954 14 17V21" stroke="#323232" stroke-width="2" stroke-linecap="round" stroke-linejoin="round"/>
</svg>
