<svg width="24" height="24" viewBox="0 0 24 24" fill="none" xmlns="http://www.w3.org/2000/svg">
<path opacity="0.1" d="M3 7C3 5.11438 3 4.17157 3.58579 3.58579C4.17157 3 5.11438 3 7 3H17C18.8856 3 19.8284 3 20.4142 3.58579C21 4.17157 21 5.11438 21 7L3 7Z" fill="#323232"/>
<path opacity="0.1" d="M3 11V14.75H5.92963C6.68193 14.75 7.38445 15.126 7.80175 15.7519L8.61428 16.9707C8.93884 17.4576 9.48525 17.75 10.0704 17.75H13.9296C14.5148 17.75 15.0612 17.4576 15.3857 16.9707L16.1983 15.7519C16.6156 15.126 17.3181 14.75 18.0704 14.75H21V11H3Z" fill="#323232"/>
<path d="M3 15H5.92963C6.59834 15 7.2228 15.3342 7.59373 15.8906L8.40627 17.1094C8.7772 17.6658 9.40166 18 10.0704 18H13.9296C14.5983 18 15.2228 17.6658 15.5937 17.1094L16.4063 15.8906C16.7772 15.3342 17.4017 15 18.0704 15H21" stroke="#323232" stroke-width="2" stroke-linecap="round" stroke-linejoin="round"/>
<path d="M3 11H21" stroke="#323232" stroke-width="2" stroke-linecap="round" stroke-linejoin="round"/>
<path d="M3 7H21" stroke="#323232" stroke-width="2" stroke-linecap="round" stroke-linejoin="round"/>
<path d="M3 7C3 5.11438 3 4.17157 3.58579 3.58579C4.17157 3 5.11438 3 7 3H12H17C18.8856 3 19.8284 3 20.4142 3.58579C21 4.17157 21 5.11438 21 7V7V15V17C21 18.8856 21 19.8284 20.4142 20.4142C19.8284 21 18.8856 21 17 21H12H7C5.11438 21 4.17157 21 3.58579 20.4142C3 19.8284 3 18.8856 3 17V15V7V7Z" stroke="#323232" stroke-width="2" stroke-linejoin="round"/>
</svg>
