<svg width="24" height="24" viewBox="0 0 24 24" fill="none" xmlns="http://www.w3.org/2000/svg">
<path opacity="0.1" d="M4.44905 17.009C-0.246262 7.83762 7.34063 0.686125 19.5547 3.61245C20.4161 3.81881 21.0082 4.60984 20.9652 5.49452C20.5863 13.288 17.0342 17.7048 6.13264 17.9857C5.43034 18.0038 4.7692 17.6344 4.44905 17.009Z" fill="#323232"/>
<path d="M4.44905 17.009C-0.246262 7.83762 7.34063 0.686125 19.5547 3.61245C20.4161 3.81881 21.0082 4.60984 20.9652 5.49452C20.5863 13.288 17.0342 17.7048 6.13264 17.9857C5.43034 18.0038 4.7692 17.6344 4.44905 17.009Z" stroke="#323232" stroke-width="2" stroke-linecap="round" stroke-linejoin="round"/>
<path d="M3.99987 21C5.49993 15.5 5.99988 12.5 11.9998 9.99997" stroke="#323232" stroke-width="2" stroke-linecap="round" stroke-linejoin="round"/>
</svg>
