<svg width="24" height="24" viewBox="0 0 24 24" fill="none" xmlns="http://www.w3.org/2000/svg">
<path opacity="0.1" fill-rule="evenodd" clip-rule="evenodd" d="M3 13C3 8.02944 7.02944 4 12 4C16.9706 4 21 8.02944 21 13C21 15.5728 19.9205 17.8934 18.1896 19.5337C17.8572 19.8487 17.4075 20 16.9495 20H7.0505C6.59253 20 6.14278 19.8487 5.81036 19.5337C4.07954 17.8934 3 15.5728 3 13ZM12 10.75C10.7574 10.75 9.75 11.7574 9.75 13C9.75 14.2426 10.7574 15.25 12 15.25C13.2426 15.25 14.25 14.2426 14.25 13C14.25 11.7574 13.2426 10.75 12 10.75Z" fill="#323232"/>
<path d="M12 4C7.02944 4 3 8.02944 3 13C3 15.5728 4.07954 17.8934 5.81036 19.5337C6.14278 19.8487 6.59253 20 7.0505 20H16.9495C17.4075 20 17.8572 19.8487 18.1896 19.5337C19.9205 17.8934 21 15.5728 21 13C21 8.02944 16.9706 4 12 4Z" stroke="#323232" stroke-width="2"/>
<path d="M14 13C14 14.1046 13.1046 15 12 15C10.8954 15 10 14.1046 10 13C10 11.8954 10.8954 11 12 11C13.1046 11 14 11.8954 14 13Z" stroke="#323232" stroke-width="2"/>
<path d="M13.5 11.5L16 9" stroke="#323232" stroke-width="2" stroke-linecap="round" stroke-linejoin="round"/>
</svg>
