<svg width="24" height="24" viewBox="0 0 24 24" fill="none" xmlns="http://www.w3.org/2000/svg">
<path opacity="0.1" d="M9 6C9 5.06812 9 4.60218 9.15224 4.23463C9.35523 3.74458 9.74458 3.35523 10.2346 3.15224C10.6022 3 11.0681 3 12 3V3V3C12.9319 3 13.3978 3 13.7654 3.15224C14.2554 3.35523 14.6448 3.74458 14.8478 4.23463C15 4.60218 15 5.06812 15 6V9V12C15 12.9319 15 13.3978 14.8478 13.7654C14.6448 14.2554 14.2554 14.6448 13.7654 14.8478C13.3978 15 12.9319 15 12 15V15V15C11.0681 15 10.6022 15 10.2346 14.8478C9.74458 14.6448 9.35523 14.2554 9.15224 13.7654C9 13.3978 9 12.9319 9 12V9V6Z" fill="#323232"/>
<path d="M7 21H17" stroke="#323232" stroke-width="2" stroke-linecap="round" stroke-linejoin="round"/>
<path d="M12 15L12 21" stroke="#323232" stroke-width="2" stroke-linecap="round" stroke-linejoin="round"/>
<path d="M6 16L8.49615 17.6641C8.82469 17.8831 9.2107 18 9.60555 18H14.3944C14.7893 18 15.1753 17.8831 15.5038 17.6641L18 16" stroke="#323232" stroke-width="2" stroke-linecap="round"/>
<path d="M9 6C9 5.06812 9 4.60218 9.15224 4.23463C9.35523 3.74458 9.74458 3.35523 10.2346 3.15224C10.6022 3 11.0681 3 12 3V3V3C12.9319 3 13.3978 3 13.7654 3.15224C14.2554 3.35523 14.6448 3.74458 14.8478 4.23463C15 4.60218 15 5.06812 15 6V9V12C15 12.9319 15 13.3978 14.8478 13.7654C14.6448 14.2554 14.2554 14.6448 13.7654 14.8478C13.3978 15 12.9319 15 12 15V15V15C11.0681 15 10.6022 15 10.2346 14.8478C9.74458 14.6448 9.35523 14.2554 9.15224 13.7654C9 13.3978 9 12.9319 9 12V9V6Z" stroke="#323232" stroke-width="2" stroke-linejoin="round"/>
</svg>
