<svg width="24" height="24" viewBox="0 0 24 24" fill="none" xmlns="http://www.w3.org/2000/svg">
<path opacity="0.1" fill-rule="evenodd" clip-rule="evenodd" d="M5.54896 4.10675C6.89894 2.37106 9.11703 2 12 2C14.883 2 17.1011 2.37106 18.451 4.10675C19.1054 4.94804 19.4817 6.02047 19.7023 7.29669C19.9229 8.57303 20 10.1298 20 12C20 13.8702 19.9229 15.427 19.7023 16.7033C19.4817 17.9795 19.1054 19.052 18.451 19.8933C17.1011 21.6289 14.883 22 12 22C9.11703 22 6.89894 21.6289 5.54896 19.8933C4.89462 19.052 4.51833 17.9795 4.29773 16.7033C4.07711 15.427 4 13.8702 4 12C4 10.1298 4.07711 8.57303 4.29773 7.29669C4.51833 6.02047 4.89462 4.94804 5.54896 4.10675Z" fill="#323232"/>
<path d="M5 12C5 4.5885 6.2355 3 12 3C17.7645 3 19 4.5885 19 12C19 19.4115 17.7645 21 12 21C6.2355 21 5 19.4115 5 12Z" stroke="#323232" stroke-width="2"/>
<path d="M12 7L12 12" stroke="#323232" stroke-width="2" stroke-linecap="round" stroke-linejoin="round"/>
</svg>
