<svg width="24" height="24" viewBox="0 0 24 24" fill="none" xmlns="http://www.w3.org/2000/svg">
<path opacity="0.1" d="M19.4558 17.2011C20.2141 16.6113 20.5933 16.3164 20.7966 15.9005C21 15.4847 21 15.0044 21 14.0437L21 7C21 5.11438 21 4.17157 20.4142 3.58579C19.8284 3 18.8856 3 17 3H7C5.11438 3 4.17157 3 3.58579 3.58579C3 4.17157 3 5.11438 3 7L3 17C3 18.8856 3 19.8284 3.58579 20.4142C4.17157 21 5.11438 21 7 21H13.199C13.8789 21 14.2188 21 14.5343 20.8917C14.8498 20.7835 15.1181 20.5748 15.6548 20.1574L19.4558 17.2011Z" fill="#323232"/>
<path d="M19.4558 17.2011C20.2141 16.6113 20.5933 16.3164 20.7966 15.9005C21 15.4847 21 15.0044 21 14.0437L21 7C21 5.11438 21 4.17157 20.4142 3.58579C19.8284 3 18.8856 3 17 3H7C5.11438 3 4.17157 3 3.58579 3.58579C3 4.17157 3 5.11438 3 7L3 17C3 18.8856 3 19.8284 3.58579 20.4142C4.17157 21 5.11438 21 7 21H13.199C13.8789 21 14.2188 21 14.5343 20.8917C14.8498 20.7835 15.1181 20.5748 15.6548 20.1574L19.4558 17.2011Z" stroke="#323232" stroke-width="2" stroke-linejoin="round"/>
<path d="M12 17L12 12.3283C12 12.147 12.147 12 12.3284 12L17 12" stroke="#323232" stroke-width="2" stroke-linecap="round" stroke-linejoin="round"/>
</svg>
