<svg width="24" height="24" viewBox="0 0 24 24" fill="none" xmlns="http://www.w3.org/2000/svg">
<path opacity="0.1" d="M9 6C9 4.89543 9.89543 4 11 4H17C18.1046 4 19 4.89543 19 6V8V8C19 8.55228 18.5523 9 18 9H10C9.44772 9 9 8.55228 9 8V8V6Z" fill="#323232"/>
<path d="M9 18L9 6C9 4.89543 9.89543 4 11 4L17 4C18.1046 4 19 4.89543 19 6V18" stroke="#323232" stroke-width="2" stroke-linecap="round" stroke-linejoin="round"/>
<path d="M9 9L19 9" stroke="#323232" stroke-width="2" stroke-linecap="round" stroke-linejoin="round"/>
<path d="M5 18C5 16.8954 5.89543 16 7 16V16V16C8.10457 16 9 16.8954 9 18V18V18C9 19.1046 8.10457 20 7 20V20V20C5.89543 20 5 19.1046 5 18V18V18Z" stroke="#323232" stroke-width="2" stroke-linejoin="round"/>
<path d="M15 18C15 16.8954 15.8954 16 17 16V16V16C18.1046 16 19 16.8954 19 18V18V18C19 19.1046 18.1046 20 17 20V20V20C15.8954 20 15 19.1046 15 18V18V18Z" stroke="#323232" stroke-width="2" stroke-linejoin="round"/>
</svg>
