<svg width="24" height="24" viewBox="0 0 24 24" fill="none" xmlns="http://www.w3.org/2000/svg">
<path opacity="0.1" d="M13.5001 3.87497C13.8112 4.36744 14.769 5.42051 14.5937 5.91666C14.216 6.98509 13.1971 7.74998 12.0001 7.74998C10.8031 7.74998 9.78414 6.98509 9.40651 5.91666C9.23118 5.42061 10.1892 4.36731 10.5001 3.87497C11.1964 2.77263 12.8039 2.77263 13.5001 3.87497Z" fill="#323232"/>
<path opacity="0.1" d="M6 13.25V19C6 20.1046 6.89543 21 8 21H16C17.1046 21 18 20.1046 18 19V13.25H6Z" fill="#323232"/>
<path d="M6 11.5787V19C6 20.1046 6.89543 21 8 21H16C17.1046 21 18 20.1046 18 19V11.5787C18 11.2007 17.8929 10.8303 17.691 10.5107L13.5 3.875C12.8038 2.77266 11.1962 2.77266 10.5 3.875L6.30902 10.5107C6.10715 10.8303 6 11.2007 6 11.5787Z" stroke="#323232" stroke-width="2" stroke-linecap="round" stroke-linejoin="round"/>
<path d="M14.8295 6C14.4177 7.16519 13.3064 8 12.0002 8C10.694 8 9.58273 7.16519 9.1709 6" stroke="#323232" stroke-width="2" stroke-linecap="round"/>
<path d="M6 13L18 13" stroke="#323232" stroke-width="2" stroke-linecap="round" stroke-linejoin="round"/>
</svg>
