<svg width="24" height="24" viewBox="0 0 24 24" fill="none" xmlns="http://www.w3.org/2000/svg">
<path opacity="0.1" fill-rule="evenodd" clip-rule="evenodd" d="M12 21C16.9706 21 21 16.9706 21 12C21 7.02944 16.9706 3 12 3C7.02944 3 3 7.02944 3 12C3 16.9706 7.02944 21 12 21ZM15.224 13.0171C16.011 12.5674 16.011 11.4326 15.224 10.9829L10.7817 8.44446C10.0992 8.05446 9.25 8.54727 9.25 9.33333L9.25 14.6667C9.25 15.4527 10.0992 15.9455 10.7817 15.5555L15.224 13.0171Z" fill="#323232"/>
<path d="M21 12C21 16.9706 16.9706 21 12 21C7.02944 21 3 16.9706 3 12C3 7.02944 7.02944 3 12 3C16.9706 3 21 7.02944 21 12Z" stroke="#323232" stroke-width="2"/>
<path d="M10.9 8.8L10.6577 8.66152C10.1418 8.36676 9.5 8.73922 9.5 9.33333L9.5 14.6667C9.5 15.2608 10.1418 15.6332 10.6577 15.3385L10.9 15.2L15.1 12.8C15.719 12.4463 15.719 11.5537 15.1 11.2L10.9 8.8Z" stroke="#323232" stroke-width="2" stroke-linecap="round" stroke-linejoin="round"/>
</svg>
