<svg width="24" height="24" viewBox="0 0 24 24" fill="none" xmlns="http://www.w3.org/2000/svg">
<path opacity="0.1" d="M17 3C18.8856 3 19.8284 3 20.4142 3.58579C21 4.17157 21 5.11438 21 7L21 13C21 14.8856 21 15.8284 20.4142 16.4142C19.8284 17 18.8856 17 17 17L16 17L8 17L7 17C5.11438 17 4.17157 17 3.58579 16.4142C3 15.8284 3 14.8856 3 13L3 7C3 5.11438 3 4.17157 3.58579 3.58579C4.17157 3 5.11438 3 7 3L8 3L16 3L17 3Z" fill="#323232"/>
<path d="M17 3C18.8856 3 19.8284 3 20.4142 3.58579C21 4.17157 21 5.11438 21 7L21 13C21 14.8856 21 15.8284 20.4142 16.4142C19.8284 17 18.8856 17 17 17L16 17L8 17L7 17C5.11438 17 4.17157 17 3.58579 16.4142C3 15.8284 3 14.8856 3 13L3 7C3 5.11438 3 4.17157 3.58579 3.58579C4.17157 3 5.11438 3 7 3L8 3L16 3L17 3Z" stroke="#323232" stroke-width="2" stroke-linejoin="round"/>
<path d="M9 21L11.625 17.5V17.5C11.8125 17.25 12.1875 17.25 12.375 17.5V17.5L15 21" stroke="#323232" stroke-width="2" stroke-linecap="round" stroke-linejoin="round"/>
<path d="M7 13L9.60314 9.74608C10.2554 8.93076 11.5331 9.06611 12 10V10C12.4669 10.9339 13.7446 11.0692 14.3969 10.2539L17 7" stroke="#323232" stroke-width="2" stroke-linecap="round" stroke-linejoin="round"/>
</svg>
