<svg width="24" height="24" viewBox="0 0 24 24" fill="none" xmlns="http://www.w3.org/2000/svg">
<path opacity="0.1" d="M3.58579 7.58579C3 8.17157 3 9.11438 3 11L3 13C3 14.8856 3 15.8284 3.58579 16.4142C4.14297 16.9714 5.02316 16.9986 6.73045 16.9999C6.7411 16.9999 6.75 16.9913 6.75 16.9807C6.75 16.0542 6.74999 15.3334 6.82545 14.7721C6.9024 14.1998 7.06192 13.7561 7.40901 13.409C7.75609 13.0619 8.19979 12.9024 8.77214 12.8255C9.3334 12.75 10.0542 12.75 10.9807 12.75H13.0193C13.9458 12.75 14.6666 12.75 15.2279 12.8255C15.8002 12.9024 16.2439 13.0619 16.591 13.409C16.9381 13.7561 17.0976 14.1998 17.1745 14.7721C17.25 15.3334 17.25 16.0542 17.25 16.9806C17.25 16.9913 17.2589 16.9999 17.2696 16.9999C18.9768 16.9986 19.857 16.9714 20.4142 16.4142C21 15.8284 21 14.8856 21 13V11C21 9.11438 21 8.17157 20.4142 7.58579C19.8284 7 18.8856 7 17 7L7 7C5.11438 7 4.17157 7 3.58579 7.58579Z" fill="#323232"/>
<path d="M6 7V5C6 3.89543 6.89543 3 8 3H16C17.1046 3 18 3.89543 18 5V7" stroke="#323232" stroke-width="2" stroke-linecap="round"/>
    <path d="M7 17C7 15.1144 7 14.1716 7.58579 13.5858C8.17157 13 9.11438 13 11 13H13C14.8856 13 15.8284 13 16.4142 13.5858C17 14.1716 17 15.1144 17 17C17 18.8856 17 19.8284 16.4142 20.4142C15.8284 21 14.8856 21 13 21H11C9.11438 21 8.17157 21 7.58579 20.4142C7 19.8284 7 18.8856 7 17Z" stroke="#323232" stroke-width="2" stroke-linejoin="round"/>
<path d="M7 17V17C5.11438 17 4.17157 17 3.58579 16.4142C3 15.8284 3 14.8856 3 13V11C3 9.11438 3 8.17157 3.58579 7.58579C4.17157 7 5.11438 7 7 7H17C18.8856 7 19.8284 7 20.4142 7.58579C21 8.17157 21 9.11438 21 11V13C21 14.8856 21 15.8284 20.4142 16.4142C19.8284 17 18.8856 17 17 17V17" stroke="#323232" stroke-width="2" stroke-linejoin="round"/>
</svg>
