<svg width="24" height="24" viewBox="0 0 24 24" fill="none" xmlns="http://www.w3.org/2000/svg">
<path opacity="0.1" fill-rule="evenodd" clip-rule="evenodd" d="M22 12C22 17.5229 17.5228 22 12 22C6.47715 22 2 17.5229 2 12C2 8.31232 3.99612 5.09084 6.96681 3.35712C6.95645 3.41474 6.96618 3.47623 6.99878 3.53031C7.51488 4.38656 8.98784 6.24999 12.0004 6.24999C15.013 6.24999 16.4859 4.38656 17.002 3.53031C17.0345 3.4764 17.0443 3.41512 17.0341 3.35765C20.0043 5.0915 22 8.3127 22 12ZM9.61411 10.75C8.84462 10.75 8.17388 11.2737 7.98725 12.0202C7.82361 12.6748 8.06819 13.3637 8.60795 13.7685L10.65 15.3C11.45 15.9 12.55 15.9 13.35 15.3L15.392 13.7685C15.9318 13.3637 16.1764 12.6748 16.0127 12.0202C15.8261 11.2737 15.1554 10.75 14.3859 10.75H9.61411Z" fill="#323232"/>
<path d="M22 12C22 17.5228 17.5228 22 12 22C6.47715 22 2 17.5228 2 12C2 6.47715 6.47715 2 12 2C17.5228 2 22 6.47715 22 12Z" stroke="#323232" stroke-width="2" stroke-linejoin="round"/>
<path d="M14.3859 11H9.61411C8.95934 11 8.38859 11.4456 8.22979 12.0808C8.09055 12.6378 8.29866 13.224 8.75795 13.5685L10.8 15.1C11.5111 15.6333 12.4889 15.6333 13.2 15.1L15.242 13.5685C15.7013 13.224 15.9095 12.6378 15.7702 12.0808C15.6114 11.4456 15.0407 11 14.3859 11Z" stroke="#323232" stroke-width="2" stroke-linejoin="round"/>
<path d="M8.5 11L4 7.5" stroke="#323232" stroke-width="2" stroke-linecap="round" stroke-linejoin="round"/>
<path d="M15.5 11L20.5 7" stroke="#323232" stroke-width="2" stroke-linecap="round" stroke-linejoin="round"/>
<path d="M12 16V22" stroke="#323232" stroke-width="2" stroke-linecap="round" stroke-linejoin="round"/>
<path d="M7.2124 3.40125C7.70507 4.21862 9.11027 5.99998 11.9999 5.99998C14.8896 5.99998 16.2948 4.21862 16.7874 3.40125" stroke="#323232" stroke-width="2" stroke-linecap="round" stroke-linejoin="round"/>
</svg>
