<svg width="24" height="24" viewBox="0 0 24 24" fill="none" xmlns="http://www.w3.org/2000/svg">
<path opacity="0.1" fill-rule="evenodd" clip-rule="evenodd" d="M12 21C16.9706 21 21 16.9706 21 12C21 7.02944 16.9706 3 12 3C7.02944 3 3 7.02944 3 12C3 16.9706 7.02944 21 12 21ZM11.5 7.75C9.42893 7.75 7.75 9.42893 7.75 11.5C7.75 13.5711 9.42893 15.25 11.5 15.25C13.5711 15.25 15.25 13.5711 15.25 11.5C15.25 9.42893 13.5711 7.75 11.5 7.75Z" fill="#323232"/>
<path d="M21 12C21 16.9706 16.9706 21 12 21C7.02944 21 3 16.9706 3 12C3 7.02944 7.02944 3 12 3C16.9706 3 21 7.02944 21 12Z" stroke="#323232" stroke-width="2"/>
<path d="M14 14L16 16" stroke="#323232" stroke-width="2" stroke-linecap="round" stroke-linejoin="round"/>
<path d="M15 11.5C15 13.433 13.433 15 11.5 15C9.567 15 8 13.433 8 11.5C8 9.567 9.567 8 11.5 8C13.433 8 15 9.567 15 11.5Z" stroke="#323232" stroke-width="2"/>
</svg>
