<svg width="24" height="24" viewBox="0 0 24 24" fill="none" xmlns="http://www.w3.org/2000/svg">
<path opacity="0.1" d="M21 12.1818L16.9354 13.6599C16.3462 13.8741 15.8916 14.3521 15.7073 14.9513L14.1538 20C14.1072 20.1515 13.8928 20.1515 13.8461 20L12.2927 14.9513C12.1083 14.3521 11.6537 13.8741 11.0646 13.6599L6.99999 12.1818C6.83019 12.1201 6.83019 11.8799 6.99999 11.8182L11.0646 10.3401C11.6537 10.1259 12.1083 9.64786 12.2927 9.04872L13.8461 4C13.8928 3.8485 14.1072 3.8485 14.1538 4L15.7073 9.04872C15.8916 9.64786 16.3462 10.1259 16.9354 10.3401L21 11.8182C21.1698 11.8799 21.1698 12.1201 21 12.1818Z" fill="#323232"/>
<path d="M21 12.1818L16.9354 13.6599C16.3462 13.8741 15.8916 14.3521 15.7073 14.9513L14.1538 20C14.1072 20.1515 13.8928 20.1515 13.8461 20L12.2927 14.9513C12.1083 14.3521 11.6537 13.8741 11.0646 13.6599L6.99999 12.1818C6.83019 12.1201 6.83019 11.8799 6.99999 11.8182L11.0646 10.3401C11.6537 10.1259 12.1083 9.64786 12.2927 9.04872L13.8461 4C13.8928 3.8485 14.1072 3.8485 14.1538 4L15.7073 9.04872C15.8916 9.64786 16.3462 10.1259 16.9354 10.3401L21 11.8182C21.1698 11.8799 21.1698 12.1201 21 12.1818Z" stroke="#323232" stroke-width="2" stroke-linecap="round" stroke-linejoin="round"/>
<path d="M3.75 5.25C4.22214 5.40738 4.59262 5.77786 4.75 6.25C4.83008 6.49025 5.16992 6.49025 5.25 6.25C5.40738 5.77786 5.77786 5.40738 6.25 5.25C6.49025 5.16992 6.49025 4.83008 6.25 4.75C5.77786 4.59262 5.40738 4.22214 5.25 3.75C5.16992 3.50975 4.83008 3.50975 4.75 3.75C4.59262 4.22214 4.22214 4.59262 3.75 4.75C3.50975 4.83008 3.50975 5.16992 3.75 5.25Z" stroke="#323232" stroke-width="2" stroke-linecap="round" stroke-linejoin="round"/>
<path d="M7.25 19.25C6.77786 19.4074 6.40738 19.7779 6.25 20.25C6.16992 20.4903 5.83008 20.4903 5.75 20.25C5.59262 19.7779 5.22214 19.4074 4.75 19.25C4.50975 19.1699 4.50975 18.8301 4.75 18.75C5.22214 18.5926 5.59262 18.2221 5.75 17.75C5.83008 17.5097 6.16992 17.5097 6.25 17.75C6.40738 18.2221 6.77786 18.5926 7.25 18.75C7.49025 18.8301 7.49025 19.1699 7.25 19.25Z" stroke="#323232" stroke-width="2" stroke-linecap="round" stroke-linejoin="round"/>
</svg>
