<svg width="24" height="24" viewBox="0 0 24 24" fill="none" xmlns="http://www.w3.org/2000/svg">
<path opacity="0.1" fill-rule="evenodd" clip-rule="evenodd" d="M5.58579 3.58579C5 4.17157 5 5.11438 5 7V17C5 18.8856 5 19.8284 5.58579 20.4142C6.17157 21 7.11438 21 9 21H15C16.8856 21 17.8284 21 18.4142 20.4142C19 19.8284 19 18.8856 19 17V7C19 5.11438 19 4.17157 18.4142 3.58579C17.8284 3 16.8856 3 15 3H9C7.11438 3 6.17157 3 5.58579 3.58579ZM12 10.75C10.2051 10.75 8.75 12.2051 8.75 14C8.75 15.7949 10.2051 17.25 12 17.25C13.7949 17.25 15.25 15.7949 15.25 14C15.25 12.2051 13.7949 10.75 12 10.75Z" fill="#323232"/>
<path d="M15 14C15 15.6569 13.6569 17 12 17C10.3431 17 9 15.6569 9 14C9 12.3431 10.3431 11 12 11C13.6569 11 15 12.3431 15 14Z" stroke="#323232" stroke-width="2"/>
<path d="M5 7C5 5.11438 5 4.17157 5.58579 3.58579C6.17157 3 7.11438 3 9 3H12H15C16.8856 3 17.8284 3 18.4142 3.58579C19 4.17157 19 5.11438 19 7V12V17C19 18.8856 19 19.8284 18.4142 20.4142C17.8284 21 16.8856 21 15 21H12H9C7.11438 21 6.17157 21 5.58579 20.4142C5 19.8284 5 18.8856 5 17V12V7Z" stroke="#323232" stroke-width="2" stroke-linejoin="round"/>
<path d="M12 7.01123V7" stroke="#323232" stroke-width="2" stroke-linecap="round"/>
</svg>
