<svg width="24" height="24" viewBox="0 0 24 24" fill="none" xmlns="http://www.w3.org/2000/svg">
<path opacity="0.1" d="M3 12C3 4.5885 4.5885 3 12 3C19.4115 3 21 4.5885 21 12C21 19.4115 19.4115 21 12 21C4.5885 21 3 19.4115 3 12Z" fill="#323232"/>
<path d="M3 12C3 4.5885 4.5885 3 12 3C19.4115 3 21 4.5885 21 12C21 19.4115 19.4115 21 12 21C4.5885 21 3 19.4115 3 12Z" stroke="#323232" stroke-width="2"/>
<path d="M8 16C8.91221 14.7856 10.3645 14 12.0004 14C13.6362 14 15.0885 14.7856 16.0007 16" stroke="#323232" stroke-width="2" stroke-linecap="round"/>
<path d="M9 10.0112V10" stroke="#323232" stroke-width="2" stroke-linecap="round"/>
<path d="M15 10.0112V10" stroke="#323232" stroke-width="2" stroke-linecap="round"/>
</svg>
