<svg width="24" height="24" viewBox="0 0 24 24" fill="none" xmlns="http://www.w3.org/2000/svg">
<path opacity="0.1" fill-rule="evenodd" clip-rule="evenodd" d="M12 3C4.5885 3 3 4.5885 3 12C3 19.4115 4.5885 21 12 21C19.4115 21 21 19.4115 21 12C21 4.5885 19.4115 3 12 3ZM13.4176 8.6078L12.79 6.91317C12.5185 6.18004 11.4815 6.18004 11.21 6.91317L10.5824 8.6078C10.3281 9.29431 9.67339 9.75 8.94131 9.75H7.41421C6.66961 9.75 6.29671 10.6503 6.82322 11.1768L8.39969 12.7532C8.81343 13.167 8.99302 13.7601 8.87827 14.3339L8.50924 16.1791C8.36975 16.8765 9.12973 17.4042 9.73446 17.0298L11.0789 16.1976C11.6433 15.8482 12.3567 15.8482 12.9211 16.1976L14.2655 17.0298C14.8703 17.4042 15.6302 16.8765 15.4908 16.1791L15.1217 14.3339C15.007 13.7601 15.1866 13.167 15.6003 12.7532L17.1352 11.2184C17.677 10.6765 17.2933 9.75 16.527 9.75H15.0587C14.3266 9.75 13.6719 9.29431 13.4176 8.6078Z" fill="#323232"/>
<path d="M16.9584 11.0416L15.4235 12.5765C14.9507 13.0493 14.7454 13.7272 14.8766 14.3829L15.2 16L15.2456 16.2281C15.3422 16.7111 14.8159 17.0765 14.3971 16.8173L13.0527 15.985C12.4077 15.5857 11.5923 15.5857 10.9473 15.985L9.60287 16.8173C9.18409 17.0765 8.65779 16.7111 8.75438 16.2281L8.8 16L9.12342 14.3829C9.25456 13.7272 9.04932 13.0493 8.57647 12.5765L7 11C6.63098 10.631 6.89233 10 7.41421 10H7.5H8.94131C9.77797 10 10.5262 9.47921 10.8168 8.69463L11.4444 7C11.6354 6.48443 12.3646 6.48443 12.5556 7L13.1832 8.69463C13.4738 9.47921 14.222 10 15.0587 10L16.5 10H16.527C17.0705 10 17.3428 10.6572 16.9584 11.0416Z" stroke="#323232" stroke-width="2" stroke-linejoin="round"/>
<path d="M3 12C3 4.5885 4.5885 3 12 3C19.4115 3 21 4.5885 21 12C21 19.4115 19.4115 21 12 21C4.5885 21 3 19.4115 3 12Z" stroke="#323232" stroke-width="2"/>
</svg>
