<svg width="24" height="24" viewBox="0 0 24 24" fill="none" xmlns="http://www.w3.org/2000/svg">
<path opacity="0.1" fill-rule="evenodd" clip-rule="evenodd" d="M12 21C16.9706 21 21 16.9706 21 12C21 7.02944 16.9706 3 12 3C7.02944 3 3 7.02944 3 12C3 16.9706 7.02944 21 12 21ZM16.9583 11.0416L15.4234 12.5764C14.9506 13.0493 14.7453 13.7272 14.8765 14.3829L15.2455 16.2281C15.3421 16.711 14.8158 17.0765 14.397 16.8172L13.0526 15.985C12.4076 15.5857 11.5922 15.5857 10.9472 15.985L9.60277 16.8172C9.18398 17.0765 8.65768 16.711 8.75428 16.2281L9.12331 14.3829C9.25446 13.7271 9.04921 13.0493 8.57637 12.5764L6.9999 11C6.63087 10.6309 6.89223 9.99996 7.41411 9.99996H8.9412C9.77787 9.99996 10.5261 9.47917 10.8167 8.69458L11.4443 6.99996C11.6353 6.48439 12.3645 6.48439 12.5555 6.99996L13.1831 8.69458C13.4737 9.47917 14.2219 9.99996 15.0586 9.99996H16.5269C17.0704 9.99996 17.3427 10.6572 16.9583 11.0416Z" fill="#323232"/>
<path d="M21 12C21 16.9706 16.9706 21 12 21C7.02944 21 3 16.9706 3 12C3 7.02944 7.02944 3 12 3C16.9706 3 21 7.02944 21 12Z" stroke="#323232" stroke-width="2"/>
<path d="M16.9584 11.0416L15.4235 12.5765C14.9507 13.0493 14.7454 13.7272 14.8766 14.3829L15.2 16L15.2456 16.2281C15.3422 16.7111 14.8159 17.0765 14.3971 16.8173L13.0527 15.985C12.4077 15.5857 11.5923 15.5857 10.9473 15.985L9.60287 16.8173C9.18409 17.0765 8.65779 16.7111 8.75438 16.2281L8.8 16L9.12342 14.3829C9.25456 13.7272 9.04932 13.0493 8.57647 12.5765L7 11C6.63098 10.631 6.89233 10 7.41421 10H7.5H8.94131C9.77797 10 10.5262 9.47921 10.8168 8.69463L11.4444 7C11.6354 6.48443 12.3646 6.48443 12.5556 7L13.1832 8.69463C13.4738 9.47921 14.222 10 15.0587 10L16.5 10H16.527C17.0705 10 17.3428 10.6572 16.9584 11.0416Z" stroke="#323232" stroke-width="2" stroke-linejoin="round"/>
</svg>
