<svg width="24" height="24" viewBox="0 0 24 24" fill="none" xmlns="http://www.w3.org/2000/svg">
<rect width="24" height="24" fill="white"/>
<path fill-rule="evenodd" clip-rule="evenodd" d="M12 2C12.5523 2 13 2.44772 13 3V4.17071C14.1652 4.58254 15 5.69378 15 7C15 8.30622 14.1652 9.41746 13 9.82929L13 21C13 21.5523 12.5523 22 12 22C11.4477 22 11 21.5523 11 21L11 9.82929C9.83481 9.41746 9 8.30622 9 7C9 5.69378 9.83481 4.58254 11 4.17071V3C11 2.44772 11.4477 2 12 2Z" fill="#323232"/>
<path fill-rule="evenodd" clip-rule="evenodd" d="M19 2C19.5523 2 20 2.44772 20 3V14.1707C21.1652 14.5825 22 15.6938 22 17C22 18.3062 21.1652 19.4175 20 19.8293V21C20 21.5523 19.5523 22 19 22C18.4477 22 18 21.5523 18 21V19.8293C16.8348 19.4175 16 18.3062 16 17C16 15.6938 16.8348 14.5825 18 14.1707V3C18 2.44772 18.4477 2 19 2Z" fill="#323232"/>
<path fill-rule="evenodd" clip-rule="evenodd" d="M5 2C5.55228 2 6 2.44772 6 3V14.1707C7.16519 14.5825 8 15.6938 8 17C8 18.3062 7.16519 19.4175 6 19.8293V21C6 21.5523 5.55228 22 5 22C4.44772 22 4 21.5523 4 21V19.8293C2.83481 19.4175 2 18.3062 2 17C2 15.6938 2.83481 14.5825 4 14.1707V3C4 2.44772 4.44772 2 5 2Z" fill="#323232"/>
</svg>
