<svg width="24" height="24" viewBox="0 0 24 24" fill="none" xmlns="http://www.w3.org/2000/svg">
<rect width="24" height="24" fill="white"/>
<path fill-rule="evenodd" clip-rule="evenodd" d="M10.2478 4.18619L2.6303 18.0361C1.8972 19.369 2.86153 20.9999 4.38273 20.9999H19.6176C21.1389 20.9999 22.1032 19.369 21.3701 18.0361L13.7526 4.18619C12.9928 2.80464 11.0076 2.80464 10.2478 4.18619ZM12.0002 14C11.4479 14 11.0002 13.5522 11.0002 13V9.99995C11.0002 9.44767 11.4479 8.99995 12.0002 8.99995C12.5525 8.99995 13.0002 9.44767 13.0002 9.99995V13C13.0002 13.5522 12.5525 14 12.0002 14ZM13.0002 15.9887C13.0002 15.4365 12.5525 14.9887 12.0002 14.9887C11.4479 14.9887 11.0002 15.4365 11.0002 15.9887V16C11.0002 16.5523 11.4479 17 12.0002 17C12.5525 17 13.0002 16.5523 13.0002 16V15.9887Z" fill="#323232"/>
</svg>
