<svg width="24" height="24" viewBox="0 0 24 24" fill="none" xmlns="http://www.w3.org/2000/svg">
<rect width="24" height="24" fill="white"/>
<path fill-rule="evenodd" clip-rule="evenodd" d="M3 22C2.44772 22 2 21.5523 2 21L2 3C2 2.44772 2.44772 2 3 2C3.55229 2 4 2.44772 4 3L4 21C4 21.5523 3.55228 22 3 22Z" fill="#323232"/>
<path fill-rule="evenodd" clip-rule="evenodd" d="M8.43089 6.1581C8.97783 6.03654 9.61367 6 10.32 6H13.68C14.3863 6 15.0222 6.03654 15.5691 6.1581C16.1274 6.28217 16.6524 6.50772 17.0724 6.92764C17.4923 7.34756 17.7178 7.87259 17.8419 8.43089C17.9635 8.97783 18 9.61367 18 10.32V13.68C18 14.3863 17.9635 15.0222 17.8419 15.5691C17.7178 16.1274 17.4923 16.6524 17.0724 17.0724C16.6524 17.4923 16.1274 17.7178 15.5691 17.8419C15.0222 17.9635 14.3863 18 13.68 18H10.32C9.61367 18 8.97783 17.9635 8.43089 17.8419C7.87259 17.7178 7.34756 17.4923 6.92764 17.0724C6.50772 16.6524 6.28217 16.1274 6.1581 15.5691C6.03654 15.0222 6 14.3863 6 13.68V10.32C6 9.61367 6.03654 8.97783 6.1581 8.43089C6.28217 7.87259 6.50772 7.34756 6.92764 6.92764C7.34756 6.50772 7.87259 6.28217 8.43089 6.1581Z" fill="#323232"/>
</svg>
