<svg width="24" height="24" viewBox="0 0 24 24" fill="none" xmlns="http://www.w3.org/2000/svg">
<rect width="24" height="24" fill="white"/>
<path fill-rule="evenodd" clip-rule="evenodd" d="M21.7882 5.09002C21.9488 5.81273 22 6.66827 22 7.648V12.352C22 13.3317 21.9488 14.1873 21.7882 14.91C21.6251 15.644 21.336 16.3009 20.8185 16.8185C20.3009 17.336 19.644 17.6251 18.91 17.7882C18.1873 17.9488 17.3317 18 16.352 18H15.0542L13.0176 21.2586C12.5476 22.0106 11.4524 22.0106 10.9824 21.2586L8.94575 18H7.648C6.66827 18 5.81273 17.9488 5.09002 17.7882C4.35596 17.6251 3.6991 17.336 3.18153 16.8185C2.66396 16.3009 2.37495 15.644 2.21181 14.91C2.05119 14.1873 2 13.3317 2 12.352L2 7.648C2 6.66827 2.05119 5.81273 2.21181 5.09002C2.37495 4.35596 2.66396 3.6991 3.18153 3.18153C3.6991 2.66396 4.35596 2.37495 5.09002 2.21181C5.81273 2.05119 6.66827 2 7.648 2L16.352 2C17.3317 2 18.1873 2.05119 18.91 2.21181C19.644 2.37495 20.3009 2.66396 20.8185 3.18153C21.336 3.6991 21.6251 4.35596 21.7882 5.09002ZM6 9C6 8.44772 6.44772 8 7 8H17C17.5523 8 18 8.44772 18 9C18 9.55228 17.5523 10 17 10H7C6.44772 10 6 9.55228 6 9ZM6 12C6 11.4477 6.44772 11 7 11H13C13.5523 11 14 11.4477 14 12C14 12.5523 13.5523 13 13 13H7C6.44772 13 6 12.5523 6 12Z" fill="#323232"/>
</svg>
