<svg width="24" height="24" viewBox="0 0 24 24" fill="none" xmlns="http://www.w3.org/2000/svg">
<rect width="24" height="24" fill="white"/>
<path fill-rule="evenodd" clip-rule="evenodd" d="M12 2C17.5228 2 22 6.47715 22 12C22 17.5228 17.5228 22 12 22C6.47715 22 2 17.5228 2 12C2 6.47715 6.47715 2 12 2ZM8 14C8 14.5523 8.44772 15 9 15C9.55228 15 10 14.5523 10 14V11.4142L14.2929 15.7071C14.6834 16.0976 15.3166 16.0976 15.7071 15.7071C16.0976 15.3166 16.0976 14.6834 15.7071 14.2929L11.4142 10H14C14.5523 10 15 9.55228 15 9C15 8.44772 14.5523 8 14 8H9.32833C8.59458 8 8 8.59489 8 9.32837V14Z" fill="#323232"/>
</svg>
