<svg width="24" height="24" viewBox="0 0 24 24" fill="none" xmlns="http://www.w3.org/2000/svg">
<path fill-rule="evenodd" clip-rule="evenodd" d="M9.4878 2.56604C10.3047 2.83834 11.1493 3.21554 12 3.68836C12.8508 3.21553 13.6954 2.83832 14.5123 2.56602C16.7966 1.80457 19.1905 1.77618 20.7072 3.29288C22.2239 4.80957 22.1955 7.20347 21.4341 9.4878C21.1618 10.3047 20.7846 11.1493 20.3117 12.0001C20.7845 12.8508 21.1617 13.6954 21.434 14.5122C22.1954 16.7966 22.2238 19.1905 20.7071 20.7072C19.1904 22.2239 16.7965 22.1955 14.5122 21.434C13.6953 21.1617 12.8508 20.7845 12 20.3117C11.1493 20.7845 10.3047 21.1617 9.48787 21.434C7.20354 22.1954 4.80964 22.2238 3.29295 20.7071C1.77625 19.1904 1.80464 16.7965 2.56609 14.5122C2.83837 13.6954 3.21556 12.8508 3.68836 12.0001C3.21553 11.1493 2.83832 10.3047 2.56602 9.48783C1.80457 7.20349 1.77618 4.8096 3.29288 3.2929C4.80957 1.77621 7.20347 1.8046 9.4878 2.56604ZM19.5367 8.85535C20.223 6.79652 19.9855 5.39954 19.293 4.70709C18.6005 4.01464 17.2036 3.77711 15.1447 4.46338C14.7587 4.59207 14.3605 4.75035 13.954 4.93731C14.894 5.61789 15.8215 6.40731 16.7071 7.29292C17.5927 8.17853 18.3822 9.10604 19.0628 10.0461C19.2497 9.6396 19.408 9.24142 19.5367 8.85535ZM7.29296 7.29289C8.17855 6.4073 9.10602 5.61789 10.0461 4.93732C9.63956 4.75036 9.2414 4.59209 8.85535 4.46341C6.79652 3.77713 5.39954 4.01466 4.70709 4.70712C4.01464 5.39957 3.77711 6.79654 4.46338 8.85537C4.59207 9.24143 4.75034 9.6396 4.9373 10.0461C5.61789 9.10603 6.40733 8.17852 7.29296 7.29289ZM16.7072 16.7071C17.5928 15.8215 18.3822 14.8941 19.0628 13.954C19.2497 14.3605 19.408 14.7587 19.5366 15.1447C20.2229 17.2035 19.9854 18.6005 19.2929 19.293C18.6005 19.9854 17.2035 20.2229 15.1447 19.5367C14.7586 19.408 14.3605 19.2497 13.954 19.0628C14.8941 18.3822 15.8216 17.5927 16.7072 16.7071ZM7.29289 16.7072C8.1785 17.5928 9.10599 18.3822 10.0461 19.0628C9.63958 19.2497 9.24144 19.408 8.85542 19.5366C6.79659 20.2229 5.39961 19.9854 4.70716 19.2929C4.01471 18.6005 3.77718 17.2035 4.46346 15.1447C4.59213 14.7587 4.75038 14.3605 4.93732 13.954C5.61789 14.8941 6.4073 15.8216 7.29289 16.7072ZM11 12C11 11.4477 11.4477 11 12 11C12.5523 11 13 11.4477 13 12C13 12.5523 12.5523 13 12 13C11.4477 13 11 12.5523 11 12ZM12 8.99997C10.3431 8.99997 9 10.3431 9 12C9 13.6568 10.3431 15 12 15C13.6569 15 15 13.6568 15 12C15 10.3431 13.6569 8.99997 12 8.99997Z" fill="#323232"/>
</svg>
