<svg width="24" height="24" viewBox="0 0 24 24" fill="none" xmlns="http://www.w3.org/2000/svg">
<rect width="24" height="24" fill="white"/>
<path fill-rule="evenodd" clip-rule="evenodd" d="M8.70681 4.87868C9.26941 4.31607 10.0325 4 10.8281 4H16.3517C17.3314 4 18.187 4.05119 18.9097 4.21181C19.6437 4.37495 20.3006 4.66396 20.8182 5.18153C21.3357 5.6991 21.6248 6.35596 21.7879 7.09002C21.9485 7.81273 21.9997 8.66827 21.9997 9.648V14.352C21.9997 15.3317 21.9485 16.1873 21.7879 16.91C21.6248 17.644 21.3357 18.3009 20.8182 18.8185C20.3006 19.336 19.6437 19.6251 18.9097 19.7882C18.187 19.9488 17.3314 20 16.3517 20H10.8281C10.0325 20 9.26941 19.6839 8.70681 19.1213L3.70681 14.1213C2.53523 12.9497 2.53523 11.0503 3.7068 9.87868L8.70681 4.87868ZM12.7069 9.29289C12.3163 8.90237 11.6832 8.90237 11.2926 9.29289C10.9021 9.68342 10.9021 10.3166 11.2926 10.7071L12.5855 12L11.2926 13.2929C10.9021 13.6834 10.9021 14.3166 11.2926 14.7071C11.6832 15.0976 12.3163 15.0976 12.7069 14.7071L13.9998 13.4142L15.2926 14.7071C15.6832 15.0976 16.3163 15.0976 16.7069 14.7071C17.0974 14.3166 17.0974 13.6834 16.7069 13.2929L15.414 12L16.7069 10.7071C17.0974 10.3166 17.0974 9.68342 16.7069 9.29289C16.3163 8.90237 15.6832 8.90237 15.2926 9.29289L13.9998 10.5858L12.7069 9.29289Z" fill="#323232"/>
</svg>
