<svg width="24" height="24" viewBox="0 0 24 24" fill="none" xmlns="http://www.w3.org/2000/svg">
<rect width="24" height="24" fill="white"/>
<path fill-rule="evenodd" clip-rule="evenodd" d="M21 10C21.5523 10 22 10.4477 22 11V13C22 13.5523 21.5523 14 21 14C20.4477 14 20 13.5523 20 13V11C20 10.4477 20.4477 10 21 10Z" fill="#323232"/>
<path fill-rule="evenodd" clip-rule="evenodd" d="M4.10132 7.13124C4.56038 7.02922 5.08637 7 5.656 7H15.344C15.9136 7 16.4396 7.02922 16.8987 7.13124C17.3691 7.23579 17.8282 7.42959 18.1993 7.80069C18.5704 8.17178 18.7642 8.6309 18.8688 9.10132C18.9708 9.56038 19 10.0864 19 10.656V13.344C19 13.9136 18.9708 14.4396 18.8688 14.8987C18.7642 15.3691 18.5704 15.8282 18.1993 16.1993C17.8282 16.5704 17.3691 16.7642 16.8987 16.8688C16.4396 16.9708 15.9136 17 15.344 17H5.656C5.08637 17 4.56038 16.9708 4.10132 16.8688C3.6309 16.7642 3.17178 16.5704 2.80069 16.1993C2.42959 15.8282 2.23579 15.3691 2.13124 14.8987C2.02922 14.4396 2 13.9136 2 13.344V10.656C2 10.0864 2.02922 9.56038 2.13124 9.10132C2.23579 8.6309 2.42959 8.17178 2.80069 7.80069C3.17178 7.42959 3.6309 7.23579 4.10132 7.13124Z" fill="#323232"/>
</svg>
