<svg width="24" height="24" viewBox="0 0 24 24" fill="none" xmlns="http://www.w3.org/2000/svg">
<rect width="24" height="24" fill="white"/>
<path fill-rule="evenodd" clip-rule="evenodd" d="M21 10C21.5523 10 22 10.4477 22 11V13C22 13.5523 21.5523 14 21 14C20.4477 14 20 13.5523 20 13V11C20 10.4477 20.4477 10 21 10Z" fill="#323232"/>
<path fill-rule="evenodd" clip-rule="evenodd" d="M5.656 7C5.08637 7 4.56038 7.02922 4.10132 7.13124C3.6309 7.23579 3.17178 7.42959 2.80069 7.80069C2.42959 8.17178 2.23579 8.6309 2.13124 9.10132C2.02922 9.56038 2 10.0864 2 10.656V13.344C2 13.9136 2.02922 14.4396 2.13124 14.8987C2.23579 15.3691 2.42959 15.8282 2.80069 16.1993C3.17178 16.5704 3.6309 16.7642 4.10132 16.8688C4.56038 16.9708 5.08637 17 5.656 17H15.344C15.9136 17 16.4396 16.9708 16.8987 16.8688C17.3691 16.7642 17.8282 16.5704 18.1993 16.1993C18.5704 15.8282 18.7642 15.3691 18.8688 14.8987C18.9708 14.4396 19 13.9136 19 13.344V10.656C19 10.0864 18.9708 9.56038 18.8688 9.10132C18.7642 8.6309 18.5704 8.17178 18.1993 7.80069C17.8282 7.42959 17.3691 7.23579 16.8987 7.13124C16.4396 7.02922 15.9136 7 15.344 7H5.656ZM6.89443 10.5528C6.64744 10.0588 6.04676 9.85858 5.55279 10.1056C5.05881 10.3526 4.85858 10.9532 5.10557 11.4472L6.10557 13.4472C6.35256 13.9412 6.95324 14.1414 7.44721 13.8944C7.94119 13.6474 8.14142 13.0468 7.89443 12.5528L6.89443 10.5528ZM9.55279 10.1056C10.0468 9.85858 10.6474 10.0588 10.8944 10.5528L11.8944 12.5528C12.1414 13.0468 11.9412 13.6474 11.4472 13.8944C10.9532 14.1414 10.3526 13.9412 10.1056 13.4472L9.10557 11.4472C8.85858 10.9532 9.05881 10.3526 9.55279 10.1056ZM14.8944 10.5528C14.6474 10.0588 14.0468 9.85858 13.5528 10.1056C13.0588 10.3526 12.8586 10.9532 13.1056 11.4472L14.1056 13.4472C14.3526 13.9412 14.9532 14.1414 15.4472 13.8944C15.9412 13.6474 16.1414 13.0468 15.8944 12.5528L14.8944 10.5528Z" fill="#323232"/>
</svg>
