<svg width="24" height="24" viewBox="0 0 24 24" fill="none" xmlns="http://www.w3.org/2000/svg">
<rect width="24" height="24" fill="white"/>
<path fill-rule="evenodd" clip-rule="evenodd" d="M10 2C8.34315 2 7 3.34315 7 5V6.0086C6.28664 6.02888 5.64865 6.08766 5.09002 6.21181C4.35596 6.37495 3.6991 6.66396 3.18153 7.18153C2.66396 7.6991 2.37495 8.35596 2.21181 9.09002C2.05119 9.81273 2 10.6683 2 11.648V16.352C2 17.3317 2.05119 18.1873 2.21181 18.91C2.37495 19.644 2.66396 20.3009 3.18153 20.8185C3.6991 21.336 4.35596 21.6251 5.09002 21.7882C5.81273 21.9488 6.66827 22 7.648 22H16.352C17.3317 22 18.1873 21.9488 18.91 21.7882C19.644 21.6251 20.3009 21.336 20.8185 20.8185C21.336 20.3009 21.6251 19.644 21.7882 18.91C21.9488 18.1873 22 17.3317 22 16.352V11.648C22 10.6683 21.9488 9.81273 21.7882 9.09002C21.6251 8.35596 21.336 7.6991 20.8185 7.18153C20.3009 6.66396 19.644 6.37495 18.91 6.21181C18.3514 6.08766 17.7134 6.02888 17 6.0086V5C17 3.34315 15.6569 2 14 2H10ZM15 6V5C15 4.44772 14.5523 4 14 4H10C9.44772 4 9 4.44772 9 5V6H15ZM4.2063 10.0731C4.71824 9.86584 5.30123 10.1129 5.50845 10.6248C5.70584 11.1124 5.95676 11.573 6.25412 11.9993C7.52077 13.8153 9.6221 15 12 15C14.3779 15 16.4792 13.8153 17.7459 11.9993C18.0432 11.573 18.2942 11.1124 18.4915 10.6248C18.6988 10.1129 19.2818 9.86584 19.7937 10.0731C20.3056 10.2803 20.5526 10.8633 20.3454 11.3752C20.0912 12.0033 19.7683 12.5958 19.3863 13.1435C17.7616 15.4727 15.0592 17 12 17C8.94076 17 6.2384 15.4727 4.61374 13.1435C4.2317 12.5958 3.90881 12.0033 3.65458 11.3752C3.44735 10.8633 3.69437 10.2803 4.2063 10.0731ZM11.5 12C10.9477 12 10.5 12.4477 10.5 13C10.5 13.5523 10.9477 14 11.5 14H12.5C13.0523 14 13.5 13.5523 13.5 13C13.5 12.4477 13.0523 12 12.5 12H11.5Z" fill="#323232"/>
</svg>
