<svg width="24" height="24" viewBox="0 0 24 24" fill="none" xmlns="http://www.w3.org/2000/svg">
<rect width="24" height="24" fill="white"/>
<path fill-rule="evenodd" clip-rule="evenodd" d="M9.1776 2C8.29471 2 7.51699 2.046 6.85654 2.19278C6.18474 2.34208 5.57458 2.60862 5.0916 3.0916C4.60862 3.57458 4.34208 4.18474 4.19278 4.85654C4.046 5.51699 4 6.29471 4 7.1776V16.8224C4 17.7053 4.046 18.483 4.19278 19.1435C4.34208 19.8153 4.60862 20.4254 5.0916 20.9084C5.57458 21.3914 6.18474 21.6579 6.85654 21.8072C7.51699 21.954 8.29471 22 9.1776 22H14.8224C15.7053 22 16.483 21.954 17.1435 21.8072C17.8153 21.6579 18.4254 21.3914 18.9084 20.9084C19.3914 20.4254 19.6579 19.8153 19.8072 19.1435C19.954 18.483 20 17.7053 20 16.8224V7.1776C20 6.29471 19.954 5.51699 19.8072 4.85654C19.6579 4.18474 19.3914 3.57458 18.9084 3.0916C18.4254 2.60862 17.8153 2.34208 17.1435 2.19278C16.483 2.046 15.7053 2 14.8224 2H9.1776ZM9 6C8.44772 6 8 6.44772 8 7C8 7.55228 8.44772 8 9 8H15C15.5523 8 16 7.55228 16 7C16 6.44772 15.5523 6 15 6H9ZM15 13C15.5523 13 16 13.4477 16 14V17C16 17.5523 15.5523 18 15 18C14.4477 18 14 17.5523 14 17V14C14 13.4477 14.4477 13 15 13ZM15 10C14.4477 10 14 10.4477 14 11C14 11.5523 14.4477 12 15 12H15.01C15.5623 12 16.01 11.5523 16.01 11C16.01 10.4477 15.5623 10 15.01 10H15ZM11 11C11 10.4477 11.4477 10 12 10H12.01C12.5623 10 13.01 10.4477 13.01 11C13.01 11.5523 12.5623 12 12.01 12H12C11.4477 12 11 11.5523 11 11ZM9 10C8.44772 10 8 10.4477 8 11C8 11.5523 8.44772 12 9 12H9.01C9.56228 12 10.01 11.5523 10.01 11C10.01 10.4477 9.56228 10 9.01 10H9ZM8 14C8 13.4477 8.44772 13 9 13H9.01C9.56228 13 10.01 13.4477 10.01 14C10.01 14.5523 9.56228 15 9.01 15H9C8.44772 15 8 14.5523 8 14ZM12 13C11.4477 13 11 13.4477 11 14C11 14.5523 11.4477 15 12 15H12.01C12.5623 15 13.01 14.5523 13.01 14C13.01 13.4477 12.5623 13 12.01 13H12ZM11 17C11 16.4477 11.4477 16 12 16H12.01C12.5623 16 13.01 16.4477 13.01 17C13.01 17.5523 12.5623 18 12.01 18H12C11.4477 18 11 17.5523 11 17ZM9 16C8.44772 16 8 16.4477 8 17C8 17.5523 8.44772 18 9 18H9.01C9.56228 18 10.01 17.5523 10.01 17C10.01 16.4477 9.56228 16 9.01 16H9Z" fill="#323232"/>
</svg>
