<svg width="24" height="24" viewBox="0 0 24 24" fill="none" xmlns="http://www.w3.org/2000/svg">
<rect width="24" height="24" fill="white"/>
<path fill-rule="evenodd" clip-rule="evenodd" d="M5 3V4.34708C4.35095 4.54034 3.77636 4.8406 3.30848 5.30848C2.74209 5.87488 2.42133 6.59764 2.23866 7.41959C2.05852 8.23018 2 9.19557 2 10.312V15.688C2 16.8044 2.05852 17.7698 2.23866 18.5804C2.42133 19.4024 2.74209 20.1251 3.30848 20.6915C3.87488 21.2579 4.59764 21.5787 5.41959 21.7613C6.23018 21.9415 7.19557 22 8.312 22H15.688C16.8044 22 17.7698 21.9415 18.5804 21.7613C19.4024 21.5787 20.1251 21.2579 20.6915 20.6915C21.2579 20.1251 21.5787 19.4024 21.7613 18.5804C21.9415 17.7698 22 16.8044 22 15.688V10.312C22 9.19557 21.9415 8.23018 21.7613 7.41959C21.5787 6.59764 21.2579 5.87488 20.6915 5.30848C20.2236 4.8406 19.6491 4.54034 19 4.34708V3C19 2.44772 18.5523 2 18 2C17.4477 2 17 2.44772 17 3V4.03477C16.5889 4.01008 16.1515 4 15.688 4H8.312C7.84855 4 7.41113 4.01008 7 4.03477V3C7 2.44772 6.55228 2 6 2C5.44772 2 5 2.44772 5 3ZM6 9C6 8.44772 6.44772 8 7 8H17C17.5523 8 18 8.44772 18 9C18 9.55228 17.5523 10 17 10H7C6.44772 10 6 9.55228 6 9Z" fill="#323232"/>
</svg>
