<svg width="24" height="24" viewBox="0 0 24 24" fill="none" xmlns="http://www.w3.org/2000/svg">
<rect width="24" height="24" fill="white"/>
<path fill-rule="evenodd" clip-rule="evenodd" d="M10 2C8.53605 2 7.2914 2.07714 6.2574 2.30693C5.21205 2.53926 4.32172 2.94069 3.63121 3.63121C2.94069 4.32172 2.53926 5.21205 2.30693 6.2574C2.07714 7.2914 2 8.53605 2 10C2 12.4984 2.21527 14.4514 3.15696 15.8016C4.01254 17.0283 5.32717 17.5849 7 17.8277V21C7 21.3688 7.20298 21.7077 7.52814 21.8817C7.8533 22.0557 8.24784 22.0366 8.5547 21.8321L14.3045 17.9988C15.6373 17.9884 16.7811 17.9068 17.7426 17.6931C18.7879 17.4607 19.6783 17.0593 20.3688 16.3688C21.0593 15.6783 21.4607 14.7879 21.6931 13.7426C21.9229 12.7086 22 11.4639 22 10C22 8.53605 21.9229 7.2914 21.6931 6.2574C21.4607 5.21205 21.0593 4.32172 20.3688 3.63121C19.6783 2.94069 18.7879 2.53926 17.7426 2.30693C16.7086 2.07714 15.4639 2 14 2H10ZM8 9C7.44772 9 7 9.44772 7 10C7 10.5523 7.44772 11 8 11H8.01C8.56228 11 9.01 10.5523 9.01 10C9.01 9.44772 8.56228 9 8.01 9H8ZM11 10C11 9.44772 11.4477 9 12 9H12.01C12.5623 9 13.01 9.44772 13.01 10C13.01 10.5523 12.5623 11 12.01 11H12C11.4477 11 11 10.5523 11 10ZM16 9C15.4477 9 15 9.44772 15 10C15 10.5523 15.4477 11 16 11H16.01C16.5623 11 17.01 10.5523 17.01 10C17.01 9.44772 16.5623 9 16.01 9H16Z" fill="#323232"/>
</svg>
