<svg width="24" height="24" viewBox="0 0 24 24" fill="none" xmlns="http://www.w3.org/2000/svg">
<rect width="24" height="24" fill="white"/>
<path fill-rule="evenodd" clip-rule="evenodd" d="M2 12C2 6.47715 6.47715 2 12 2C17.5228 2 22 6.47715 22 12C22 17.5228 17.5228 22 12 22C6.47715 22 2 17.5228 2 12ZM8.29289 10.2929C8.68342 9.90237 9.31658 9.90237 9.70711 10.2929L12 12.5858L14.2929 10.2929C14.6834 9.90237 15.3166 9.90237 15.7071 10.2929C16.0976 10.6834 16.0976 11.3166 15.7071 11.7071L13.1069 14.3073C12.4956 14.9186 11.5044 14.9186 10.8931 14.3073L8.29289 11.7071C7.90237 11.3166 7.90237 10.6834 8.29289 10.2929Z" fill="#323232"/>
</svg>
