<svg width="24" height="24" viewBox="0 0 24 24" fill="none" xmlns="http://www.w3.org/2000/svg">
<rect width="24" height="24" fill="white"/>
<path fill-rule="evenodd" clip-rule="evenodd" d="M8.39042 2.6539C8.85448 2.03515 9.57735 2 9.996 2H14.004C14.4226 2 15.1455 2.03515 15.6096 2.6539C15.8169 2.9303 15.9033 3.23804 15.9461 3.49472C15.9891 3.75278 16 4.03791 16 4.328V5.672C16 5.96209 15.9891 6.24722 15.9461 6.50528C15.9033 6.76196 15.8169 7.0697 15.6096 7.3461C15.1455 7.96485 14.4226 8 14.004 8H9.996C9.57735 8 8.85448 7.96485 8.39042 7.3461C8.18312 7.0697 8.09668 6.76196 8.05389 6.50528C8.01088 6.24722 8 5.96209 8 5.672V4.328C8 4.03791 8.01088 3.75278 8.05389 3.49472C8.09668 3.23804 8.18312 2.9303 8.39042 2.6539Z" fill="#323232"/>
<path d="M7.0675 3.33031C7.14619 2.85824 6.73529 2.30686 6.29812 2.50162C5.85724 2.69804 5.46813 2.9676 5.14123 3.33536C4.63984 3.89943 4.3638 4.60757 4.20695 5.40154C4.05117 6.19012 4 7.13244 4 8.229V15.771C4 16.8676 4.05117 17.8099 4.20695 18.5985C4.3638 19.3924 4.63984 20.1006 5.14123 20.6646C6.15178 21.8015 7.75691 22 9.648 22H14.352C16.2431 22 17.8482 21.8015 18.8588 20.6646C19.3602 20.1006 19.6362 19.3924 19.7931 18.5985C19.9488 17.8099 20 16.8676 20 15.771L20 8.22901C20 7.13244 19.9488 6.19012 19.7931 5.40154C19.6362 4.60757 19.3602 3.89943 18.8588 3.33536C18.5319 2.9676 18.1428 2.69804 17.7019 2.50162C17.2647 2.30686 16.8538 2.85824 16.9325 3.33031C16.9892 3.67046 17 4.02086 17 4.328V5.672C17 5.97915 16.9892 6.32955 16.9325 6.6697C16.8762 7.0074 16.7509 7.49101 16.4096 7.94611C15.6277 8.98857 14.4305 9 14.004 9H9.996C9.56953 9 8.37227 8.98857 7.59042 7.94611C7.2491 7.49101 7.12379 7.0074 7.0675 6.6697C7.0108 6.32955 7 5.97915 7 5.672V4.328C7 4.02086 7.0108 3.67046 7.0675 3.33031Z" fill="#323232"/>
</svg>
