<svg width="24" height="24" viewBox="0 0 24 24" fill="none" xmlns="http://www.w3.org/2000/svg">
<rect width="24" height="24" fill="white"/>
<path fill-rule="evenodd" clip-rule="evenodd" d="M6.4624 2C5.72675 2 5.06736 2.03811 4.50156 2.16385C3.92442 2.29212 3.38525 2.52447 2.95486 2.95486C2.52447 3.38525 2.29212 3.92442 2.16385 4.50156C2.03811 5.06736 2 5.72675 2 6.4624V17.5376C2 18.2732 2.03811 18.9326 2.16385 19.4984C2.29212 20.0756 2.52447 20.6147 2.95486 21.0451C3.38525 21.4755 3.92442 21.7079 4.50156 21.8361C5.06736 21.9619 5.72675 22 6.4624 22H7.5376C8.27325 22 8.93264 21.9619 9.49844 21.8361C10.0756 21.7079 10.6147 21.4755 11.0451 21.0451C11.4755 20.6147 11.7079 20.0756 11.8361 19.4984C11.9619 18.9326 12 18.2732 12 17.5376V6.4624C12 5.72675 11.9619 5.06736 11.8361 4.50156C11.7079 3.92442 11.4755 3.38525 11.0451 2.95486C10.6147 2.52447 10.0756 2.29212 9.49844 2.16385C8.93264 2.03811 8.27325 2 7.5376 2H6.4624ZM7 19C5.89543 19 5 18.1046 5 17C5 15.8954 5.89543 15 7 15C8.10457 15 9 15.8954 9 17C9 18.1046 8.10457 19 7 19Z" fill="#323232"/>
<path d="M12.9999 17.5376C12.9999 17.732 13.2376 17.8335 13.375 17.696L19.4512 11.6199C19.9714 11.0997 20.4107 10.6065 20.7218 10.1175C21.0393 9.61868 21.2562 9.07313 21.2562 8.46447C21.2562 7.8558 21.0392 7.31026 20.7218 6.81145C20.4107 6.32247 19.9714 5.82925 19.4512 5.30907L18.6909 4.54879C18.1707 4.02861 17.6775 3.58929 17.1885 3.27813C16.6897 2.96073 16.1442 2.74377 15.5355 2.74377C14.9268 2.74377 14.3813 2.96073 13.8825 3.27813C13.5519 3.48852 13.2193 3.7575 12.8778 4.07045C12.8188 4.1245 12.7949 4.20653 12.8123 4.28463V4.28463C12.9619 4.95782 12.9999 5.70369 12.9999 6.46241V17.5376V17.5376Z" fill="#323232"/>
<path d="M17.5378 22.0001H11.8478C11.7241 22.0001 11.665 21.8398 11.7524 21.7523V21.7523C12.3588 21.1459 12.6579 20.4111 12.8125 19.7154V19.7154C12.8202 19.6801 12.8379 19.6477 12.8634 19.6222L19.3492 13.1364C19.8214 12.6642 20.5732 12.4828 21.0453 12.9549V12.9549C21.4757 13.3853 21.7081 13.9245 21.8364 14.5016C21.9621 15.0674 22.0002 15.7268 22.0002 16.4625V17.5377C22.0002 18.2733 21.9621 18.9327 21.8364 19.4985C21.7081 20.0756 21.4757 20.6148 21.0453 21.0452C20.615 21.4756 20.0758 21.7079 19.4986 21.8362C18.9328 21.9619 18.2735 22.0001 17.5378 22.0001Z" fill="#323232"/>
</svg>
