<svg width="24" height="24" viewBox="0 0 24 24" fill="none" xmlns="http://www.w3.org/2000/svg">
<rect width="24" height="24" fill="white"/>
<path d="M22 15.024L22 13.2C22 13.0895 21.9105 13 21.8 13L2.2 13C2.08954 13 2 13.0895 2 13.2L2 15.024C2 16.2771 2.06584 17.3524 2.26552 18.2508C2.46772 19.1607 2.82021 19.9494 3.43543 20.5646C4.05065 21.1798 4.83933 21.5323 5.74916 21.7345C6.64762 21.9342 7.72287 22 8.976 22L15.024 22C16.2771 22 17.3524 21.9342 18.2508 21.7345C19.1607 21.5323 19.9494 21.1798 20.5646 20.5646C21.1798 19.9494 21.5323 19.1607 21.7345 18.2508C21.9342 17.3524 22 16.2771 22 15.024Z" fill="#323232"/>
<path d="M11 10.8C11 10.9105 10.9105 11 10.8 11L2.2 11C2.08954 11 2 10.9105 2 10.8L2 8.976C2 7.72287 2.06584 6.64762 2.26552 5.74915C2.46772 4.83933 2.82021 4.05065 3.43543 3.43543C4.05065 2.82021 4.83933 2.46772 5.74916 2.26552C6.64762 2.06584 7.72287 2 8.976 2L10.8 2C10.9105 2 11 2.08954 11 2.2L11 10.8Z" fill="#323232"/>
<path d="M13.2 2C13.0895 2 13 2.08954 13 2.2L13 10.8C13 10.9105 13.0895 11 13.2 11L21.8 11C21.9105 11 22 10.9105 22 10.8L22 8.976C22 7.72287 21.9342 6.64762 21.7345 5.74916C21.5323 4.83933 21.1798 4.05065 20.5646 3.43543C19.9494 2.82021 19.1607 2.46772 18.2508 2.26552C17.3524 2.06584 16.2771 2 15.024 2L13.2 2Z" fill="#323232"/>
</svg>
