<svg width="24" height="24" viewBox="0 0 24 24" fill="none" xmlns="http://www.w3.org/2000/svg">
<rect width="24" height="24" fill="white"/>
<path fill-rule="evenodd" clip-rule="evenodd" d="M7.09002 2.21181C7.81273 2.05119 8.66827 2 9.648 2H13.9378C14.4682 2 14.9769 2.21071 15.352 2.58579L19.4142 6.648C19.7893 7.02307 20 7.53178 20 8.06221V16.352C20 17.3317 19.9488 18.1873 19.7882 18.91C19.6251 19.644 19.336 20.3009 18.8185 20.8185C18.3009 21.336 17.644 21.6251 16.91 21.7882C16.1873 21.9488 15.3317 22 14.352 22H9.648C8.66827 22 7.81273 21.9488 7.09002 21.7882C6.35596 21.6251 5.6991 21.336 5.18153 20.8185C4.66396 20.3009 4.37495 19.644 4.21181 18.91C4.05119 18.1873 4 17.3317 4 16.352V7.648C4 6.66827 4.05119 5.81273 4.21181 5.09002C4.37495 4.35596 4.66396 3.6991 5.18153 3.18153C5.6991 2.66396 6.35596 2.37495 7.09002 2.21181ZM8.29289 9.29289C8.68342 8.90237 9.31658 8.90237 9.70711 9.29289L12 11.5858L14.2929 9.29289C14.6834 8.90237 15.3166 8.90237 15.7071 9.29289C16.0976 9.68342 16.0976 10.3166 15.7071 10.7071L13.4142 13L15.7071 15.2928C16.0976 15.6834 16.0976 16.3165 15.7071 16.7071C15.3165 17.0976 14.6834 17.0976 14.2928 16.7071L12 14.4142L9.70716 16.7071C9.31663 17.0976 8.68347 17.0976 8.29294 16.7071C7.90242 16.3165 7.90242 15.6834 8.29294 15.2928L10.5858 13L8.29289 10.7071C7.90237 10.3166 7.90237 9.68342 8.29289 9.29289Z" fill="#323232"/>
</svg>
