<svg width="24" height="24" viewBox="0 0 24 24" fill="none" xmlns="http://www.w3.org/2000/svg">
<rect width="24" height="24" fill="white"/>
<path fill-rule="evenodd" clip-rule="evenodd" d="M12 2C3.765 2 2 3.765 2 12C2 20.235 3.765 22 12 22C20.235 22 22 20.235 22 12C22 3.765 20.235 2 12 2ZM8 9.5C7.44772 9.5 7 9.94771 7 10.5C7 11.0523 7.44772 11.5 8 11.5H8.01613C7.99473 11.8304 7.99473 12.1696 8.01613 12.5H8C7.44772 12.5 7 12.9477 7 13.5C7 14.0523 7.44772 14.5 8 14.5H8.42654C8.64329 15.1022 8.93769 15.6547 9.29827 16.1355C10.1189 17.2298 11.3289 18 12.7498 18C13.9042 18 14.9274 17.4882 15.7077 16.7065C16.0979 16.3156 16.0973 15.6824 15.7065 15.2923C15.3156 14.9021 14.6824 14.9027 14.2923 15.2935C13.819 15.7676 13.284 16 12.7498 16C12.0997 16 11.4348 15.651 10.8983 14.9356C10.7976 14.8012 10.703 14.6557 10.6158 14.5H12C12.5523 14.5 13 14.0523 13 13.5C13 12.9477 12.5523 12.5 12 12.5H10.0217C9.99312 12.1735 9.99312 11.8265 10.0217 11.5H13C13.5523 11.5 14 11.0523 14 10.5C14 9.94771 13.5523 9.5 13 9.5H10.6158C11.0535 8.71823 11.8025 8 12.7498 8C13.284 8 13.819 8.23239 14.2923 8.70646C14.6824 9.09734 15.3156 9.09792 15.7065 8.70775C16.0973 8.31758 16.0979 7.68442 15.7077 7.29354C14.9274 6.51179 13.9042 6 12.7498 6C11.3289 6 10.1189 6.77025 9.29827 7.86449C8.93769 8.34528 8.64329 8.89783 8.42654 9.5H8Z" fill="#323232"/>
</svg>
