<svg width="24" height="24" viewBox="0 0 24 24" fill="none" xmlns="http://www.w3.org/2000/svg">
<rect width="24" height="24" fill="white"/>
<path fill-rule="evenodd" clip-rule="evenodd" d="M8.312 3C7.19557 3 6.23018 3.05852 5.41959 3.23866C4.59764 3.42133 3.87488 3.74209 3.30848 4.30848C2.74209 4.87488 2.42133 5.59764 2.23866 6.41959C2.05852 7.23018 2 8.19557 2 9.312V14.688C2 15.8044 2.05852 16.7698 2.23866 17.5804C2.42133 18.4024 2.74209 19.1251 3.30848 19.6915C3.87488 20.2579 4.59764 20.5787 5.41959 20.7613C6.23018 20.9415 7.19557 21 8.312 21H15.688C16.8044 21 17.7698 20.9415 18.5804 20.7613C19.4024 20.5787 20.1251 20.2579 20.6915 19.6915C21.2579 19.1251 21.5787 18.4024 21.7613 17.5804C21.9415 16.7698 22 15.8044 22 14.688V9.312C22 9.21189 22.0012 9.06403 22.0029 8.8852C22.0181 7.26115 20.7233 6 19.1258 6H14.0704C13.736 6 13.4238 5.83288 13.2383 5.5547L12.4258 4.3359C11.8694 3.5013 10.9327 3 9.92963 3H8.312ZM16.7071 12.2071C17.0976 11.8166 17.0976 11.1834 16.7071 10.7929C16.3166 10.4024 15.6834 10.4024 15.2929 10.7929L11 15.0858L9.70711 13.7929C9.31658 13.4024 8.68342 13.4024 8.29289 13.7929C7.90237 14.1834 7.90237 14.8166 8.29289 15.2071L10.2929 17.2071C10.6834 17.5976 11.3166 17.5976 11.7071 17.2071L16.7071 12.2071Z" fill="#323232"/>
</svg>
