<svg width="24" height="24" viewBox="0 0 24 24" fill="none" xmlns="http://www.w3.org/2000/svg">
<rect width="24" height="24" fill="white"/>
<path fill-rule="evenodd" clip-rule="evenodd" d="M5.41959 3.23866C6.23018 3.05852 7.19557 3 8.312 3H9.92963C10.9327 3 11.8694 3.5013 12.4258 4.3359L13.2383 5.5547C13.4238 5.83288 13.736 6 14.0704 6H19.1258C20.7233 6 22.0181 7.26115 22.0029 8.8852C22.0012 9.06403 22 9.21189 22 9.312V14.688C22 15.8044 21.9415 16.7698 21.7613 17.5804C21.5787 18.4024 21.2579 19.1251 20.6915 19.6915C20.1251 20.2579 19.4024 20.5787 18.5804 20.7613C17.7698 20.9415 16.8044 21 15.688 21H8.312C7.19557 21 6.23018 20.9415 5.41959 20.7613C4.59764 20.5787 3.87488 20.2579 3.30848 19.6915C2.74209 19.1251 2.42133 18.4024 2.23866 17.5804C2.05852 16.7698 2 15.8044 2 14.688V9.312C2 8.19557 2.05852 7.23018 2.23866 6.41959C2.42133 5.59764 2.74209 4.87488 3.30848 4.30848C3.87488 3.74209 4.59764 3.42133 5.41959 3.23866ZM8.29289 9.79289C8.68342 9.40237 9.31658 9.40237 9.70711 9.79289L12 12.0858L14.2929 9.79289C14.6834 9.40237 15.3166 9.40237 15.7071 9.79289C16.0976 10.1834 16.0976 10.8166 15.7071 11.2071L13.4142 13.5L15.7071 15.7928C16.0976 16.1834 16.0976 16.8165 15.7071 17.2071C15.3165 17.5976 14.6834 17.5976 14.2928 17.2071L12 14.9142L9.70716 17.2071C9.31663 17.5976 8.68347 17.5976 8.29294 17.2071C7.90242 16.8165 7.90242 16.1834 8.29294 15.7928L10.5858 13.5L8.29289 11.2071C7.90237 10.8166 7.90237 10.1834 8.29289 9.79289Z" fill="#323232"/>
</svg>
