<svg width="24" height="24" viewBox="0 0 24 24" fill="none" xmlns="http://www.w3.org/2000/svg">
<rect width="24" height="24" fill="white"/>
<path fill-rule="evenodd" clip-rule="evenodd" d="M5.41959 3.23866C6.23018 3.05852 7.19557 3 8.312 3H9.92963C10.9327 3 11.8694 3.5013 12.4258 4.3359L13.2383 5.5547C13.4238 5.83288 13.736 6 14.0704 6H19.1258C20.7233 6 22.0181 7.26115 22.0029 8.8852C22.0012 9.06403 22 9.21189 22 9.312V14.688C22 15.8044 21.9415 16.7698 21.7613 17.5804C21.5787 18.4024 21.2579 19.1251 20.6915 19.6915C20.1251 20.2579 19.4024 20.5787 18.5804 20.7613C17.7698 20.9415 16.8044 21 15.688 21H8.312C7.19557 21 6.23018 20.9415 5.41959 20.7613C4.59764 20.5787 3.87488 20.2579 3.30848 19.6915C2.74209 19.1251 2.42133 18.4024 2.23866 17.5804C2.05852 16.7698 2 15.8044 2 14.688V9.312C2 8.19557 2.05852 7.23018 2.23866 6.41959C2.42133 5.59764 2.74209 4.87488 3.30848 4.30848C3.87488 3.74209 4.59764 3.42133 5.41959 3.23866ZM12.7005 17.2136C12.703 17.2112 12.7054 17.2088 12.7078 17.2064L15.7071 14.2071C16.0976 13.8166 16.0976 13.1834 15.7071 12.7929C15.3166 12.4024 14.6834 12.4024 14.2929 12.7929L13 14.0858V10C13 9.44772 12.5523 9 12 9C11.4477 9 11 9.44772 11 10V14.0858L9.70711 12.7929C9.31658 12.4024 8.68342 12.4024 8.29289 12.7929C7.90237 13.1834 7.90237 13.8166 8.29289 14.2071L11.2929 17.2071C11.4732 17.3874 11.722 17.4992 11.997 17.5L12 17.5L12.003 17.5C12.1375 17.4996 12.2657 17.4727 12.3828 17.4241C12.498 17.3764 12.6062 17.3063 12.7005 17.2136Z" fill="#323232"/>
</svg>
