<svg width="24" height="24" viewBox="0 0 24 24" fill="none" xmlns="http://www.w3.org/2000/svg">
<rect width="24" height="24" fill="white"/>
<path fill-rule="evenodd" clip-rule="evenodd" d="M5.41959 3.23866C6.23018 3.05852 7.19557 3 8.312 3H9.92963C10.9327 3 11.8694 3.5013 12.4258 4.3359L13.2383 5.5547C13.4238 5.83288 13.736 6 14.0704 6H19.1258C20.7233 6 22.0181 7.26115 22.0029 8.8852C21.9847 10.8192 22 12.7539 22 14.688C22 15.8044 21.9415 16.7698 21.7613 17.5804C21.5787 18.4024 21.2579 19.1251 20.6915 19.6915C20.1251 20.2579 19.4024 20.5787 18.5804 20.7613C17.7698 20.9415 16.8044 21 15.688 21H8.312C7.19557 21 6.23018 20.9415 5.41959 20.7613C4.59764 20.5787 3.87488 20.2579 3.30848 19.6915C2.74209 19.1251 2.42133 18.4024 2.23866 17.5804C2.05852 16.7698 2 15.8044 2 14.688V9.312C2 8.19557 2.05852 7.23018 2.23866 6.41959C2.42133 5.59764 2.74209 4.87488 3.30848 4.30848C3.87488 3.74209 4.59764 3.42133 5.41959 3.23866ZM8.19103 13.8535C8.05868 14.449 8 15.2412 8 16.312V18C8 18.5523 7.55228 19 7 19C6.44772 19 6 18.5523 6 18V16.312C6 15.1956 6.05852 14.2302 6.23866 13.4196C6.42133 12.5976 6.74209 11.8749 7.30848 11.3085C7.87488 10.7421 8.59764 10.4213 9.41959 10.2387C10.2302 10.0585 11.1956 10 12.312 10H17.688H19C19.5523 10 20 10.4477 20 11C20 11.5523 19.5523 12 19 12H17.688H12.312C11.2412 12 10.449 12.0587 9.85349 12.191C9.26933 12.3209 8.9375 12.5079 8.72269 12.7227C8.50789 12.9375 8.32085 13.2693 8.19103 13.8535Z" fill="#323232"/>
</svg>
