<svg width="24" height="24" viewBox="0 0 24 24" fill="none" xmlns="http://www.w3.org/2000/svg">
<rect width="24" height="24" fill="white"/>
<path d="M7 9.87398C8.72523 9.42994 10 7.86384 10 6C10 3.79086 8.20914 2 6 2C3.79086 2 2 3.79086 2 6C2 7.86384 3.27477 9.42994 5 9.87398V12.024C5 13.2771 5.06584 14.3524 5.26552 15.2508C5.46772 16.1607 5.82021 16.9494 6.43543 17.5646C7.05065 18.1798 7.83933 18.5323 8.74915 18.7345C9.04525 18.8003 9.36054 18.8516 9.69507 18.8907L8.29289 20.2929C7.90237 20.6834 7.90237 21.3166 8.29289 21.7071C8.68342 22.0976 9.31658 22.0976 9.70711 21.7071L12.7071 18.7071C12.8946 18.5196 13 18.2652 13 18C13 17.7348 12.8946 17.4804 12.7071 17.2929L9.70711 14.2929C9.31658 13.9024 8.68342 13.9024 8.29289 14.2929C7.90237 14.6834 7.90237 15.3166 8.29289 15.7071L9.41456 16.8288C9.33471 16.8142 9.25758 16.7987 9.18305 16.7821C8.51101 16.6328 8.11327 16.414 7.84964 16.1504C7.58602 15.8867 7.36724 15.489 7.21788 14.8169C7.066 14.1336 7 13.2315 7 12.024V9.87398Z" fill="#323232"/>
<path d="M15.7071 2.29289C16.0976 2.68342 16.0976 3.31658 15.7071 3.70711L14.3049 5.10928C14.6395 5.14845 14.9547 5.19971 15.2508 5.26552C16.1607 5.46772 16.9493 5.82021 17.5646 6.43543C18.1798 7.05065 18.5323 7.83933 18.7345 8.74915C18.9341 9.64762 19 10.7229 19 11.976V14.126C20.7252 14.5701 22 16.1362 22 18C22 20.2091 20.2091 22 18 22C15.7909 22 14 20.2091 14 18C14 16.1362 15.2748 14.5701 17 14.126V11.976C17 10.7685 16.934 9.86645 16.7821 9.18305C16.6327 8.51101 16.414 8.11327 16.1503 7.84964C15.8867 7.58602 15.489 7.36724 14.8169 7.21788C14.7424 7.20132 14.6653 7.18578 14.5854 7.17123L15.7071 8.29289C16.0976 8.68342 16.0976 9.31658 15.7071 9.70711C15.3166 10.0976 14.6834 10.0976 14.2929 9.70711L11.2929 6.70711C11.1054 6.51957 11 6.26522 11 6C11 5.73478 11.1054 5.48043 11.2929 5.29289L14.2929 2.29289C14.6834 1.90237 15.3166 1.90237 15.7071 2.29289Z" fill="#323232"/>
</svg>
