<svg width="24" height="24" viewBox="0 0 24 24" fill="none" xmlns="http://www.w3.org/2000/svg">
<rect width="24" height="24" fill="white"/>
<path d="M5.08277 9.89434C3.3157 9.47975 2 7.89353 2 6C2 3.79086 3.79086 2 6 2C8.20914 2 10 3.79086 10 6C10 7.82801 8.77376 9.36962 7.09898 9.84714C7.10681 9.88986 7.11511 9.93093 7.12389 9.97043C7.20489 10.3349 7.31258 10.5019 7.40532 10.5947C7.49806 10.6874 7.66511 10.7951 8.02957 10.8761C8.40538 10.9596 8.92297 11 9.652 11H14.348C15.077 11 15.5946 10.9596 15.9704 10.8761C16.3349 10.7951 16.5019 10.6874 16.5947 10.5947C16.6874 10.5019 16.7951 10.3349 16.8761 9.97043C16.8849 9.93093 16.8932 9.88986 16.901 9.84714C15.2262 9.36962 14 7.82801 14 6C14 3.79086 15.7909 2 18 2C20.2091 2 22 3.79086 22 6C22 6.11835 21.9949 6.23549 21.9848 6.35122C21.8338 8.08723 20.5739 9.50566 18.9172 9.89434C18.8938 10.0717 18.8646 10.2418 18.8285 10.4043C18.6946 11.0066 18.4532 11.5646 18.0089 12.0089C17.5646 12.4532 17.0066 12.6946 16.4043 12.8285C15.8134 12.9598 15.1227 13 14.348 13H13V14.126C14.7252 14.5701 16 16.1362 16 18C16 20.2091 14.2091 22 12 22C9.79086 22 8 20.2091 8 18C8 16.1362 9.27477 14.5701 11 14.126V13H9.652C8.87732 13 8.18655 12.9598 7.59567 12.8285C6.99343 12.6946 6.43544 12.4532 5.99111 12.0089C5.54678 11.5646 5.30537 11.0066 5.17152 10.4043C5.1354 10.2418 5.10617 10.0717 5.08277 9.89434Z" fill="#323232"/>
</svg>
