<svg width="24" height="24" viewBox="0 0 24 24" fill="none" xmlns="http://www.w3.org/2000/svg">
<path fill-rule="evenodd" clip-rule="evenodd" d="M9.39886 2C8.14971 2 6.96781 2.78998 6.62784 4.08435C6.34024 5.17929 6 6.82195 6 8.5C6 11.473 8.16229 13.941 11 14.417V20H8C7.44772 20 7 20.4477 7 21C7 21.5523 7.44772 22 8 22H12H16C16.5523 22 17 21.5523 17 21C17 20.4477 16.5523 20 16 20H13V14.417C15.8377 13.941 18 11.473 18 8.5C18 6.82195 17.6598 5.17929 17.3722 4.08435C17.0322 2.78998 15.8503 2 14.6011 2H9.39886ZM9.26003 9.10012C9.49 9.03819 9.72878 9 10 9C10.5832 9 11.0134 9.17117 11.614 9.42249L11.6492 9.43725C12.2385 9.68397 12.9932 10 14 10C14.4699 10 14.8843 9.93226 15.26 9.83108C15.7933 9.68748 16.1092 9.13874 15.9656 8.60546C15.822 8.07217 15.2733 7.75627 14.74 7.89988C14.51 7.96181 14.2712 8 14 8C13.4168 8 12.9866 7.82883 12.386 7.57751L12.3508 7.56275C11.7616 7.31603 11.0068 7 10 7C9.53009 7 9.11569 7.06774 8.73997 7.16892C8.20668 7.31254 7.89079 7.86127 8.0344 8.39456C8.17801 8.92784 8.72675 9.24374 9.26003 9.10012Z" fill="#323232"/>
</svg>
