<svg width="24" height="24" viewBox="0 0 24 24" fill="none" xmlns="http://www.w3.org/2000/svg">
<rect width="24" height="24" fill="white"/>
<path d="M21.8 11C21.9105 11 22 10.9105 22 10.8V8.976C22 7.72287 21.9342 6.64762 21.7345 5.74915C21.5323 4.83933 21.1798 4.05065 20.5646 3.43543C19.9494 2.82021 19.1607 2.46772 18.2508 2.26552C17.3524 2.06584 16.2771 2 15.024 2H13.096C13.0421 2 13 2.04608 13 2.1V10.8C13 10.9105 13.0895 11 13.2 11H21.8Z" fill="#323232"/>
<path d="M13.096 22C13.0421 22 13 21.9539 13 21.9V13.2C13 13.0895 13.0895 13 13.2 13H21.8C21.9105 13 22 13.0895 22 13.2V15.024C22 16.2771 21.9342 17.3524 21.7345 18.2508C21.5323 19.1607 21.1798 19.9494 20.5646 20.5646C19.9494 21.1798 19.1607 21.5323 18.2508 21.7345C17.3524 21.9342 16.2771 22 15.024 22H13.096Z" fill="#323232"/>
<path d="M10.904 2C10.9579 2 11 2.04608 11 2.1V10.8C11 10.9105 10.9105 11 10.8 11H2.2C2.08954 11 2 10.9105 2 10.8V8.976C2 7.72287 2.06584 6.64762 2.26552 5.74915C2.46772 4.83933 2.82021 4.05065 3.43543 3.43543C4.05065 2.82021 4.83933 2.46772 5.74915 2.26552C6.64762 2.06584 7.72287 2 8.976 2H10.904Z" fill="#323232"/>
<path d="M2.2 13C2.08954 13 2 13.0895 2 13.2V15.024C2 16.2771 2.06584 17.3524 2.26552 18.2508C2.46772 19.1607 2.82021 19.9494 3.43543 20.5646C4.05065 21.1798 4.83933 21.5323 5.74915 21.7345C6.64762 21.9342 7.72287 22 8.976 22H10.904C10.9579 22 11 21.9539 11 21.9V13.2C11 13.0895 10.9105 13 10.8 13H2.2Z" fill="#323232"/>
</svg>
