<svg width="24" height="24" viewBox="0 0 24 24" fill="none" xmlns="http://www.w3.org/2000/svg">
<rect width="24" height="24" fill="white"/>
<path fill-rule="evenodd" clip-rule="evenodd" d="M11.3356 2.25259C11.7145 1.9158 12.2855 1.9158 12.6644 2.25259L21.6644 10.2526C22.0772 10.6195 22.1143 11.2516 21.7474 11.6644C21.3805 12.0771 20.7484 12.1143 20.3356 11.7474L20 11.4491V17.016C20 17.859 19.9561 18.6047 19.8151 19.2396C19.6715 19.8857 19.4142 20.4767 18.9454 20.9454C18.4767 21.4142 17.8857 21.6714 17.2396 21.8151C16.6047 21.9561 15.859 22 15.016 22H8.98401C8.14098 22 7.39529 21.9561 6.76046 21.8151C6.11428 21.6714 5.52334 21.4142 5.05459 20.9454C4.58585 20.4767 4.32857 19.8857 4.18496 19.2396C4.04388 18.6047 4.00001 17.859 4.00001 17.016V11.4491L3.66437 11.7474C3.25159 12.1143 2.61952 12.0771 2.2526 11.6644C1.88568 11.2516 1.92286 10.6195 2.33565 10.2526L11.3356 2.25259ZM11 16.328C11 16.1894 11.0045 16.0867 11.0111 16.0111C11.0867 16.0045 11.1894 16 11.328 16H12.672C12.8106 16 12.9133 16.0045 12.9889 16.0111C12.9955 16.0867 13 16.1894 13 16.328V19C13 19.5523 13.4477 20 14 20C14.5523 20 15 19.5523 15 19V16.328C15 16.0318 14.9854 15.7255 14.9225 15.4422C14.857 15.1475 14.7267 14.8202 14.4532 14.5468C14.1798 14.2733 13.8525 14.143 13.5578 14.0775C13.2745 14.0146 12.9682 14 12.672 14H11.328C11.0318 14 10.7255 14.0146 10.4422 14.0775C10.1475 14.143 9.82024 14.2733 9.54679 14.5468C9.27334 14.8202 9.14301 15.1475 9.07753 15.4422C9.01457 15.7255 9 16.0318 9 16.328V19C9 19.5523 9.44772 20 10 20C10.5523 20 11 19.5523 11 19V16.328Z" fill="#323232"/>
</svg>
