<svg width="24" height="24" viewBox="0 0 24 24" fill="none" xmlns="http://www.w3.org/2000/svg">
<path fill-rule="evenodd" clip-rule="evenodd" d="M7 4L6.93417 4C6.04769 3.99995 5.28387 3.99991 4.67221 4.08215C4.0167 4.17028 3.38835 4.36902 2.87868 4.87868C2.36902 5.38835 2.17028 6.0167 2.08215 6.67221C1.99991 7.28387 1.99995 8.04769 2 8.93417L2 9L2 15.0658C1.99995 15.9523 1.99991 16.7161 2.08215 17.3278C2.17028 17.9833 2.36902 18.6117 2.87868 19.1213C3.38835 19.631 4.0167 19.8297 4.67221 19.9179C5.28387 20.0001 6.04769 20.0001 6.93417 20H17.0658C17.9523 20.0001 18.7161 20.0001 19.3278 19.9179C19.9833 19.8297 20.6117 19.631 21.1213 19.1213C21.631 18.6117 21.8297 17.9833 21.9179 17.3278C22.0001 16.7161 22.0001 15.9523 22 15.0659V8.93414C22.0001 8.04767 22.0001 7.28387 21.9179 6.67221C21.8297 6.0167 21.631 5.38835 21.1213 4.87868C20.6117 4.36902 19.9833 4.17028 19.3278 4.08215C18.7161 3.99991 17.9523 3.99995 17.0658 4L7 4ZM10 10C8.89543 10 8 10.8954 8 12C8 13.1046 8.89543 14 10 14C10.1728 14 10.3401 13.9783 10.4996 13.9373C10.1813 13.3634 10 12.7028 10 12C10 11.2972 10.1813 10.6367 10.4996 10.0627C10.3401 10.0217 10.1727 10 10 10ZM10 16C10.7275 16 11.4112 15.805 11.9998 15.4648C12.5882 15.8052 13.2713 16 14 16C16.2091 16 18 14.2091 18 12C18 9.79086 16.2091 8 14 8C13.2713 8 12.5882 8.19483 11.9998 8.53524C11.4114 8.19506 10.7278 8 10 8C7.79086 8 6 9.79086 6 12C6 14.2091 7.79086 16 10 16ZM14 10C12.8954 10 12 10.8954 12 12C12 13.1046 12.8954 14 14 14C15.1046 14 16 13.1046 16 12C16 10.8954 15.1046 10 14 10Z" fill="#323232"/>
</svg>
