<svg width="24" height="24" viewBox="0 0 24 24" fill="none" xmlns="http://www.w3.org/2000/svg">
<rect width="24" height="24" fill="white"/>
<path fill-rule="evenodd" clip-rule="evenodd" d="M12 2C10.1243 2 8.54878 2.0992 7.25007 2.38782C5.94002 2.67897 4.85116 3.176 4.01358 4.01358C3.176 4.85116 2.67897 5.94002 2.38782 7.25007C2.0992 8.54878 2 10.1243 2 12C2 13.8757 2.0992 15.4512 2.38782 16.7499C2.67897 18.06 3.176 19.1488 4.01358 19.9864C4.85116 20.824 5.94002 21.321 7.25007 21.6122C8.54878 21.9008 10.1243 22 12 22C13.8757 22 15.4512 21.9008 16.7499 21.6122C18.06 21.321 19.1488 20.824 19.9864 19.9864C20.824 19.1488 21.321 18.06 21.6122 16.7499C21.9008 15.4512 22 13.8757 22 12C22 10.1243 21.9008 8.54878 21.6122 7.25007C21.321 5.94002 20.824 4.85116 19.9864 4.01358C19.1488 3.176 18.06 2.67897 16.7499 2.38782C15.4512 2.0992 13.8757 2 12 2ZM16 7H11.9999C11.4476 7 10.9999 7.44772 10.9999 8C10.9999 8.55229 11.4476 9 11.9999 9H15L14.9999 12C14.9999 12.5523 15.4476 13 15.9999 13C16.5522 13 16.9999 12.5523 16.9999 12L17 8.00003C17 7.73481 16.8947 7.48045 16.7071 7.2929C16.5196 7.10536 16.2653 7 16 7ZM9 12C9 11.4477 8.55228 11 8 11C7.44772 11 7 11.4477 7 12V16C7 16.2652 7.10536 16.5196 7.29289 16.7071C7.48043 16.8946 7.73478 17 8 17L12 17C12.5523 17 13 16.5523 13 16C13 15.4477 12.5523 15 12 15H9V12Z" fill="#323232"/>
</svg>
