<svg width="24" height="24" viewBox="0 0 24 24" fill="none" xmlns="http://www.w3.org/2000/svg">
<rect width="24" height="24" fill="white"/>
<path fill-rule="evenodd" clip-rule="evenodd" d="M7.25007 2.38782C8.54878 2.0992 10.1243 2 12 2C13.8757 2 15.4512 2.0992 16.7499 2.38782C18.06 2.67897 19.1488 3.176 19.9864 4.01358C20.824 4.85116 21.321 5.94002 21.6122 7.25007C21.9008 8.54878 22 10.1243 22 12C22 13.8757 21.9008 15.4512 21.6122 16.7499C21.321 18.06 20.824 19.1488 19.9864 19.9864C19.1488 20.824 18.06 21.321 16.7499 21.6122C15.4512 21.9008 13.8757 22 12 22C10.1243 22 8.54878 21.9008 7.25007 21.6122C5.94002 21.321 4.85116 20.824 4.01358 19.9864C3.176 19.1488 2.67897 18.06 2.38782 16.7499C2.0992 15.4512 2 13.8757 2 12C2 10.1243 2.0992 8.54878 2.38782 7.25007C2.67897 5.94002 3.176 4.85116 4.01358 4.01358C4.85116 3.176 5.94002 2.67897 7.25007 2.38782ZM14 7C14 6.44772 13.5523 6 13 6C12.4477 6 12 6.44772 12 7V10.5C12 11.3284 12.6716 12 13.5 12L17 12C17.5523 12 18 11.5523 18 11C18 10.4477 17.5523 10 17 10H14V7ZM7 12C6.44771 12 6 12.4477 6 13C6 13.5523 6.44772 14 7 14H9.99991L10 17C10 17.5523 10.4477 18 11 18C11.5523 18 12 17.5523 12 17L11.9999 13.5C11.9999 12.6719 11.3287 12 10.5 12L7 12Z" fill="#323232"/>
</svg>
