<svg width="24" height="24" viewBox="0 0 24 24" fill="none" xmlns="http://www.w3.org/2000/svg">
<rect width="24" height="24" fill="white"/>
<path fill-rule="evenodd" clip-rule="evenodd" d="M7.76045 2.18495C8.39528 2.04387 9.14097 2 9.984 2H14.016C14.859 2 15.6047 2.04387 16.2395 2.18495C16.8857 2.32856 17.4767 2.58584 17.9454 3.05458C18.4142 3.52333 18.6714 4.11427 18.815 4.76045C18.9561 5.39528 19 6.14097 19 6.984V17.016C19 17.859 18.9561 18.6047 18.815 19.2395C18.6714 19.8857 18.4142 20.4767 17.9454 20.9454C17.4767 21.4142 16.8857 21.6714 16.2395 21.815C15.6047 21.9561 14.859 22 14.016 22H9.984C9.14097 22 8.39528 21.9561 7.76045 21.815C7.11427 21.6714 6.52333 21.4142 6.05458 20.9454C5.58584 20.4767 5.32856 19.8857 5.18495 19.2395C5.04387 18.6047 5 17.859 5 17.016V6.984C5 6.14097 5.04387 5.39528 5.18495 4.76045C5.32856 4.11427 5.58584 3.52333 6.05458 3.05458C6.52333 2.58584 7.11427 2.32856 7.76045 2.18495ZM10.5 18C10.5 17.4477 10.9477 17 11.5 17H12.5C13.0523 17 13.5 17.4477 13.5 18C13.5 18.5523 13.0523 19 12.5 19H11.5C10.9477 19 10.5 18.5523 10.5 18Z" fill="#323232"/>
</svg>
