<svg width="24" height="24" viewBox="0 0 24 24" fill="none" xmlns="http://www.w3.org/2000/svg">
<rect width="24" height="24" fill="white"/>
<path d="M5.09002 2.21181C5.81273 2.05119 6.66827 2 7.648 2H16.352C17.3317 2 18.1873 2.05119 18.91 2.21181C19.644 2.37495 20.3009 2.66396 20.8185 3.18153C21.336 3.6991 21.6251 4.35596 21.7882 5.09002C21.9488 5.81273 22 6.66827 22 7.648V12.352C22 13.3317 21.9488 14.1873 21.7882 14.91C21.6251 15.644 21.336 16.3009 20.8185 16.8185C20.3009 17.336 19.644 17.6251 18.91 17.7882C18.1873 17.9488 17.3317 18 16.352 18H13V20H17C17.5523 20 18 20.4477 18 21C18 21.5523 17.5523 22 17 22H7C6.44772 22 6 21.5523 6 21C6 20.4477 6.44772 20 7 20H11V18H7.648C6.66827 18 5.81273 17.9488 5.09002 17.7882C4.35596 17.6251 3.6991 17.336 3.18153 16.8185C2.66396 16.3009 2.37495 15.644 2.21181 14.91C2.05119 14.1873 2 13.3317 2 12.352V7.648C2 6.66827 2.05119 5.81273 2.21181 5.09002C2.37495 4.35596 2.66396 3.6991 3.18153 3.18153C3.6991 2.66396 4.35596 2.37495 5.09002 2.21181Z" fill="#323232"/>
</svg>
