<svg width="24" height="24" viewBox="0 0 24 24" fill="none" xmlns="http://www.w3.org/2000/svg">
<rect width="24" height="24" fill="white"/>
<path fill-rule="evenodd" clip-rule="evenodd" d="M12 2C6.47715 2 2 6.47715 2 12C2 17.5228 6.47715 22 12 22C17.5228 22 22 17.5228 22 12C22 6.47715 17.5228 2 12 2ZM10.5145 8.14251C10.2056 7.95715 9.82081 7.95229 9.5073 8.1298C9.19379 8.30731 9 8.63973 9 9V15C9 15.3603 9.19379 15.6927 9.5073 15.8702C9.82081 16.0477 10.2056 16.0429 10.5145 15.8575L15.5145 12.8575C15.8157 12.6768 16 12.3513 16 12C16 11.6487 15.8157 11.3232 15.5145 11.1425L10.5145 8.14251Z" fill="#323232"/>
</svg>
