<svg width="24" height="24" viewBox="0 0 24 24" fill="none" xmlns="http://www.w3.org/2000/svg">
<rect width="24" height="24" transform="matrix(4.37114e-08 -1 -1 -4.37114e-08 24 24)" fill="white"/>
<path d="M19 5.04361C18.4251 4.99987 17.7792 4.99994 17.1188 5.00001H6.88126C6.22079 4.99994 5.57492 4.99987 5 5.04361L5 5C5 3.34315 6.34315 2 8 2L16 2C17.6569 2 19 3.34315 19 5V5.04361Z" fill="#323232"/>
<path fill-rule="evenodd" clip-rule="evenodd" d="M10.9342 12C10.956 12 10.978 12 11 12H13C13.022 12 13.044 12 13.0658 12C13.9523 12 14.7161 11.9999 15.3278 12.0821C15.9833 12.1703 16.6117 12.369 17.1213 12.8787C17.631 13.3883 17.8297 14.0167 17.9179 14.6722C18.0001 15.2839 18.0001 16.0477 18 16.9342V17.0658C18.0001 17.9523 18.0001 18.7161 17.9179 19.3278C17.8297 19.9833 17.631 20.6117 17.1213 21.1213C16.6117 21.631 15.9833 21.8297 15.3278 21.9179C14.7161 22.0001 13.9523 22.0001 13.0658 22H10.9342C10.0477 22.0001 9.28387 22.0001 8.67221 21.9179C8.0167 21.8297 7.38835 21.631 6.87868 21.1213C6.36902 20.6117 6.17028 19.9833 6.08215 19.3278C5.99991 18.7161 5.99995 17.9523 6 17.0658C6 17.044 6 17.022 6 17C6 16.978 6 16.956 6 16.9342C5.99995 16.0477 5.99991 15.2839 6.08215 14.6722C6.17028 14.0167 6.36902 13.3883 6.87868 12.8787C7.38835 12.369 8.0167 12.1703 8.67221 12.0821C9.28387 11.9999 10.0477 12 10.9342 12Z" fill="#323232"/>
<path d="M6.93418 6C6.04769 5.99995 5.28388 5.99991 4.67222 6.08215C4.0167 6.17028 3.38835 6.36902 2.87869 6.87868C2.36902 7.38835 2.17028 8.0167 2.08215 8.67221C1.99991 9.28387 1.99995 10.0477 2 10.9342L2 13.0658C1.99995 13.9523 1.99991 14.7161 2.08215 15.3278C2.17028 15.9833 2.36902 16.6117 2.87869 17.1213C3.44648 17.6891 4.22701 17.8878 5.00334 17.9536C4.99995 17.6809 4.99998 17.4012 5.00001 17.1188C5.00001 16.2599 4.97638 15.3921 5.09107 14.539C5.19402 13.7732 5.44485 12.8983 6.17159 12.1716C6.89833 11.4448 7.77323 11.194 8.53897 11.0911C9.21759 10.9998 10.0375 10.9999 10.8813 11L13.1188 11C13.9625 10.9999 14.7824 10.9998 15.4611 11.0911C16.2268 11.194 17.1017 11.4448 17.8284 12.1716C18.5552 12.8983 18.806 13.7732 18.909 14.539C19.0236 15.392 19 16.2599 19 17.1187C19 17.4012 19.0001 17.6809 18.9967 17.9536C19.773 17.8878 20.5535 17.6891 21.1213 17.1213C21.631 16.6117 21.8297 15.9833 21.9179 15.3278C22.0001 14.7161 22.0001 13.9523 22 13.0658V10.9342C22.0001 10.0477 22.0001 9.28387 21.9179 8.67221C21.8297 8.0167 21.631 7.38835 21.1213 6.87869C20.6117 6.36902 19.9833 6.17028 19.3278 6.08215C18.7161 5.99991 17.9523 5.99995 17.0658 6L6.93418 6Z" fill="#323232"/>
</svg>
