<svg width="24" height="24" viewBox="0 0 24 24" fill="none" xmlns="http://www.w3.org/2000/svg">
<rect width="24" height="24" fill="white"/>
<path fill-rule="evenodd" clip-rule="evenodd" d="M6.41959 2.23866C7.23018 2.05852 8.19557 2 9.312 2H14.688C15.8044 2 16.7698 2.05852 17.5804 2.23866C18.4024 2.42133 19.1251 2.74209 19.6915 3.30848C20.2579 3.87488 20.5787 4.59764 20.7613 5.41959C20.9415 6.23018 21 7.19557 21 8.312V15.688C21 16.8044 20.9415 17.7698 20.7613 18.5804C20.5787 19.4024 20.2579 20.1251 19.6915 20.6915C19.1251 21.2579 18.4024 21.5787 17.5804 21.7613C16.7698 21.9415 15.8044 22 14.688 22H9.312C8.19557 22 7.23018 21.9415 6.41959 21.7613C5.59764 21.5787 4.87488 21.2579 4.30848 20.6915C3.74209 20.1251 3.42133 19.4024 3.23866 18.5804C3.05852 17.7698 3 16.8044 3 15.688V8.312C3 7.19557 3.05852 6.23018 3.23866 5.41959C3.42133 4.59764 3.74209 3.87488 4.30848 3.30848C4.87488 2.74209 5.59764 2.42133 6.41959 2.23866ZM10.5 18C10.5 17.4477 10.9477 17 11.5 17H12.5C13.0523 17 13.5 17.4477 13.5 18C13.5 18.5523 13.0523 19 12.5 19H11.5C10.9477 19 10.5 18.5523 10.5 18Z" fill="#323232"/>
</svg>
