<svg width="24" height="24" viewBox="0 0 24 24" fill="none" xmlns="http://www.w3.org/2000/svg">
<rect width="24" height="24" fill="white"/>
<path fill-rule="evenodd" clip-rule="evenodd" d="M12 2C10.1243 2 8.54878 2.0992 7.25007 2.38782C5.94002 2.67897 4.85116 3.176 4.01358 4.01358C3.176 4.85116 2.67897 5.94002 2.38782 7.25007C2.0992 8.54878 2 10.1243 2 12C2 13.8757 2.0992 15.4512 2.38782 16.7499C2.67897 18.06 3.176 19.1488 4.01358 19.9864C4.85116 20.824 5.94002 21.321 7.25007 21.6122C8.54878 21.9008 10.1243 22 12 22C13.8757 22 15.4512 21.9008 16.7499 21.6122C18.06 21.321 19.1488 20.824 19.9864 19.9864C20.824 19.1488 21.321 18.06 21.6122 16.7499C21.9008 15.4512 22 13.8757 22 12C22 10.1243 21.9008 8.54878 21.6122 7.25007C21.321 5.94002 20.824 4.85116 19.9864 4.01358C19.1488 3.176 18.06 2.67897 16.7499 2.38782C15.4512 2.0992 13.8757 2 12 2ZM8.44541 6.16793C8.90493 5.86158 9.5258 5.98576 9.83216 6.44528L12.0001 9.69721L14.1681 6.44528C14.4744 5.98576 15.0953 5.86158 15.5548 6.16793C16.0143 6.47429 16.1385 7.09516 15.8322 7.55468L13.5353 11H15.0001C15.5524 11 16.0001 11.4477 16.0001 12C16.0001 12.5523 15.5524 13 15.0001 13H13.0001V14H15.0001C15.5524 14 16.0001 14.4477 16.0001 15C16.0001 15.5523 15.5524 16 15.0001 16H13.0001V17C13.0001 17.5523 12.5524 18 12.0001 18C11.4478 18 11.0001 17.5523 11.0001 17V16H9.00011C8.44782 16 8.00011 15.5523 8.00011 15C8.00011 14.4477 8.44782 14 9.00011 14H11.0001V13H9.00011C8.44782 13 8.00011 12.5523 8.00011 12C8.00011 11.4477 8.44782 11 9.00011 11H10.4649L8.16806 7.55468C7.8617 7.09516 7.98588 6.47429 8.44541 6.16793Z" fill="#323232"/>
</svg>
