<?xml version="1.0" standalone="no"?>
<!DOCTYPE svg PUBLIC "-//W3C//DTD SVG 20010904//EN"
 "http://www.w3.org/TR/2001/REC-SVG-20010904/DTD/svg10.dtd">
<svg version="1.0" xmlns="http://www.w3.org/2000/svg"
 width="700.000000pt" height="700.000000pt" viewBox="0 0 700.000000 700.000000"
 preserveAspectRatio="xMidYMid meet">
<metadata>
Created by potrace 1.14, written by Peter Selinger 2001-2017
</metadata>
<g transform="translate(0.000000,700.000000) scale(0.100000,-0.100000)"
fill="#000000" stroke="none">
<path d="M3207 6983 c-275 -39 -584 -156 -704 -267 -15 -14 -31 -26 -35 -26
-5 0 -28 -27 -52 -60 -147 -199 -90 -402 157 -567 80 -53 273 -136 367 -158
159 -38 248 -55 305 -62 135 -15 554 -7 584 11 3 2 28 7 56 11 141 18 391 106
511 179 108 65 196 152 236 233 52 106 38 235 -38 344 -36 52 -149 142 -239
190 -84 45 -230 100 -342 128 -76 19 -90 23 -163 35 -19 3 -48 9 -65 12 -66
13 -480 11 -578 -3z"/>
<path d="M1420 6400 c-78 -20 -122 -47 -255 -154 -55 -44 -136 -109 -180 -145
-154 -124 -193 -170 -231 -280 -19 -53 -23 -82 -20 -151 6 -169 53 -240 284
-426 89 -72 173 -139 185 -150 12 -10 114 -93 227 -184 113 -90 255 -205 316
-255 60 -49 130 -106 154 -125 23 -19 130 -105 236 -191 106 -86 205 -161 221
-166 37 -12 49 -10 178 23 l110 28 822 1 c883 1 924 -1 1067 -50 124 -44 158
-35 281 67 11 9 169 136 350 283 182 146 348 281 370 300 22 18 54 44 70 57
17 12 39 30 50 40 11 9 133 107 270 218 289 234 323 266 363 346 57 113 65
230 23 348 -39 111 -69 142 -383 395 -205 164 -248 183 -428 185 -139 1 -164
-3 -200 -36 -29 -26 -60 -79 -60 -101 0 -34 -53 -195 -86 -261 -109 -217 -300
-399 -553 -526 -242 -122 -560 -208 -865 -235 -95 -8 -387 -8 -471 0 -74 7
-203 24 -236 31 -34 7 -120 25 -145 30 -11 2 -67 18 -124 34 -204 61 -395 147
-540 245 -107 71 -263 232 -328 337 -61 98 -83 153 -120 293 -29 108 -40 129
-88 164 -41 30 -168 35 -264 11z"/>
<path d="M6435 4659 c-99 -3 -181 -6 -182 -7 -1 -1 -49 -39 -105 -84 -57 -45
-105 -85 -108 -88 -3 -3 -83 -69 -178 -145 -197 -159 -220 -177 -538 -436
-243 -197 -254 -210 -254 -288 0 -20 5 -52 10 -71 17 -54 19 -210 5 -297 -22
-132 -66 -241 -144 -352 -63 -91 -119 -142 -320 -294 -95 -73 -179 -136 -185
-142 -6 -5 -74 -57 -151 -115 -77 -58 -142 -107 -145 -110 -23 -23 -95 -69
-177 -111 -109 -57 -147 -88 -162 -132 -7 -19 -11 -338 -11 -946 0 -895 1
-917 20 -949 33 -53 73 -72 149 -67 78 4 281 44 440 86 675 178 1286 562 1752
1099 341 393 607 901 734 1400 38 150 38 149 56 250 7 41 13 77 14 80 1 3 5
32 9 65 4 33 10 71 12 85 15 89 19 258 19 832 0 642 0 647 -21 675 -43 57 -73
66 -222 67 -76 1 -218 -2 -317 -5z"/>
<path d="M86 4645 c-40 -21 -75 -64 -82 -101 -7 -36 2 -1336 9 -1374 2 -14 8
-56 12 -95 24 -243 142 -702 225 -882 11 -24 20 -45 20 -48 0 -25 158 -337
237 -467 172 -287 437 -605 673 -808 35 -30 71 -62 80 -71 31 -29 214 -165
305 -226 418 -278 913 -470 1415 -546 106 -16 143 -9 189 37 l36 36 2 933 3
933 -28 45 c-25 37 -44 52 -136 97 -95 48 -232 143 -443 308 -27 22 -64 50
-83 64 -170 127 -324 249 -368 293 -126 123 -216 298 -240 462 -10 77 -6 265
7 310 7 22 15 64 18 93 8 78 -13 114 -110 192 -45 36 -93 75 -107 86 -44 38
-413 337 -490 399 -41 33 -80 64 -86 70 -6 5 -25 21 -43 35 -18 14 -38 30 -44
35 -7 6 -48 40 -92 75 -44 36 -88 72 -99 82 -51 46 -66 48 -418 48 -278 0
-338 -3 -362 -15z"/>
<path d="M2807 3643 c-1 -1 -29 -3 -62 -4 -78 -4 -127 -23 -177 -72 -95 -93
-107 -236 -28 -347 20 -28 86 -80 475 -375 94 -71 172 -132 175 -135 20 -23
134 -86 184 -102 79 -25 206 -21 286 10 30 12 105 59 165 104 637 479 651 491
673 566 32 107 1 217 -80 286 -81 69 -56 68 -874 69 -405 1 -736 1 -737 0z"/>
</g>
</svg>
