<svg width="300" height="300" viewBox="0 0 300 300" fill="none" xmlns="http://www.w3.org/2000/svg">
<path fill-rule="evenodd" clip-rule="evenodd" d="M80.2261 7.77859C99.5767 3.47807 123.052 2 151 2C178.948 2 202.423 3.47807 221.774 7.77859C241.294 12.1167 257.518 19.5224 269.998 32.0024C282.478 44.4823 289.883 60.7063 294.221 80.2261C298.522 99.5767 300 123.052 300 151C300 178.948 298.522 202.423 294.221 221.774C289.883 241.294 282.478 257.518 269.998 269.998C257.518 282.478 241.294 289.883 221.774 294.221C202.423 298.522 178.948 300 151 300C123.052 300 99.5767 298.522 80.2261 294.221C60.7063 289.883 44.4823 282.478 32.0024 269.998C19.5224 257.518 12.1167 241.294 7.77859 221.774C3.47807 202.423 2 178.948 2 151C2 123.052 3.47807 99.5767 7.77859 80.2261C12.1167 60.7063 19.5224 44.4823 32.0024 32.0024C44.4823 19.5224 60.7063 12.1167 80.2261 7.77859Z" fill="white"/>
<path d="M210.816 56.108C207.627 65.5238 200.005 73.6767 188.8 79.2471C176.663 84.9319 163.396 87.7851 149.998 87.5908C136.617 87.7881 123.365 84.9346 111.248 79.2471C99.095 73.3733 91.1234 64.1916 88.4721 53.7114C86.6353 46.4507 77.1532 48.1334 71.3355 52.8499C65.2272 57.8019 59.5951 63.3184 54.5187 69.3199C52.2813 71.9651 51.0827 75.56 52.5822 78.6831C53.5915 80.7854 55.0569 82.6352 56.8724 84.0969L61.1958 87.5908L104.869 122.972C108.027 125.53 112.356 125.856 116.309 124.911C118.585 124.367 120.924 124.09 123.279 124.092H176.717C179.516 124.099 182.29 124.492 184.961 125.253C189.056 126.42 193.627 126.196 196.937 123.518L215.571 108.449L241.3 87.5908L245.623 84.0969C247.429 82.6301 248.885 80.7781 249.885 78.6761C250.627 77.1181 250.249 75.303 249.198 73.9345C243.784 66.8843 237.635 60.4277 230.866 54.6793C224.211 49.0281 213.616 47.8388 210.816 56.108Z" fill="#323232"/>
<path d="M179.474 60.6316C184.057 58.3372 191.661 53.3836 191.661 45.8747C191.559 43.8267 191.001 41.8274 190.028 40.023C189.054 38.2187 187.69 36.6549 186.036 35.4457C184.047 33.7221 181.841 32.2667 179.474 31.1172C170.236 26.8758 160.156 24.7901 149.995 25.0167C139.851 24.7962 129.79 26.8818 120.568 31.1172C118.201 32.2667 115.994 33.7221 114.005 35.4457C112.344 36.6521 110.972 38.2138 109.99 40.0179C109.008 41.8221 108.44 43.8232 108.328 45.8747C108.328 53.3836 115.984 58.3372 120.568 60.6316C129.796 64.8465 139.853 66.9317 149.995 66.7328C160.154 66.9395 170.23 64.8541 179.474 60.6316Z" fill="#323232"/>
<path d="M186.197 154.44C186.201 155.906 185.864 157.352 185.214 158.665C184.563 159.977 183.616 161.12 182.447 162.002L168.645 172.431L160.416 178.688L159.478 179.418C156.766 181.478 153.456 182.595 150.052 182.599C146.629 182.607 143.299 181.489 140.572 179.418L139.583 178.688L117.552 161.898C116.05 160.761 114.925 159.199 114.322 157.413C113.969 156.426 113.792 155.384 113.801 154.336C113.793 152.87 114.128 151.423 114.78 150.11C115.431 148.797 116.38 147.655 117.552 146.775C119.163 145.579 121.118 144.939 123.124 144.95H176.562C178.632 144.943 180.646 145.621 182.291 146.88L183.333 147.818C184.233 148.671 184.95 149.698 185.442 150.836C185.935 151.974 186.191 153.2 186.197 154.44Z" fill="#323232"/>
<path d="M275.003 150.165C274.995 181.545 263.211 211.776 241.989 234.869C223.333 255.168 198.58 268.649 171.648 273.388C165.644 274.445 160.42 269.614 160.42 263.518V209.654C160.42 205.024 163.566 201.083 167.623 198.853C169.178 197.999 170.67 197.028 172.087 195.948L195.108 178.427C198.833 175.607 201.85 171.957 203.92 167.766C205.991 163.575 207.056 158.959 207.034 154.284C207.027 153.228 206.964 152.174 206.847 151.128C206.349 146.677 207.452 141.954 210.931 139.133L245.799 110.864C247.643 109.368 249.943 108.548 252.318 108.538L264.545 108.49C266.883 108.481 268.624 110.399 269.322 112.631C273.014 124.431 275.003 136.983 275.003 150L275.003 150.165Z" fill="#323232"/>
<path d="M139.583 209.88C139.583 205.217 136.398 201.255 132.287 199.054C130.751 198.232 129.273 197.299 127.865 196.261L104.896 178.74C101.164 175.923 98.1388 172.274 96.0595 168.084C93.9803 163.893 92.9047 159.276 92.9169 154.597C92.9133 153.077 93.0256 151.564 93.2513 150.069C93.9528 145.422 92.9373 140.391 89.2893 137.428L56.6722 110.936C54.8156 109.428 52.4967 108.604 50.1049 108.604H35.4167C33.0732 108.604 31.3352 110.532 30.6381 112.77C26.9741 124.529 25 137.034 25 150V150.321C25.0085 181.701 36.7912 211.933 58.0137 235.025C76.6697 255.325 101.424 268.805 128.355 273.545C134.359 274.601 139.583 269.77 139.583 263.675V209.88Z" fill="#323232"/>
</svg>
