<svg width="24" height="24" viewBox="0 0 24 24" fill="none" xmlns="http://www.w3.org/2000/svg">
<rect width="24" height="24" fill="white"/>
<path d="M13 8C13 8.55228 12.5523 9 12 9C11.4477 9 11 8.55228 11 8C11 7.44772 11.4477 7 12 7C12.5523 7 13 7.44772 13 8Z" stroke="#323232" stroke-width="2"/>
<path d="M16 11.0001C17.6569 9.34319 17.6569 6.65687 16 5" stroke="#323232" stroke-width="2" stroke-linecap="round"/>
<path d="M8 11.0001C6.34313 9.34319 6.34313 6.65687 8 5" stroke="#323232" stroke-width="2" stroke-linecap="round"/>
<path d="M19 13.0001C21.7615 10.2387 21.7615 5.76145 19 3" stroke="#323232" stroke-width="2" stroke-linecap="round"/>
<path d="M5 13.0001C2.23855 10.2387 2.23855 5.76145 5 3" stroke="#323232" stroke-width="2" stroke-linecap="round"/>
<path d="M10.7749 22H13.2251C14.5903 22 15.5542 20.6626 15.1225 19.3675L13.3333 14C12.9062 12.7187 11.0938 12.7187 10.6667 14L8.87749 19.3675C8.4458 20.6626 9.40974 22 10.7749 22Z" stroke="#323232" stroke-width="2" stroke-linecap="round" stroke-linejoin="round"/>
</svg>
