<svg width="24" height="24" viewBox="0 0 24 24" fill="none" xmlns="http://www.w3.org/2000/svg">
<path d="M10 10V11C10 11.9319 10 12.3978 9.84776 12.7654C9.64477 13.2554 9.25542 13.6448 8.76537 13.8478C8.39782 14 7.93188 14 7 14H6.5C5.09554 14 4.39331 14 3.88886 13.6629C3.67048 13.517 3.48298 13.3295 3.33706 13.1111C3 12.6067 3 11.9045 3 10.5V9.65685C3 8.83935 3 8.4306 3.15224 8.06306C3.30448 7.69552 3.59351 7.40649 4.17157 6.82843L4.76035 6.23965C5.21781 5.78219 6 6.10618 6 6.75313V7.12132C6 7.6066 6.3934 8 6.87868 8H8C9.10457 8 10 8.89543 10 10Z" stroke="#323232" stroke-width="2" stroke-linejoin="round"/>
<path d="M21 16V17C21 17.9319 21 18.3978 20.8478 18.7654C20.6448 19.2554 20.2554 19.6448 19.7654 19.8478C19.3978 20 18.9319 20 18 20H17.5C16.0955 20 15.3933 20 14.8889 19.6629C14.6705 19.517 14.483 19.3295 14.3371 19.1111C14 18.6067 14 17.9045 14 16.5V15.6569C14 14.8394 14 14.4306 14.1522 14.0631C14.3045 13.6955 14.5935 13.4065 15.1716 12.8284L15.7604 12.2396C16.2178 11.7822 17 12.1062 17 12.7531V13.1213C17 13.6066 17.3934 14 17.8787 14H19C20.1046 14 21 14.8954 21 16Z" stroke="#323232" stroke-width="2" stroke-linejoin="round"/>
</svg>
