<svg width="24" height="24" viewBox="0 0 24 24" fill="none" xmlns="http://www.w3.org/2000/svg">
<rect width="24" height="24" fill="white"/>
<path d="M3 6.39995C3 4.59602 3.35289 4.0857 4.91731 4.01038C5.23384 3.99513 5.54597 3.92393 5.83515 3.79431C6.48805 3.50164 7.74623 3 8.7 3C9.44765 3 10.3824 3.30825 11.0659 3.58246C11.6626 3.8218 12.3374 3.8218 12.9341 3.58246C13.6176 3.30825 14.5523 3 15.3 3C16.2538 3 17.512 3.50164 18.1649 3.79431C18.454 3.92393 18.7662 3.99513 19.0827 4.01038C20.6471 4.0857 21 4.59602 21 6.39995V18.6C21 20.4039 20.6471 20.9142 19.0827 20.9896C18.7662 21.0048 18.454 20.924 18.1648 20.7943C17.5119 20.5017 16.2538 20 15.3 20C14.5524 20 13.6177 20.3083 12.9341 20.5825C12.3374 20.8218 11.6626 20.8218 11.0659 20.5825C10.3823 20.3083 9.44764 20 8.7 20C7.74624 20 6.48807 20.5017 5.83516 20.7943C5.54598 20.924 5.23383 21.0048 4.91729 20.9896C3.35289 20.9142 3 20.4039 3 18.6V6.39995Z" stroke="#323232" stroke-width="2"/>
<path d="M12 4V20.5" stroke="#323232" stroke-width="2" stroke-linecap="round" stroke-linejoin="round"/>
</svg>
