<svg width="24" height="24" viewBox="0 0 24 24" fill="none" xmlns="http://www.w3.org/2000/svg">
<rect width="24" height="24" fill="white"/>
<path d="M3 6.4624C3 3.61111 3.61111 3 6.4624 3H7.5376C10.3889 3 11 3.61111 11 6.4624V17.5376C11 20.3889 10.3889 21 7.5376 21H6.4624C3.61111 21 3 20.3889 3 17.5376V6.4624Z" stroke="#323232" stroke-width="2" stroke-linejoin="round"/>
<path d="M6.4624 21H17.5376C20.3889 21 21 20.3889 21 17.5376V16.4624C21 13.6111 20.3889 13 17.5376 13H17.0188" stroke="#323232" stroke-width="2" stroke-linecap="round" stroke-linejoin="round"/>
<path d="M10.9127 18.7441L18.7441 10.9128C20.7602 8.89662 20.7602 8.03238 18.7441 6.01621L17.9838 5.25593C15.9676 3.23977 15.1034 3.23977 13.0872 5.25593L11.0324 7.31076" stroke="#323232" stroke-width="2" stroke-linejoin="round"/>
<path d="M8 17C8 16.4477 7.55228 16 7 16C6.44772 16 6 16.4477 6 17C6 17.5523 6.44772 18 7 18C7.55228 18 8 17.5523 8 17Z" stroke="#323232" stroke-width="2" stroke-linejoin="round"/>
</svg>
