<svg width="24" height="24" viewBox="0 0 24 24" fill="none" xmlns="http://www.w3.org/2000/svg">
<path d="M17.6573 5C16.1116 3.7492 14.1433 3 12 3C7.02944 3 3 7.02944 3 12C3 14.8273 3.64707 17.35 4.2051 19" stroke="#323232" stroke-width="2" stroke-linecap="round"/>
<path d="M20.4879 9C20.8195 9.93834 21 10.9481 21 12C21 13.0519 20.4879 13.8115 20.4879 15C20.4879 15.6123 20.6238 16.3899 20.7556 17" stroke="#323232" stroke-width="2" stroke-linecap="round"/>
<path d="M9 7.99834C9.49609 7.62618 10.0702 7.34071 10.7059 7.17038C13.3732 6.45567 16.1149 8.03858 16.8296 10.7059C17.5443 13.3732 16.5 14.5 16.5 15.5C16.5 17.3524 17.5 19 18 20" stroke="#323232" stroke-width="2" stroke-linecap="round"/>
<path d="M9 21C7.5 18 6.5 14.5 7 12" stroke="#323232" stroke-width="2" stroke-linecap="round"/>
<path d="M14 21C12.5 18.5 10.5 14.5 12.5 12" stroke="#323232" stroke-width="2" stroke-linecap="round"/>
</svg>
