<svg width="24" height="24" viewBox="0 0 24 24" fill="none" xmlns="http://www.w3.org/2000/svg">
<rect width="24" height="24" fill="white"/>
<path d="M3 18C3 16.3431 4.34315 15 6 15C7.65685 15 9 16.3431 9 18C9 19.6569 7.65685 21 6 21C4.34315 21 3 19.6569 3 18Z" stroke="#323232" stroke-width="2"/>
<path d="M3 6C3 4.34315 4.34315 3 6 3C7.65685 3 9 4.34315 9 6C9 7.65685 7.65685 9 6 9C4.34315 9 3 7.65685 3 6Z" stroke="#323232" stroke-width="2"/>
<path d="M15 18C15 16.3431 16.3431 15 18 15C19.6569 15 21 16.3431 21 18C21 19.6569 19.6569 21 18 21C16.3431 21 15 19.6569 15 18Z" stroke="#323232" stroke-width="2"/>
<path d="M6 9L6 15" stroke="#323232" stroke-width="2" stroke-linecap="round" stroke-linejoin="round"/>
<path d="M18 15L18 11.6758C18 7.00178 16.9424 6 12.008 6L9 6" stroke="#323232" stroke-width="2" stroke-linecap="round"/>
</svg>
