<svg width="24" height="24" viewBox="0 0 24 24" fill="none" xmlns="http://www.w3.org/2000/svg">
<rect width="24" height="24" fill="white"/>
<path d="M-nan -nanL4.31803 5.45838C3.90017 5.92074 3.56869 6.46964 3.34255 7.07375C3.1164 7.67785 3 8.32533 3 8.9792C3 9.63308 3.1164 10.2806 3.34255 10.8847C3.56869 11.4888 3.90017 12.0377 4.31803 12.5L10.5162 19.3582C11.3103 20.2368 12.6897 20.2368 13.4838 19.3582L19.682 12.5C20.5259 11.5662 21 10.2998 21 8.9792C21 7.65864 20.5259 6.39216 19.682 5.45838C18.8381 4.5246 17.6935 4.00001 16.5 4.00001C15.3065 4.00001 14.1619 4.5246 13.318 5.45838V5.45838C12.6126 6.23885 11.3874 6.23885 10.682 5.45838V5.45838C10.2641 4.99602 9.76807 4.62925 9.2221 4.37902C8.67614 4.12879 8.09097 4 7.50002 4C6.90907 4 6.32391 4.12879 5.77794 4.37902C5.23197 4.62925 4.7359 4.99602 4.31803 5.45838L-nan -nanL-nan -nanZ" stroke="#323232" stroke-width="2" stroke-linecap="round" stroke-linejoin="round"/>
</svg>
