<svg width="24" height="24" viewBox="0 0 24 24" fill="none" xmlns="http://www.w3.org/2000/svg">
<rect width="24" height="24" fill="white"/>
<path d="M3 5.164C3 3.38195 3.38195 3 5.164 3H5.836C7.61805 3 8 3.38195 8 5.164V5.836C8 7.61805 7.61805 8 5.836 8H5.164C3.38195 8 3 7.61805 3 5.836V5.164Z" stroke="#323232" stroke-width="2"/>
<path d="M16 5.164C16 3.38195 16.3819 3 18.164 3H18.836C20.6181 3 21 3.38195 21 5.164V5.836C21 7.61805 20.6181 8 18.836 8H18.164C16.3819 8 16 7.61805 16 5.836V5.164Z" stroke="#323232" stroke-width="2"/>
<path d="M3 18.164C3 16.3819 3.38195 16 5.164 16H5.836C7.61805 16 8 16.3819 8 18.164V18.836C8 20.6181 7.61805 21 5.836 21H5.164C3.38195 21 3 20.6181 3 18.836V18.164Z" stroke="#323232" stroke-width="2"/>
<path d="M12 3V5" stroke="#323232" stroke-width="2" stroke-linecap="round" stroke-linejoin="round"/>
<path d="M21 12L20.5 12" stroke="#323232" stroke-width="2" stroke-linecap="round" stroke-linejoin="round"/>
<path d="M21 16L18 16" stroke="#323232" stroke-width="2" stroke-linecap="round" stroke-linejoin="round"/>
<path d="M8 12L3 12" stroke="#323232" stroke-width="2" stroke-linecap="round" stroke-linejoin="round"/>
<path d="M21 21L16 21" stroke="#323232" stroke-width="2" stroke-linecap="round" stroke-linejoin="round"/>
<path d="M17 12L12 12L12 9" stroke="#323232" stroke-width="2" stroke-linecap="round" stroke-linejoin="round"/>
<path d="M12 21L12 16L14 16" stroke="#323232" stroke-width="2" stroke-linecap="round" stroke-linejoin="round"/>
</svg>
