<svg width="24" height="24" viewBox="0 0 24 24" fill="none" xmlns="http://www.w3.org/2000/svg">
<path d="M4 7C4 5.11438 4 4.17157 4.58579 3.58579C5.17157 3 6.11438 3 8 3H12H16C17.8856 3 18.8284 3 19.4142 3.58579C20 4.17157 20 5.11438 20 7V12V17C20 18.8856 20 19.8284 19.4142 20.4142C18.8284 21 17.8856 21 16 21H12H8C6.11438 21 5.17157 21 4.58579 20.4142C4 19.8284 4 18.8856 4 17V12V7Z" stroke="#323232" stroke-width="2" stroke-linejoin="round"/>
<path d="M11.5 18H12.5" stroke="#323232" stroke-width="2" stroke-linecap="round"/>
</svg>
