<svg width="24" height="24" viewBox="0 0 24 24" fill="none" xmlns="http://www.w3.org/2000/svg">
<rect width="24" height="24" fill="white"/>
<path d="M15.6311 7.15517C15.9018 7.05482 16.1945 7 16.5001 7C17.8808 7 19.0001 8.11929 19.0001 9.5C19.0001 10.8807 17.8808 12 16.5001 12C16.1945 12 15.9018 11.9452 15.6311 11.8448" stroke="#323232" stroke-width="2" stroke-linecap="round"/>
<path d="M3 19C3.69137 16.6928 5.46998 16 9.5 16C13.53 16 15.3086 16.6425 16 18.9497" stroke="#323232" stroke-width="2" stroke-linecap="round"/>
<path d="M17 15.0179C19.403 15.1129 20.5292 15.6048 21 16.9665" stroke="#323232" stroke-width="2" stroke-linecap="round"/>
<path d="M7 7C5.61929 8.38071 5.61929 10.6193 7 12C8.38071 13.3807 10.6193 13.3807 12 12C13.3807 10.6193 13.3807 8.38071 12 7C10.6193 5.61929 8.38071 5.61929 7 7Z" stroke="#323232" stroke-width="2" stroke-linecap="round" stroke-linejoin="round"/>
</svg>
