<svg width="24" height="24" viewBox="0 0 24 24" fill="none" xmlns="http://www.w3.org/2000/svg">
<path fill-rule="evenodd" clip-rule="evenodd" d="M22 12C22 12.5523 21.5523 13 21 13L19.8293 13C19.4175 14.1652 18.3062 15 17 15C15.6938 15 14.5825 14.1652 14.1707 13L3 13C2.44772 13 2 12.5523 2 12C2 11.4477 2.44771 11 3 11L14.1707 11C14.5825 9.83481 15.6938 9 17 9C18.3062 9 19.4175 9.83481 19.8293 11L21 11C21.5523 11 22 11.4477 22 12Z" fill="#323232"/>
<path fill-rule="evenodd" clip-rule="evenodd" d="M22 19C22 19.5523 21.5523 20 21 20L9.82929 20C9.41746 21.1652 8.30622 22 7 22C5.69378 22 4.58254 21.1652 4.17071 20L3 20C2.44772 20 2 19.5523 2 19C2 18.4477 2.44772 18 3 18L4.17071 18C4.58254 16.8348 5.69378 16 7 16C8.30622 16 9.41746 16.8348 9.82929 18L21 18C21.5523 18 22 18.4477 22 19Z" fill="#323232"/>
<path fill-rule="evenodd" clip-rule="evenodd" d="M22 5C22 5.55228 21.5523 6 21 6L9.82929 6C9.41746 7.16519 8.30622 8 7 8C5.69378 8 4.58254 7.16519 4.17071 6L3 6C2.44772 6 2 5.55228 2 5C2 4.44771 2.44772 4 3 4L4.17071 4C4.58254 2.83481 5.69378 2 7 2C8.30622 2 9.41746 2.83481 9.82929 4L21 4C21.5523 4 22 4.44772 22 5Z" fill="#323232"/>
</svg>
