<svg width="24" height="24" viewBox="0 0 24 24" fill="none" xmlns="http://www.w3.org/2000/svg">
<rect width="24" height="24" fill="white"/>
<path fill-rule="evenodd" clip-rule="evenodd" d="M10.5423 15.4855C11.2024 14.3852 12.7971 14.3852 13.4573 15.4855L15.3428 18.628C15.9691 19.6719 15.2172 21 13.9998 21H9.99976C8.78237 21 8.03042 19.6719 8.65676 18.628L10.5423 15.4855Z" fill="#323232"/>
<path d="M6.93417 3C6.04769 2.99995 5.28387 2.99991 4.67221 3.08215C4.0167 3.17028 3.38835 3.36902 2.87868 3.87868C2.36902 4.38835 2.17028 5.0167 2.08215 5.67221C1.99991 6.28387 1.99995 7.04769 2 7.93417L2 13.032C1.99999 13.4706 1.99998 13.8491 2.02135 14.1624C2.04386 14.4922 2.09336 14.8221 2.22837 15.1481C2.53285 15.8831 3.11687 16.4672 3.85195 16.7716C4.17788 16.9066 4.50779 16.9562 4.83762 16.9787C5.15087 17 5.52934 17 5.96797 17H7.30134L8.82744 14.4565C10.2644 12.0615 13.7354 12.0615 15.1724 14.4565L16.6985 17H18.032C18.4706 17 18.8491 17 19.1624 16.9787C19.4922 16.9562 19.8221 16.9066 20.1481 16.7716C20.8831 16.4672 21.4672 15.8831 21.7716 15.1481C21.9066 14.8221 21.9562 14.4922 21.9787 14.1624C22 13.8491 22 13.4706 22 13.032L22 7.9342C22.0001 7.0477 22.0001 6.28388 21.9179 5.67221C21.8297 5.0167 21.631 4.38835 21.1213 3.87868C20.6117 3.36902 19.9833 3.17028 19.3278 3.08215C18.7161 2.99991 17.9523 2.99995 17.0658 3H6.93417Z" fill="#323232"/>
</svg>
