<svg width="24" height="24" viewBox="0 0 24 24" fill="none" xmlns="http://www.w3.org/2000/svg">
<path fill-rule="evenodd" clip-rule="evenodd" d="M7.10711 2.87868C7.66972 2.31607 8.43278 2 9.22843 2H14.7716C15.5672 2 16.3303 2.31607 16.8929 2.87868L21.1213 7.10711C21.6839 7.66972 22 8.43278 22 9.22843V14.7716C22 15.5672 21.6839 16.3303 21.1213 16.8929L16.8929 21.1213C16.3303 21.6839 15.5672 22 14.7716 22H9.22843C8.43278 22 7.66972 21.6839 7.10711 21.1213L2.87868 16.8929C2.31607 16.3303 2 15.5672 2 14.7716V9.22843C2 8.43278 2.31607 7.66972 2.87868 7.10711L7.10711 2.87868ZM13 8C13 7.44772 12.5523 7 12 7C11.4477 7 11 7.44772 11 8V13C11 13.5523 11.4477 14 12 14C12.5523 14 13 13.5523 13 13V8ZM13 15.9888C13 15.4365 12.5523 14.9888 12 14.9888C11.4477 14.9888 11 15.4365 11 15.9888V16C11 16.5523 11.4477 17 12 17C12.5523 17 13 16.5523 13 16V15.9888Z" fill="#323232"/>
</svg>
