<svg width="24" height="24" viewBox="0 0 24 24" fill="none" xmlns="http://www.w3.org/2000/svg">
<path d="M8.0001 6C8.0001 3.79086 9.79096 2 12.0001 2C14.2092 2 16.0001 3.79086 16.0001 6C16.0001 7.86384 14.7253 9.42994 13.0001 9.87398V19.9381C16.6189 19.4868 19.4872 16.6185 19.9383 13H19.0001C18.4478 13 18.0001 12.5523 18.0001 12C18.0001 11.4477 18.4478 11 19.0001 11H20.7501C21.4366 11 22.0159 11.5628 21.9963 12.278C21.8488 17.6726 17.43 22 12.0001 22C6.57023 22 2.15141 17.6726 2.0039 12.278C1.98434 11.5628 2.56356 11 3.2501 11H5.0001C5.55239 11 6.0001 11.4477 6.0001 12C6.0001 12.5523 5.55239 13 5.0001 13H4.06195C4.51303 16.6185 7.38135 19.4868 11.0001 19.9381V9.87398C9.27488 9.42994 8.0001 7.86384 8.0001 6Z" fill="#323232"/>
</svg>
