<svg width="24" height="24" viewBox="0 0 24 24" fill="none" xmlns="http://www.w3.org/2000/svg">
<path fill-rule="evenodd" clip-rule="evenodd" d="M12 2C17.5228 2 22 6.47715 22 12C22 17.5228 17.5228 22 12 22C6.47715 22 2 17.5228 2 12C2 6.47715 6.47715 2 12 2ZM9.70711 8.29289C9.31658 7.90237 8.68342 7.90237 8.29289 8.29289C7.90237 8.68342 7.90237 9.31658 8.29289 9.70711L12.5858 14H10C9.44772 14 9 14.4477 9 15C9 15.5523 9.44772 16 10 16H14.6717C15.4054 16 16 15.4051 16 14.6716V10C16 9.44772 15.5523 9 15 9C14.4477 9 14 9.44772 14 10V12.5858L9.70711 8.29289Z" fill="#323232"/>
</svg>
