<svg width="24" height="24" viewBox="0 0 24 24" fill="none" xmlns="http://www.w3.org/2000/svg">
<path fill-rule="evenodd" clip-rule="evenodd" d="M12 2C10.1243 2 8.54878 2.0992 7.25007 2.38782C5.94002 2.67897 4.85116 3.176 4.01358 4.01358C3.176 4.85116 2.67897 5.94002 2.38782 7.25007C2.0992 8.54878 2 10.1243 2 12C2 13.8757 2.0992 15.4512 2.38782 16.7499C2.67897 18.06 3.176 19.1488 4.01358 19.9864C4.85116 20.824 5.94002 21.321 7.25007 21.6122C8.54878 21.9008 10.1243 22 12 22C13.8757 22 15.4512 21.9008 16.7499 21.6122C18.06 21.321 19.1488 20.824 19.9864 19.9864C20.824 19.1488 21.321 18.06 21.6122 16.7499C21.9008 15.4512 22 13.8757 22 12C22 10.1243 21.9008 8.54878 21.6122 7.25007C21.321 5.94002 20.824 4.85116 19.9864 4.01358C19.1488 3.176 18.06 2.67897 16.7499 2.38782C15.4512 2.0992 13.8757 2 12 2ZM8 7C8 6.44772 8.44772 6 9 6C9.60159 6 10.3709 6.25875 10.9838 6.92059C11.6104 7.59742 12 8.6118 12 10H15C15.5523 10 16 10.4477 16 11C16 11.5523 15.5523 12 15 12H12V14.5C12 15.0171 12.1663 15.3146 12.3321 15.4804C12.5073 15.6556 12.7474 15.75 13 15.75C13.2526 15.75 13.4927 15.6556 13.6679 15.4804C13.8337 15.3146 14 15.0171 14 14.5C14 13.9477 14.4477 13.5 15 13.5C15.5523 13.5 16 13.9477 16 14.5C16 15.4829 15.6663 16.3104 15.0821 16.8946C14.5073 17.4694 13.7474 17.75 13 17.75C12.2526 17.75 11.4927 17.4694 10.9179 16.8946C10.3337 16.3104 10 15.4829 10 14.5V12H9C8.44772 12 8 11.5523 8 11C8 10.4477 8.44772 10 9 10H10C10 8.9882 9.72288 8.50258 9.51624 8.27941C9.29572 8.04125 9.06508 8 9 8C8.44772 8 8 7.55228 8 7Z" fill="#323232"/>
</svg>
