<svg width="24" height="24" viewBox="0 0 24 24" fill="none" xmlns="http://www.w3.org/2000/svg">
<path fill-rule="evenodd" clip-rule="evenodd" d="M7.25036 4.66355C8.1201 3.36729 9.62323 2 12.0001 2C14.377 2 15.8802 3.36729 16.7499 4.66355C17.6075 5.94174 17.9254 7.2474 17.9712 7.44762C17.9776 7.47579 17.9823 7.49925 17.9854 7.51539L19.5201 15.4288C19.8792 17.2803 18.461 19 16.575 19H7.42528C5.53928 19 4.12108 17.2803 4.48016 15.4288L6.01489 7.51539C6.01802 7.49925 6.02265 7.47579 6.0291 7.44762C6.07491 7.2474 6.39275 5.94174 7.25036 4.66355Z" fill="#323232"/>
<path d="M8.51367 20C8.76564 20.4807 9.1515 20.9831 9.73654 21.3672C10.3463 21.7675 11.1131 22 12.0466 22C12.98 22 13.7468 21.7675 14.3566 21.3672C14.9416 20.9831 15.3275 20.4807 15.5795 20H8.51367Z" fill="#323232"/>
</svg>
