<svg width="24" height="24" viewBox="0 0 24 24" fill="none" xmlns="http://www.w3.org/2000/svg">
<path fill-rule="evenodd" clip-rule="evenodd" d="M7.25036 4.66355C8.1201 3.36729 9.62323 2 12.0001 2C14.377 2 15.8802 3.36729 16.7499 4.66355C17.6075 5.94174 17.9254 7.2474 17.9712 7.44762C17.9776 7.47579 17.9823 7.49925 17.9854 7.51539L19.5201 15.4288C19.8792 17.2803 18.461 19 16.575 19H7.42528C5.53928 19 4.12108 17.2803 4.48016 15.4288L6.01489 7.51539C6.01802 7.49925 6.02265 7.47579 6.0291 7.44762C6.07491 7.2474 6.39275 5.94174 7.25036 4.66355Z" fill="#323232"/>
<path d="M8.51367 20C8.76564 20.4807 9.1515 20.9831 9.73654 21.3672C10.3463 21.7675 11.1131 22 12.0466 22C12.98 22 13.7468 21.7675 14.3566 21.3672C14.9416 20.9831 15.3275 20.4807 15.5795 20H8.51367Z" fill="#323232"/>
<path fill-rule="evenodd" clip-rule="evenodd" d="M17.2927 2.29289C16.9021 2.68342 16.9021 3.31658 17.2927 3.70711C18.1188 4.53324 18.5547 5.34278 19.0296 7.24254C19.1636 7.77833 19.7065 8.10409 20.2423 7.97014C20.7781 7.83619 21.1039 7.29326 20.9699 6.75746C20.4448 4.65722 19.8807 3.46676 18.7069 2.29289C18.3163 1.90237 17.6832 1.90237 17.2927 2.29289Z" fill="#323232"/>
<path fill-rule="evenodd" clip-rule="evenodd" d="M6.70734 2.29289C7.09787 2.68342 7.09787 3.31658 6.70734 3.70711C5.88121 4.53324 5.44532 5.34278 4.97038 7.24254C4.83643 7.77833 4.2935 8.10409 3.7577 7.97014C3.22191 7.83619 2.89615 7.29326 3.03009 6.75746C3.55516 4.65722 4.11926 3.46676 5.29313 2.29289C5.68365 1.90237 6.31682 1.90237 6.70734 2.29289Z" fill="#323232"/>
</svg>
