<svg width="24" height="24" viewBox="0 0 24 24" fill="none" xmlns="http://www.w3.org/2000/svg">
<path fill-rule="evenodd" clip-rule="evenodd" d="M21.4799 5.85869C21.4163 5.41415 21.0643 5.06646 20.619 5.00848C20.4899 4.99139 20.361 4.97172 20.2323 4.95147C20.0831 4.92802 19.8976 4.89737 19.6862 4.85942C19.5449 4.83409 19.3921 4.80551 19.231 4.77365C18.4144 4.61227 17.4277 4.37565 16.6359 4.06798C15.2034 3.51144 13.8154 2.82416 12.4534 2.11397C12.1537 1.9573 11.7892 1.96544 11.4952 2.13101C10.2138 2.84808 8.8971 3.53579 7.52735 4.06798C6.74183 4.37311 5.71522 4.60971 4.85023 4.77177C4.42481 4.85148 4.05176 4.91076 3.78565 4.95002C3.6471 4.97047 3.50843 4.99028 3.36951 5.00738C2.92042 5.06184 2.56385 5.41092 2.49988 5.85869C1.97791 9.51317 2.39185 12.8028 3.91431 15.5689C5.4397 18.3407 8.01746 20.4762 11.6157 21.9275C11.7389 21.9772 11.8695 22.0014 11.9999 22.0001C12.1236 21.9988 12.2471 21.9746 12.3639 21.9275C15.9623 20.4762 18.5399 18.3407 20.0654 15.5689C21.5878 12.8029 22.002 9.51317 21.4799 5.85869ZM7.99988 10.0001C7.99988 7.79092 9.79075 6.00006 11.9999 6.00006C14.209 6.00006 15.9999 7.79092 15.9999 10.0001C15.9999 12.2092 14.209 14.0001 11.9999 14.0001C9.79075 14.0001 7.99988 12.2092 7.99988 10.0001ZM8.39703 17.4814C9.14321 17.1585 10.2654 17.0001 11.9999 17.0001C13.7752 17.0001 14.9077 17.1543 15.6537 17.4801C16.1598 17.7011 16.7493 17.47 16.9703 16.9639C17.1914 16.4578 16.9603 15.8683 16.4542 15.6472C15.3042 15.145 13.8145 15.0001 11.9999 15.0001C10.2122 15.0001 8.74372 15.1522 7.60274 15.6459C7.09587 15.8652 6.86279 16.4539 7.08213 16.9608C7.30147 17.4677 7.89017 17.7007 8.39703 17.4814Z" fill="#323232"/>
<path d="M12 8C10.8954 8 10 8.89543 10 10C10 11.1046 10.8954 12 12 12C13.1046 12 14 11.1046 14 10C14 8.89543 13.1046 8 12 8Z" fill="#323232"/>
</svg>
