<svg width="24" height="24" viewBox="0 0 24 24" fill="none" xmlns="http://www.w3.org/2000/svg">
<path fill-rule="evenodd" clip-rule="evenodd" d="M6.85489 2.33342C7.40589 2.16023 8.07253 2 8.7 2C9.65538 2 10.7453 2.37638 11.4382 2.65435C11.7959 2.79783 12.2041 2.79784 12.5618 2.65435C13.2547 2.37638 14.3446 2 15.3 2C15.9275 2 16.5941 2.16023 17.1451 2.33342C17.7104 2.51111 18.2266 2.72613 18.5739 2.8818C18.7427 2.95746 18.9316 3.00194 19.1308 3.01153C19.9531 3.05113 20.841 3.20681 21.4154 3.94051C21.9357 4.60517 22 5.51982 22 6.39995V18.6C22 19.4801 21.9357 20.3948 21.4154 21.0594C20.841 21.7931 19.9532 21.9488 19.1308 21.9884C18.6138 22.0133 18.1427 21.8803 17.7558 21.7068C17.4501 21.5698 17.0108 21.3877 16.5454 21.2414C16.0656 21.0906 15.6263 21 15.3 21C14.7601 21 13.9806 21.2401 13.3064 21.5106C12.4708 21.8458 11.5292 21.8458 10.6936 21.5106C10.0194 21.2401 9.23991 21 8.7 21C8.37371 21 7.93438 21.0906 7.45463 21.2414C6.98918 21.3877 6.54987 21.5698 6.24423 21.7068C5.85729 21.8803 5.38617 22.0133 4.86919 21.9884C4.04685 21.9488 3.15896 21.7931 2.58458 21.0594C2.06425 20.3948 2 19.4801 2 18.6V6.39995C2 5.51982 2.06425 4.60517 2.58459 3.94051C3.15897 3.20681 4.04687 3.05113 4.86922 3.01153C5.0684 3.00194 5.2573 2.95746 5.4261 2.8818C5.77336 2.72613 6.28958 2.5111 6.85489 2.33342ZM12 4.5C12.5523 4.5 13 4.94772 13 5.5V19C13 19.5523 12.5523 20 12 20C11.4477 20 11 19.5523 11 19V5.5C11 4.94772 11.4477 4.5 12 4.5Z" fill="#323232"/>
</svg>
