<svg width="24" height="24" viewBox="0 0 24 24" fill="none" xmlns="http://www.w3.org/2000/svg">
<rect width="24" height="24" fill="white"/>
<path fill-rule="evenodd" clip-rule="evenodd" d="M10 2C8.34315 2 7 3.34315 7 5V6L5.96802 6C5.52938 5.99999 5.15087 5.99998 4.83762 6.02135C4.50779 6.04385 4.17788 6.09336 3.85195 6.22836C3.11687 6.53284 2.53285 7.11687 2.22837 7.85195C2.09336 8.17788 2.04386 8.50779 2.02135 8.83762C1.99998 9.15087 1.99999 9.52936 2 9.968L2 17.0658C1.99995 17.9523 1.99991 18.7161 2.08215 19.3278C2.17028 19.9833 2.36902 20.6117 2.87868 21.1213C3.38835 21.631 4.0167 21.8297 4.67221 21.9179C5.28387 22.0001 6.04769 22.0001 6.93417 22H17.0658C17.9523 22.0001 18.7161 22.0001 19.3278 21.9179C19.9833 21.8297 20.6117 21.631 21.1213 21.1213C21.631 20.6117 21.8297 19.9833 21.9179 19.3278C22.0001 18.7161 22.0001 17.9523 22 17.0658L22 9.96801C22 9.52936 22 9.15087 21.9787 8.83762C21.9562 8.50779 21.9066 8.17788 21.7716 7.85195C21.4672 7.11687 20.8831 6.53284 20.1481 6.22836C19.8221 6.09336 19.4922 6.04385 19.1624 6.02135C18.8491 5.99998 18.4707 5.99999 18.032 6L17 6V5C17 3.34315 15.6569 2 14 2H10ZM15 6V5C15 4.44772 14.5523 4 14 4H10C9.44772 4 9 4.44772 9 5V6H15ZM10.5 13C10.5 12.4477 10.9477 12 11.5 12H12.5C13.0523 12 13.5 12.4477 13.5 13C13.5 13.5523 13.0523 14 12.5 14H11.5C10.9477 14 10.5 13.5523 10.5 13ZM4.31682 13.3572C4.72018 12.98 5.35299 13.0011 5.73025 13.4045C7.19742 14.9731 9.44753 16 12 16C14.5525 16 16.8026 14.9731 18.2698 13.4045C18.647 13.0011 19.2798 12.98 19.6832 13.3572C20.0865 13.7345 20.1077 14.3673 19.7304 14.7707C17.8704 16.7593 15.0843 18 12 18C8.91574 18 6.12959 16.7593 4.26958 14.7707C3.89232 14.3673 3.91347 13.7345 4.31682 13.3572Z" fill="#323232"/>
</svg>
