<svg width="24" height="24" viewBox="0 0 24 24" fill="none" xmlns="http://www.w3.org/2000/svg">
<rect width="24" height="24" fill="white"/>
<path fill-rule="evenodd" clip-rule="evenodd" d="M9 9C9 8.44772 8.55228 8 8 8C7.44772 8 7 8.44772 7 9V19C7 19.5523 7.44772 20 8 20C8.55228 20 9 19.5523 9 19V9ZM17 9C17 8.44772 16.5523 8 16 8C15.4477 8 15 8.44772 15 9V19C15 19.5523 15.4477 20 16 20C16.5523 20 17 19.5523 17 19V9ZM7 6V5C7 3.34315 8.34315 2 10 2H14C15.6569 2 17 3.34315 17 5V6L17.0658 6C17.9523 5.99995 18.7161 5.99991 19.3278 6.08214C19.9833 6.17027 20.6117 6.36902 21.1213 6.87868C21.631 7.38834 21.8297 8.01669 21.9179 8.67221C22.0001 9.28387 22.0001 10.0477 22 10.9342V17.0658C22.0001 17.9523 22.0001 18.7161 21.9179 19.3278C21.8297 19.9833 21.631 20.6117 21.1213 21.1213C20.6117 21.631 19.9833 21.8297 19.3278 21.9179C18.7161 22.0001 17.9523 22.0001 17.0658 22H6.93417C6.04769 22.0001 5.28387 22.0001 4.67221 21.9179C4.0167 21.8297 3.38835 21.631 2.87868 21.1213C2.36902 20.6117 2.17028 19.9833 2.08215 19.3278C1.99991 18.7161 1.99995 17.9523 2 17.0658V10.9342C1.99995 10.0477 1.99991 9.28387 2.08215 8.67221C2.17028 8.01669 2.36902 7.38834 2.87868 6.87868C3.38835 6.36902 4.0167 6.17027 4.67221 6.08214C5.28387 5.99991 6.04769 5.99995 6.93417 6L7 6ZM9 5C9 4.44772 9.44772 4 10 4H14C14.5523 4 15 4.44772 15 5V6H9V5Z" fill="#323232"/>
</svg>
