<svg width="24" height="24" viewBox="0 0 24 24" fill="none" xmlns="http://www.w3.org/2000/svg">
<path d="M20 9C21.1046 9 22 9.89543 22 11V15.024C22 16.2771 21.9342 17.3524 21.7345 18.2508C21.5323 19.1607 21.1798 19.9494 20.5646 20.5646C19.9494 21.1798 19.1607 21.5323 18.2508 21.7345C17.3524 21.9342 16.2771 22 15.024 22H8.976C7.72287 22 6.64762 21.9342 5.74915 21.7345C4.83933 21.5323 4.05065 21.1798 3.43543 20.5646C2.82021 19.9494 2.46772 19.1607 2.26552 18.2508C2.06584 17.3524 2 16.2771 2 15.024V11C2 9.89543 2.89543 9 4 9L20 9Z" fill="#323232"/>
<path d="M9 5C9 6.10457 9.89543 7 11 7L20.6569 7C21.3362 7 21.8818 6.41224 21.7345 5.74915V5.74915C21.5323 4.83933 21.1798 4.05065 20.5646 3.43543C19.9494 2.82021 19.1607 2.46772 18.2508 2.26552C17.3524 2.06584 16.2771 2 15.024 2H11C9.89543 2 9 2.89543 9 4L9 5Z" fill="#323232"/>
<path d="M4.9998 6.99998C6.10437 6.99998 6.9998 6.10455 6.9998 4.99998L6.9998 3.34308C6.9998 2.66382 6.41203 2.11813 5.74895 2.2655V2.2655C4.83912 2.4677 4.05044 2.82019 3.43522 3.43541C2.82 4.05063 2.46751 4.83931 2.26531 5.74913V5.74913C2.11795 6.41222 2.66364 6.99998 3.3429 6.99998H4.9998Z" fill="#323232"/>
</svg>
