<svg width="24" height="24" viewBox="0 0 24 24" fill="none" xmlns="http://www.w3.org/2000/svg">
<path fill-rule="evenodd" clip-rule="evenodd" d="M8.93417 2C8.04768 1.99995 7.28387 1.99991 6.67221 2.08215C6.01669 2.17028 5.38834 2.36902 4.87868 2.87868C4.36902 3.38835 4.17027 4.0167 4.08214 4.67221C3.9999 5.28387 3.99995 6.04769 4 6.93417L4 20H3C2.44772 20 2 20.4477 2 21C2 21.5523 2.44772 22 3 22H21C21.5523 22 22 21.5523 22 21C22 20.4477 21.5523 20 21 20H20L20 6.93417C20.0001 6.04769 20.0001 5.28387 19.9179 4.67221C19.8297 4.0167 19.631 3.38835 19.1213 2.87868C18.6117 2.36902 17.9833 2.17028 17.3278 2.08215C16.7161 1.99991 15.9523 1.99995 15.0658 2H8.93417ZM11 8C11 8.55228 10.5523 9 10 9H9C8.44772 9 8 8.55228 8 8C8 7.44772 8.44772 7 9 7H10C10.5523 7 11 7.44772 11 8ZM10 13C10.5523 13 11 12.5523 11 12C11 11.4477 10.5523 11 10 11H9C8.44772 11 8 11.4477 8 12C8 12.5523 8.44772 13 9 13H10ZM11 16C11 16.5523 10.5523 17 10 17H9C8.44772 17 8 16.5523 8 16C8 15.4477 8.44772 15 9 15H10C10.5523 15 11 15.4477 11 16ZM15 9C15.5523 9 16 8.55228 16 8C16 7.44772 15.5523 7 15 7H14C13.4477 7 13 7.44772 13 8C13 8.55228 13.4477 9 14 9H15ZM16 12C16 12.5523 15.5523 13 15 13H14C13.4477 13 13 12.5523 13 12C13 11.4477 13.4477 11 14 11H15C15.5523 11 16 11.4477 16 12ZM15 17C15.5523 17 16 16.5523 16 16C16 15.4477 15.5523 15 15 15H14C13.4477 15 13 15.4477 13 16C13 16.5523 13.4477 17 14 17H15Z" fill="#000"/>
</svg>
