<svg width="24" height="24" viewBox="0 0 24 24" fill="none" xmlns="http://www.w3.org/2000/svg">
<path fill-rule="evenodd" clip-rule="evenodd" d="M12 6C8.68629 6 6 8.68629 6 12C6 13.6332 6.65387 15.1157 7.71186 16.1966C7.97971 16.4703 8.1241 16.7217 8.16867 16.9444L8.69776 19.5886C8.97833 20.9908 10.2095 22 11.6395 22H12.3605C13.7905 22 15.0217 20.9908 15.3022 19.5886L15.8313 16.9444C15.8759 16.7217 16.0203 16.4703 16.2881 16.1966C17.3461 15.1157 18 13.6332 18 12C18 8.68629 15.3137 6 12 6ZM11 16C10.4477 16 10 16.4477 10 17C10 17.5523 10.4477 18 11 18H13C13.5523 18 14 17.5523 14 17C14 16.4477 13.5523 16 13 16H11Z" fill="#323232"/>
</svg>
