<svg width="24" height="24" viewBox="0 0 24 24" fill="none" xmlns="http://www.w3.org/2000/svg">
<path d="M22 17.3828C22 17.2935 21.9409 17.2146 21.8543 17.1925C21.3043 17.0521 20.7345 17 20 17C19.4168 17 18.9866 17.1712 18.386 17.4225L18.3508 17.4372C17.7615 17.684 17.0068 18 16 18C14.9932 18 14.2384 17.684 13.6492 17.4372L13.614 17.4225C13.0134 17.1712 12.5832 17 12 17C11.4168 17 10.9866 17.1712 10.386 17.4225L10.3508 17.4372C9.76155 17.684 9.00682 18 8 18C6.99318 18 6.23845 17.684 5.64923 17.4372L5.61399 17.4225C5.01337 17.1712 4.58316 17 4 17C3.26549 17 2.69574 17.0521 2.14566 17.1925C2.05913 17.2146 2 17.2935 2 17.3828V18.0752C2 18.7002 2.03218 19.2706 2.14211 19.7653C2.25456 20.2713 2.46122 20.7571 2.85208 21.1479C3.24294 21.5388 3.72874 21.7454 4.23473 21.8579C4.72937 21.9678 5.29983 22 5.9248 22H18.0752C18.7002 22 19.2706 21.9678 19.7653 21.8579C20.2713 21.7454 20.7571 21.5388 21.1479 21.1479C21.5388 20.7571 21.7454 20.2713 21.8579 19.7653C21.9678 19.2706 22 18.7002 22 18.0752V17.3828Z" fill="#323232"/>
<path d="M5.92458 12C5.29961 12 4.72915 12.0322 4.23452 12.1421C3.72852 12.2546 3.24272 12.4612 2.85186 12.8521C2.461 13.2429 2.25435 13.7287 2.14189 14.2347C2.09474 14.4469 2.06189 14.673 2.03975 14.9115C2.02761 15.0421 2.14608 15.1452 2.27557 15.1238C2.80011 15.037 3.35782 15 3.99978 15C5.0066 15 5.76133 15.316 6.35055 15.5628L6.38579 15.5775C6.98641 15.8288 7.41662 16 7.99978 16C8.58295 16 9.01315 15.8288 9.61377 15.5775L9.64901 15.5628C10.2382 15.316 10.993 15 11.9998 15C13.0066 15 13.7613 15.316 14.3505 15.5628L14.3858 15.5775C14.9864 15.8288 15.4166 16 15.9998 16C16.5829 16 17.0132 15.8288 17.6138 15.5775L17.649 15.5628C18.2382 15.316 18.993 15 19.9998 15C20.6417 15 21.1995 15.037 21.724 15.1238C21.8535 15.1452 21.972 15.0421 21.9598 14.9115C21.9377 14.6731 21.9048 14.4469 21.8577 14.2347C21.7452 13.7287 21.5386 13.2429 21.1477 12.8521C20.7568 12.4612 20.271 12.2546 19.765 12.1421C19.2704 12.0322 18.6999 12 18.075 12H5.92458Z" fill="#323232"/>
<path d="M9.99979 7C9.99979 6.44772 9.55207 6 8.99979 6C8.4475 6 7.99979 6.44772 7.99979 7L7.99976 8L7.99979 8.01653C7.98647 8.01728 7.97318 8.01806 7.95993 8.01887C7.6543 8.03761 7.36654 8.07226 7.10115 8.13124C6.63073 8.23579 6.17161 8.42959 5.80052 8.80069C5.42942 9.17178 5.23562 9.6309 5.13107 10.1013C5.08234 10.3206 5.05022 10.5551 5.02996 10.8024C5.02014 10.9222 5.1207 11.0207 5.24081 11.0149C5.46801 11.004 5.69689 11 5.92468 11H18.0751C18.3028 11 18.5317 11.004 18.7589 11.0149C18.879 11.0207 18.9795 10.9222 18.9697 10.8024C18.9494 10.5551 18.9173 10.3206 18.8686 10.1013C18.764 9.6309 18.5702 9.17178 18.1991 8.80069C17.828 8.42959 17.3689 8.23579 16.8985 8.13124C16.632 8.07201 16.343 8.03732 16.0359 8.01864C16.0239 8.01791 16.0119 8.0172 15.9998 8.01652L15.9998 8L15.9998 7C15.9998 6.44772 15.5521 6 14.9998 6C14.4475 6 13.9998 6.44772 13.9998 7V7.9375V8H13.9373H13.0623H12.9998L12.9998 7.9375L12.9998 7C12.9998 6.44772 12.5521 6 11.9998 6C11.4475 6 10.9998 6.44772 10.9998 7V7.9375V8H10.9373H10.0623H9.99979V7.9375V7Z" fill="#323232"/>
</svg>
