<svg width="24" height="24" viewBox="0 0 24 24" fill="none" xmlns="http://www.w3.org/2000/svg">
<rect width="24" height="24" fill="white"/>
<path fill-rule="evenodd" clip-rule="evenodd" d="M3.64018 4.2318C3.21591 3.87824 2.58534 3.93556 2.23178 4.35984C1.87821 4.78412 1.93554 5.41468 2.35982 5.76825L3.28434 6.53872C2.69351 6.95061 2.25955 7.56935 2.08406 8.29334C1.99875 8.64532 1.99913 9.04286 1.99957 9.504L1.99964 16.0658C1.99959 16.9523 1.99954 17.7162 2.08178 18.3278C2.16991 18.9833 2.36866 19.6117 2.87832 20.1214C3.38798 20.631 4.01633 20.8298 4.67185 20.9179C5.28351 21.0001 6.04734 21.0001 6.93383 21H17.0654C17.9519 21.0001 18.7158 21.0001 19.3274 20.9179C19.6485 20.8747 19.963 20.805 20.2602 20.6853L20.3598 20.7682C20.7841 21.1218 21.4147 21.0645 21.7682 20.6402C22.1218 20.2159 22.0645 19.5854 21.6402 19.2318L3.64018 4.2318ZM14.6421 16.0034C13.9374 16.6238 13.0127 17.0001 12 17.0001C9.79086 17.0001 8 15.2092 8 13.0001C8 12.2476 8.20778 11.5437 8.56908 10.9425L10.1436 12.2546C10.051 12.4849 10 12.7365 10 13C10 14.1046 10.8954 15 12 15C12.3926 15 12.7588 14.8869 13.0677 14.6915L14.6421 16.0034Z" fill="#323232"/>
<path fill-rule="evenodd" clip-rule="evenodd" d="M21.9999 9.50393C21.9999 9.53745 21.9999 9.57132 21.9999 9.60552L21.9999 16C21.9999 16.5523 21.5522 17 20.9999 17C20.4476 17 19.9999 16.5523 19.9999 16L19.9999 9.60552C19.9999 8.98423 19.9928 8.85124 19.9717 8.7644C19.8835 8.40047 19.5994 8.11632 19.2354 8.02811C19.1486 8.00706 19.0156 7.99997 18.3943 7.99997C18.3761 7.99997 18.3579 7.99998 18.34 7.99999C18.0782 8.00014 17.8487 8.00028 17.6255 7.96682C16.9412 7.86424 16.3133 7.52823 15.8483 7.0157C15.6967 6.84854 15.5695 6.65752 15.4244 6.43965C15.4145 6.4247 15.4045 6.40962 15.3943 6.39442L15.1678 6.05467C14.7318 5.4006 14.6354 5.27991 14.5319 5.2018C14.4492 5.13936 14.3573 5.09017 14.2594 5.05597C14.1371 5.01319 13.9832 4.99997 13.1971 4.99997L9.90126 4.99997C9.67248 4.99997 9.45883 5.11431 9.33192 5.30467L9.08192 5.67967C8.77557 6.1392 8.1547 6.26337 7.69517 5.95702C7.23564 5.65067 7.11147 5.0298 7.41782 4.57027L7.66782 4.19527C8.16566 3.44851 9.00377 2.99997 9.90126 2.99997L13.1971 2.99997C13.2384 2.99997 13.2793 2.99992 13.3199 2.99986C13.9119 2.99907 14.4341 2.99838 14.9193 3.16797C15.2129 3.27056 15.4886 3.41815 15.7368 3.60547C16.1471 3.91512 16.4362 4.35 16.7639 4.84304C16.7864 4.87685 16.809 4.91094 16.8319 4.94527L17.0584 5.28502C17.2505 5.57314 17.2914 5.62971 17.3296 5.67188C17.4846 5.84272 17.6939 5.95473 17.922 5.98892C17.9783 5.99736 18.048 5.99997 18.3943 5.99997C18.4285 5.99997 18.4624 5.99994 18.4959 5.9999C18.957 5.99946 19.3546 5.99908 19.7066 6.08439C20.7984 6.34903 21.6508 7.20148 21.9154 8.29327C22.0008 8.64526 22.0004 9.0428 21.9999 9.50393Z" fill="#323232"/>
</svg>
