<svg width="24" height="24" viewBox="0 0 24 24" fill="none" xmlns="http://www.w3.org/2000/svg">
<path fill-rule="evenodd" clip-rule="evenodd" d="M10 10C10 8.89543 10.8954 8 12 8C13.1046 8 14 8.89543 14 10C14 11.1046 13.1046 12 12 12C10.8954 12 10 11.1046 10 10Z" fill="#323232"/>
<path fill-rule="evenodd" clip-rule="evenodd" d="M12 2C7.58172 2 4 5.58172 4 10C4 14.4183 7.58172 18 12 18C16.4183 18 20 14.4183 20 10C20 5.58172 16.4183 2 12 2ZM12 6C9.79086 6 8 7.79086 8 10C8 12.2091 9.79086 14 12 14C14.2091 14 16 12.2091 16 10C16 7.79086 14.2091 6 12 6Z" fill="#323232"/>
<path d="M7.26079 17.6525L6.70018 18.4C5.58772 19.8833 6.64608 22 8.50018 22H15.5002C17.3543 22 18.4126 19.8833 17.3002 18.4L16.7395 17.6525C15.3631 18.5067 13.7392 19 12.0001 19C10.2611 19 8.63718 18.5067 7.26079 17.6525Z" fill="#323232"/>
</svg>
