<svg width="24" height="24" viewBox="0 0 24 24" fill="none" xmlns="http://www.w3.org/2000/svg">
<path fill-rule="evenodd" clip-rule="evenodd" d="M12 6C12.5523 6 13 6.44772 13 7L13 16C13 16.5523 12.5523 17 12 17C11.4477 17 11 16.5523 11 16L11 7C11 6.44772 11.4477 6 12 6ZM16 8C16.5523 8 17 8.44772 17 9L17 16C17 16.5523 16.5523 17 16 17C15.4477 17 15 16.5523 15 16L15 9C15 8.44772 15.4477 8 16 8ZM9 11C9 10.4477 8.55229 10 8 10C7.44772 10 7 10.4477 7 11V16C7 16.5523 7.44772 17 8 17C8.55228 17 9 16.5523 9 16L9 11ZM7.25007 2.38782C8.54878 2.0992 10.1243 2 12 2C13.8757 2 15.4512 2.0992 16.7499 2.38782C18.06 2.67897 19.1488 3.176 19.9864 4.01358C20.824 4.85116 21.321 5.94002 21.6122 7.25007C21.9008 8.54878 22 10.1243 22 12C22 13.8757 21.9008 15.4512 21.6122 16.7499C21.321 18.06 20.824 19.1488 19.9864 19.9864C19.1488 20.824 18.06 21.321 16.7499 21.6122C15.4512 21.9008 13.8757 22 12 22C10.1243 22 8.54878 21.9008 7.25007 21.6122C5.94002 21.321 4.85116 20.824 4.01358 19.9864C3.176 19.1488 2.67897 18.06 2.38782 16.7499C2.0992 15.4512 2 13.8757 2 12C2 10.1243 2.0992 8.54878 2.38782 7.25007C2.67897 5.94002 3.176 4.85116 4.01358 4.01358C4.85116 3.176 5.94002 2.67897 7.25007 2.38782Z" fill="#323232"/>
</svg>
