<svg width="24" height="24" viewBox="0 0 24 24" fill="none" xmlns="http://www.w3.org/2000/svg">
<rect width="24" height="24" fill="white"/>
<path fill-rule="evenodd" clip-rule="evenodd" d="M16 11.968V12.032C16 12.4706 16 12.8491 15.9787 13.1624C15.9561 13.4922 15.9066 13.8221 15.7716 14.1481C15.4672 14.8831 14.8831 15.4672 14.148 15.7716C13.8221 15.9066 13.4922 15.9561 13.1624 15.9787C12.8491 16 12.4706 16 12.032 16H11.968C11.5294 16 11.1509 16 10.8376 15.9787C10.5078 15.9561 10.1779 15.9066 9.85195 15.7716C9.11687 15.4672 8.53284 14.8831 8.22836 14.1481C8.09336 13.8221 8.04385 13.4922 8.02135 13.1624C7.99998 12.8491 7.99999 12.4706 8 12.032V11.968C7.99999 11.5294 7.99998 11.1509 8.02135 10.8376C8.04385 10.5078 8.09336 10.1779 8.22836 9.85195C8.53284 9.11687 9.11687 8.53284 9.85195 8.22836C10.1779 8.09336 10.5078 8.04385 10.8376 8.02135C11.1509 7.99998 11.5294 7.99999 11.968 8H12.032C12.4706 7.99999 12.8491 7.99998 13.1624 8.02135C13.4922 8.04385 13.8221 8.09336 14.1481 8.22836C14.8831 8.53284 15.4672 9.11687 15.7716 9.85195C15.9066 10.1779 15.9561 10.5078 15.9787 10.8376C16 11.1509 16 11.5294 16 11.968ZM4 9L4 15H3C2.44772 15 2 15.4477 2 16C2 16.5523 2.44772 17 3 17H4.01233C4.01481 17.0559 4.01778 17.1101 4.02135 17.1624C4.04385 17.4922 4.09336 17.8221 4.22836 18.1481C4.53284 18.8831 5.11687 19.4672 5.85195 19.7716C6.17788 19.9066 6.50779 19.9561 6.83762 19.9787C6.88993 19.9822 6.94407 19.9852 7 19.9877V21C7 21.5523 7.44772 22 8 22C8.55228 22 9 21.5523 9 21V20H15V21C15 21.5523 15.4477 22 16 22C16.5523 22 17 21.5523 17 21V19.9877C17.0559 19.9852 17.1101 19.9822 17.1624 19.9787C17.4922 19.9561 17.8221 19.9066 18.1481 19.7716C18.8831 19.4672 19.4672 18.8831 19.7716 18.1481C19.9066 17.8221 19.9561 17.4922 19.9787 17.1624C19.9822 17.1101 19.9852 17.0559 19.9877 17H21C21.5523 17 22 16.5523 22 16C22 15.4477 21.5523 15 21 15H20V9H21C21.5523 9 22 8.55228 22 8C22 7.44772 21.5523 7 21 7H19.9877C19.9852 6.94407 19.9822 6.88993 19.9787 6.83762C19.9561 6.50779 19.9066 6.17788 19.7716 5.85195C19.4672 5.11687 18.8831 4.53284 18.1481 4.22836C17.8221 4.09336 17.4922 4.04385 17.1624 4.02135C17.1101 4.01778 17.0559 4.01481 17 4.01233V3C17 2.44772 16.5523 2 16 2C15.4477 2 15 2.44772 15 3V4L9 4V3C9 2.44772 8.55228 2 8 2C7.44772 2 7 2.44772 7 3V4.01233C6.94407 4.01481 6.88993 4.01778 6.83762 4.02135C6.50779 4.04385 6.17788 4.09336 5.85195 4.22836C5.11687 4.53284 4.53284 5.11686 4.22836 5.85195C4.09336 6.17788 4.04385 6.50779 4.02135 6.83762C4.01778 6.88993 4.01481 6.94407 4.01233 7H3C2.44772 7 2 7.44772 2 8C2 8.55229 2.44772 9 3 9H4Z" fill="#323232"/>
<path fill-rule="evenodd" clip-rule="evenodd" d="M13.9833 10.9738C13.9677 10.7458 13.9411 10.6589 13.9239 10.6173C13.8224 10.3723 13.6277 10.1776 13.3827 10.0761C13.3411 10.0589 13.2542 10.0323 13.0262 10.0167C12.7893 10.0005 12.4796 10 12 10C11.5204 10 11.2107 10.0005 10.9738 10.0167C10.7458 10.0323 10.6589 10.0589 10.6173 10.0761C10.3723 10.1776 10.1776 10.3723 10.0761 10.6173C10.0589 10.6589 10.0323 10.7458 10.0167 10.9738C10.0005 11.2107 10 11.5204 10 12C10 12.4796 10.0005 12.7893 10.0167 13.0262C10.0323 13.2542 10.0589 13.3411 10.0761 13.3827C10.1776 13.6277 10.3723 13.8224 10.6173 13.9239C10.6589 13.9411 10.7458 13.9677 10.9738 13.9833C11.2107 13.9995 11.5204 14 12 14C12.4796 14 12.7893 13.9995 13.0262 13.9833C13.2542 13.9677 13.3411 13.9411 13.3827 13.9239C13.6277 13.8224 13.8224 13.6277 13.9239 13.3827C13.9411 13.3411 13.9677 13.2542 13.9833 13.0262C13.9995 12.7893 14 12.4796 14 12C14 11.5204 13.9995 11.2107 13.9833 10.9738Z" fill="#323232"/>
</svg>
