<svg width="24" height="24" viewBox="0 0 24 24" fill="none" xmlns="http://www.w3.org/2000/svg">
<rect width="24" height="24" fill="white"/>
<path fill-rule="evenodd" clip-rule="evenodd" d="M2 12C2 6.47715 6.47715 2 12 2C17.5228 2 22 6.47715 22 12C22 17.5228 17.5228 22 12 22C6.47715 22 2 17.5228 2 12ZM15.8321 14.5547C15.5257 15.0142 14.9048 15.1384 14.4453 14.8321L11.8451 13.0986C11.3171 12.7466 11 12.1541 11 11.5196L11 11.5L11 7C11 6.44772 11.4477 6 12 6C12.5523 6 13 6.44772 13 7L13 11.4648L15.5547 13.1679C16.0142 13.4743 16.1384 14.0952 15.8321 14.5547Z" fill="#323232"/>
</svg>
