<svg width="24" height="24" viewBox="0 0 24 24" fill="none" xmlns="http://www.w3.org/2000/svg">
<rect width="24" height="24" fill="white"/>
<path fill-rule="evenodd" clip-rule="evenodd" d="M13.4472 12.1055C13.9412 12.3525 14.1414 12.9532 13.8944 13.4472L12.618 16H15C15.3466 16 15.6684 16.1794 15.8507 16.4742C16.0329 16.7691 16.0494 17.1372 15.8944 17.4472L13.8944 21.4472C13.6474 21.9412 13.0468 22.1414 12.5528 21.8944C12.0588 21.6474 11.8586 21.0467 12.1056 20.5528L13.382 18H11C10.6534 18 10.3316 17.8205 10.1494 17.5257C9.96714 17.2309 9.95058 16.8628 10.1056 16.5528L12.1056 12.5528C12.3526 12.0588 12.9532 11.8586 13.4472 12.1055Z" fill="#323232"/>
<path d="M9.75 2C5.43583 2 2 5.61631 2 10C2 14.0883 4.98846 17.5092 8.89076 17.9516C9.04866 17.9695 9.15917 17.798 9.10772 17.6476C8.93615 17.1463 8.96874 16.5904 9.21115 16.1056L11.2111 12.1056C11.7051 11.1176 12.9065 10.7172 13.8944 11.2111C14.8824 11.7051 15.2828 12.9065 14.7889 13.8944L14.3808 14.7106C14.3143 14.8435 14.411 15 14.5597 15H15C15.6932 15 16.3369 15.3589 16.7013 15.9485C17.0657 16.5382 17.0988 17.2744 16.7889 17.8944C16.7646 17.9429 16.7999 18 16.8541 18H17.25C19.9073 18 22 15.7766 22 13.1111C22 10.5124 20.0109 8.33391 17.4486 8.22638C17.3666 8.22294 17.2954 8.16578 17.2764 8.0859C16.449 4.61318 13.4153 2 9.75 2Z" fill="#323232"/>
</svg>
