<svg width="24" height="24" viewBox="0 0 24 24" fill="none" xmlns="http://www.w3.org/2000/svg">
<rect width="24" height="24" fill="white"/>
<path d="M9.75 2C5.43583 2 2 5.61631 2 10C2 12.8702 3.46667 15.3998 5.68559 16.8129C5.88136 16.9376 6.1052 17 6.3286 17H7.7C7.86569 17 8 16.8657 8 16.7V14C8 12.8954 8.89543 12 10 12C10.4751 12 10.9116 12.1657 11.2547 12.4424C11.3951 12.5557 11.6049 12.5557 11.7453 12.4424C12.0884 12.1657 12.5249 12 13 12C13.4751 12 13.9116 12.1657 14.2547 12.4424C14.3951 12.5557 14.6049 12.5557 14.7453 12.4424C15.0884 12.1657 15.5249 12 16 12C17.1046 12 18 12.8954 18 14V16.7C18 16.8657 18.1343 17 18.3 17H19.6815C19.982 17 20.2847 16.8866 20.5155 16.6616C21.4327 15.7678 22 14.5036 22 13.1111C22 10.5453 20.061 8.38918 17.5458 8.23146C17.4066 8.22274 17.287 8.12583 17.2531 7.99056C16.3933 4.56546 13.3817 2 9.75 2Z" fill="#323232"/>
<path fill-rule="evenodd" clip-rule="evenodd" d="M10 13C10.5523 13 11 13.4477 11 14V20C11 20.5523 10.5523 21 10 21C9.44772 21 9 20.5523 9 20V14C9 13.4477 9.44772 13 10 13Z" fill="#323232"/>
<path fill-rule="evenodd" clip-rule="evenodd" d="M13 13C13.5523 13 14 13.4477 14 14V21C14 21.5523 13.5523 22 13 22C12.4477 22 12 21.5523 12 21V14C12 13.4477 12.4477 13 13 13Z" fill="#323232"/>
<path fill-rule="evenodd" clip-rule="evenodd" d="M16 13C16.5523 13 17 13.4477 17 14V20C17 20.5523 16.5523 21 16 21C15.4477 21 15 20.5523 15 20V14C15 13.4477 15.4477 13 16 13Z" fill="#323232"/>
</svg>
