<svg width="24" height="24" viewBox="0 0 24 24" fill="none" xmlns="http://www.w3.org/2000/svg">
<rect width="24" height="24" fill="white"/>
<path d="M13 12C13.2729 12 13.5202 12.1093 13.7006 12.2865C13.7028 12.2886 13.705 12.2907 13.7071 12.2929L16.7071 15.2929C17.0976 15.6834 17.0976 16.3166 16.7071 16.7071C16.3166 17.0976 15.6834 17.0976 15.2929 16.7071L14 15.4142V21C14 21.5523 13.5523 22 13 22C12.4477 22 12 21.5523 12 21L12 15.4142L10.7071 16.7071C10.3166 17.0976 9.68342 17.0976 9.29289 16.7071C8.90237 16.3166 8.90237 15.6834 9.29289 15.2929L12.2926 12.2932C12.4802 12.1056 12.7348 12 13 12Z" fill="#323232"/>
<path d="M2 10C2 5.61631 5.43583 2 9.75 2C13.4089 2 16.4383 4.60401 17.272 8.06762C17.2938 8.15801 17.3739 8.22292 17.4668 8.22718C20.0202 8.3442 22 10.5186 22 13.1111C22 15.7766 19.9073 18 17.25 18H17.0051C16.936 18 16.8799 17.9439 16.8799 17.8748C16.8799 17.827 16.9073 17.7836 16.9494 17.7609C17.1163 17.6708 17.2732 17.5553 17.4142 17.4142C18.1953 16.6332 18.1953 15.3668 17.4142 14.5858L14.4152 11.5868C14.0532 11.2243 13.5528 11 13 11C12.4472 11 11.9468 11.2243 11.5848 11.5868L8.58579 14.5858C7.80474 15.3668 7.80474 16.6332 8.58579 17.4142C8.74604 17.5745 8.92672 17.7018 9.11945 17.7963C9.15152 17.8121 9.17249 17.8443 9.17249 17.88C9.17249 17.933 9.12704 17.9748 9.07425 17.9702C5.08252 17.6159 2 14.1522 2 10Z" fill="#323232"/>
</svg>
