<svg width="24" height="24" viewBox="0 0 24 24" fill="none" xmlns="http://www.w3.org/2000/svg">
<path d="M2 15.024C2 16.2771 2.06584 17.3524 2.26552 18.2508C2.46772 19.1607 2.82021 19.9493 3.43543 20.5646C4.05065 21.1798 4.83933 21.5323 5.74915 21.7345C6.64762 21.9342 7.72287 22 8.976 22L15.024 22C16.2771 22 17.3524 21.9342 18.2508 21.7345C19.1607 21.5323 19.9494 21.1798 20.5646 20.5646C21.1798 19.9494 21.5323 19.1607 21.7345 18.2508C21.9342 17.3524 22 16.2771 22 15.024L22 15C22 13.8954 21.1046 13 20 13L4 13C2.89543 13 2 13.8954 2 15L2 15.024Z" fill="#323232"/>
<path d="M2 8.976C2 7.72287 2.06584 6.64762 2.26552 5.74916C2.46772 4.83933 2.82021 4.05065 3.43543 3.43543C4.05065 2.82021 4.83933 2.46772 5.74915 2.26552C6.64762 2.06584 7.72287 2 8.976 2L9 2C10.1046 2 11 2.89543 11 4L11 9C11 10.1046 10.1046 11 9 11L4 11C2.89543 11 2 10.1046 2 9L2 8.976Z" fill="#323232"/>
<path d="M22 8.976C22 7.72287 21.9342 6.64762 21.7345 5.74916C21.5323 4.83933 21.1798 4.05065 20.5646 3.43543C19.9494 2.82021 19.1607 2.46772 18.2508 2.26552C17.3524 2.06584 16.2771 2 15.024 2L15 2C13.8954 2 13 2.89543 13 4L13 9C13 10.1046 13.8954 11 15 11L20 11C21.1046 11 22 10.1046 22 9L22 8.976Z" fill="#323232"/>
</svg>
