<svg width="24" height="24" viewBox="0 0 24 24" fill="none" xmlns="http://www.w3.org/2000/svg">
<path d="M13 9.00006C13 8.71682 13.1224 8.487 13.2539 8.37096C13.3152 8.31683 13.3672 8.29641 13.4023 8.28968C13.4321 8.28397 13.4801 8.28156 13.5577 8.31441C14.9948 8.92273 16 10.3452 16 12.0001C16 13.655 14.9948 15.0774 13.5577 15.6857C13.4801 15.7186 13.4321 15.7161 13.4023 15.7104C13.3672 15.7037 13.3152 15.6833 13.2539 15.6292C13.1224 15.5131 13 15.2833 13 15.0001V9.00006Z" fill="#323232"/>
<path fill-rule="evenodd" clip-rule="evenodd" d="M12 2C6.47715 2 2 6.47715 2 12C2 17.5228 6.47715 22 12 22C17.5228 22 22 17.5228 22 12C22 6.47715 17.5228 2 12 2ZM14.3373 6.47256C13.4346 6.09047 12.5449 6.3293 11.9307 6.8712C11.3428 7.38993 11 8.17867 11 9V15C11 15.8213 11.3428 16.6101 11.9307 17.1288C12.5449 17.6707 13.4346 17.9095 14.3373 17.5274C16.488 16.6171 18 14.4863 18 12C18 9.51373 16.488 7.38292 14.3373 6.47256Z" fill="#323232"/>
</svg>
