<svg width="24" height="24" viewBox="0 0 24 24" fill="none" xmlns="http://www.w3.org/2000/svg">
<path fill-rule="evenodd" clip-rule="evenodd" d="M5 2C3.34315 2 2 3.34315 2 5V19C2 20.6569 3.34315 22 5 22H17C18.6569 22 20 20.6569 20 19V5C20 3.34315 18.6569 2 17 2H5ZM11 8C8.79086 8 7 9.79086 7 12C7 14.2091 8.79086 16 11 16C13.2091 16 15 14.2091 15 12C15 9.79086 13.2091 8 11 8ZM8.34635 19.6816C8.73257 19.2671 9.42408 19 11 19C12.6151 19 13.2999 19.2611 13.6792 19.6753C14.0522 20.0826 14.6847 20.1105 15.0921 19.7375C15.4994 19.3646 15.5273 18.732 15.1543 18.3247C14.161 17.2398 12.6921 17 11 17C9.3188 17 7.87197 17.2568 6.88299 18.3184C6.50652 18.7225 6.52893 19.3552 6.93302 19.7317C7.33712 20.1081 7.96989 20.0857 8.34635 19.6816Z" fill="#323232"/>
<path d="M9 12C9 10.8954 9.89543 10 11 10C12.1046 10 13 10.8954 13 12C13 13.1046 12.1046 14 11 14C9.89543 14 9 13.1046 9 12Z" fill="#323232"/>
<path d="M19.6458 22H20C21.6568 22 23 20.6569 23 19V5C23 3.34315 21.6568 2 20 2H19.6458C20.4762 2.73294 21 3.80531 21 5V19C21 20.1947 20.4762 21.2671 19.6458 22Z" fill="#323232"/>
</svg>
