<svg width="24" height="24" viewBox="0 0 24 24" fill="none" xmlns="http://www.w3.org/2000/svg">
<path fill-rule="evenodd" clip-rule="evenodd" d="M5 19C5 18.4477 5.44772 18 6 18L18 18C18.5523 18 19 18.4477 19 19C19 19.5523 18.5523 20 18 20L6 20C5.44772 20 5 19.5523 5 19Z" fill="#323232"/>
<path fill-rule="evenodd" clip-rule="evenodd" d="M9.87892 4.70705C11.0505 3.53548 12.95 3.53547 14.1216 4.70705L16.688 7.27353C16.9924 7.57789 17.4574 7.65334 17.8424 7.46085L18.553 7.10552C20.0879 6.33807 21.7845 7.80948 21.2418 9.43749L19.4048 14.9486C18.9964 16.1737 17.85 16.9999 16.5587 16.9999H7.44176C6.15047 16.9999 5.00405 16.1737 4.59571 14.9486L2.75866 9.43749C2.21599 7.80949 3.91255 6.33807 5.44745 7.10552L6.15812 7.46085C6.54311 7.65334 7.00808 7.57789 7.31244 7.27353L9.87892 4.70705Z" fill="#323232"/>
</svg>
