<svg width="24" height="24" viewBox="0 0 24 24" fill="none" xmlns="http://www.w3.org/2000/svg">
<rect width="24" height="24" fill="white"/>
<path fill-rule="evenodd" clip-rule="evenodd" d="M21 7C21 5.3126 19.6581 4.05416 18.1041 3.27715C16.4902 2.47023 14.3307 2 12 2C9.66928 2 7.50977 2.47023 5.89593 3.27715C4.34191 4.05416 3 5.3126 3 7V17C3 18.6874 4.34191 19.9458 5.89593 20.7229C7.50977 21.5298 9.66928 22 12 22C14.3307 22 16.4902 21.5298 18.1041 20.7229C19.6581 19.9458 21 18.6874 21 17V7ZM5.12992 14.1529C5.40214 13.6724 6.01238 13.5035 6.49291 13.7757C7.77337 14.5011 9.738 15 12.0001 15C14.2621 15 16.2267 14.5011 17.5072 13.7757C17.9877 13.5035 18.598 13.6724 18.8702 14.1529C19.1424 14.6334 18.9736 15.2436 18.493 15.5159C16.8417 16.4514 14.5168 17 12.0001 17C9.48328 17 7.15841 16.4514 5.50709 15.5159C5.02656 15.2436 4.85769 14.6334 5.12992 14.1529ZM6.49283 8.77571C6.0123 8.50349 5.40207 8.67235 5.12984 9.15289C4.85762 9.63342 5.02648 10.2437 5.50702 10.5159C7.15833 11.4514 9.48321 12 12 12C14.5168 12 16.8416 11.4514 18.4929 10.5159C18.9735 10.2437 19.1423 9.63342 18.8701 9.15289C18.5979 8.67235 17.9877 8.50349 17.5071 8.77571C16.2267 9.50111 14.262 10 12 10C9.73792 10 7.77329 9.50111 6.49283 8.77571Z" fill="#323232"/>
</svg>
