<svg width="24" height="24" viewBox="0 0 24 24" fill="none" xmlns="http://www.w3.org/2000/svg">
<rect width="24" height="24" fill="white"/>
<path fill-rule="evenodd" clip-rule="evenodd" d="M6.93417 2C6.95604 2 6.97799 2 7 2L17.0658 2C17.9523 1.99995 18.7161 1.99991 19.3278 2.08215C19.9833 2.17028 20.6117 2.36902 21.1213 2.87868C21.631 3.38835 21.8297 4.0167 21.9179 4.67221C22.0001 5.28388 22.0001 6.0477 22 6.9342V13.0658C22.0001 13.9523 22.0001 14.7161 21.9179 15.3278C21.8297 15.9833 21.631 16.6117 21.1213 17.1213C20.6117 17.631 19.9833 17.8297 19.3278 17.9179C18.7161 18.0001 17.9523 18.0001 17.0658 18H6.93417C6.04769 18.0001 5.28387 18.0001 4.67221 17.9179C4.0167 17.8297 3.38835 17.631 2.87868 17.1213C2.36902 16.6117 2.17028 15.9833 2.08215 15.3278C1.99991 14.7161 1.99995 13.9523 2 13.0658L2 7C2 6.97799 2 6.95604 2 6.93417C1.99995 6.04769 1.99991 5.28387 2.08215 4.67221C2.17028 4.0167 2.36902 3.38835 2.87868 2.87868C3.38835 2.36902 4.0167 2.17028 4.67221 2.08215C5.28387 1.99991 6.04769 1.99995 6.93417 2ZM4 13C4 12.4477 4.44772 12 5 12H19C19.5523 12 20 12.4477 20 13C20 13.5523 19.5523 14 19 14H5C4.44772 14 4 13.5523 4 13Z" fill="#323232"/>
<path d="M15.7714 19H8.22829C7.75522 20.4163 8.79268 22 10.4035 22H13.5961C15.207 22 16.2445 20.4163 15.7714 19Z" fill="#323232"/>
</svg>
