<svg width="24" height="24" viewBox="0 0 24 24" fill="none" xmlns="http://www.w3.org/2000/svg">
<path fill-rule="evenodd" clip-rule="evenodd" d="M15.9577 3H8.04275H8.0427C7.56675 2.99998 7.14486 2.99995 6.78956 3.0324C6.40414 3.0676 6.02819 3.14535 5.65612 3.33907C5.28405 3.53279 5.00476 3.7962 4.7549 4.09176C4.52456 4.36423 4.28263 4.70989 4.00971 5.09982L4.0097 5.09983L3.9867 5.13269L3.38953 5.9858L3.35871 6.02983C2.97356 6.57997 2.63647 7.06146 2.40531 7.48984C2.15555 7.95269 1.97743 8.44362 1.99426 9.01492C2.0111 9.58621 2.21781 10.0658 2.49439 10.5131C2.75038 10.9272 3.11524 11.388 3.53211 11.9145L8.8643 18.6499L8.86441 18.65C9.21131 19.0882 9.50615 19.4607 9.76885 19.7453C10.0413 20.0406 10.3439 20.3151 10.7294 20.4954C11.5348 20.872 12.4657 20.872 13.2711 20.4954C13.6565 20.3151 13.9592 20.0406 14.2316 19.7453C14.4943 19.4607 14.7892 19.0882 15.1361 18.6499L20.4684 11.9145L20.4684 11.9145C20.8853 11.388 21.2501 10.9272 21.5061 10.5131C21.7827 10.0658 21.9894 9.58621 22.0062 9.01492C22.023 8.44362 21.8449 7.95269 21.5952 7.48984C21.364 7.06146 21.0269 6.57997 20.6418 6.02983L19.9908 5.09985C19.7179 4.7099 19.4759 4.36424 19.2456 4.09176C18.9957 3.7962 18.7164 3.53279 18.3444 3.33907C17.9723 3.14535 17.5963 3.0676 17.2109 3.0324C16.8556 2.99995 16.4337 2.99998 15.9578 3H15.9577ZM9.8323 8.0547C10.1386 7.59517 10.0145 6.9743 9.55494 6.66795C9.09541 6.3616 8.47455 6.48577 8.16819 6.9453L7.66819 7.6953C7.12598 8.50863 7.1833 9.58172 7.80908 10.3327L9.73202 12.6402C10.0856 13.0645 10.7162 13.1218 11.1404 12.7682C11.5647 12.4147 11.622 11.7841 11.2685 11.3598L9.34552 9.05229C9.28678 8.98179 9.28139 8.88105 9.3323 8.8047L9.8323 8.0547Z" fill="#323232"/>
</svg>
