<svg width="24" height="24" viewBox="0 0 24 24" fill="none" xmlns="http://www.w3.org/2000/svg">
<path fill-rule="evenodd" clip-rule="evenodd" d="M2 12C2 6.47715 6.47715 2 12 2C17.5228 2 22 6.47715 22 12C22 17.5228 17.5228 22 12 22C6.47715 22 2 17.5228 2 12ZM9.00006 9C9.55234 9 10.0001 9.44772 10.0001 10V10.0112C10.0001 10.5635 9.55234 11.0112 9.00006 11.0112C8.44777 11.0112 8.00006 10.5635 8.00006 10.0112V10C8.00006 9.44772 8.44777 9 9.00006 9ZM7.39948 16.7996C7.84107 17.1313 8.46793 17.0422 8.79962 16.6006C9.53108 15.6268 10.6924 15 12.0004 15C13.3084 15 14.4698 15.6268 15.2012 16.6006C15.5329 17.0422 16.1598 17.1313 16.6014 16.7996C17.043 16.4679 17.132 15.841 16.8004 15.3994C15.7074 13.9443 13.9641 13 12.0004 13C10.0368 13 8.29345 13.9443 7.20049 15.3994C6.8688 15.841 6.95789 16.4679 7.39948 16.7996ZM16.0001 10C16.0001 9.44772 15.5523 9 15.0001 9C14.4478 9 14.0001 9.44772 14.0001 10V10.0112C14.0001 10.5635 14.4478 11.0112 15.0001 11.0112C15.5523 11.0112 16.0001 10.5635 16.0001 10.0112V10Z" fill="#323232"/>
</svg>
