<svg width="24" height="24" viewBox="0 0 24 24" fill="none" xmlns="http://www.w3.org/2000/svg">
<path fill-rule="evenodd" clip-rule="evenodd" d="M12 2C6.47715 2 2 6.47715 2 12C2 17.5228 6.47715 22 12 22C17.5228 22 22 17.5228 22 12C22 6.47715 17.5228 2 12 2ZM9 9C8.44772 9 8 9.44772 8 10C8 10.5523 8.44772 11 9 11H10.7192L11.2192 13H9C8.44772 13 8 13.4477 8 14C8 14.5523 8.44772 15 9 15H11.7192L12.0299 16.2425C12.1638 16.7783 12.7067 17.1041 13.2425 16.9701C13.7783 16.8362 14.1041 16.2933 13.9701 15.7575L13.7808 15H15C15.5523 15 16 14.5523 16 14C16 13.4477 15.5523 13 15 13H13.2808L12.7808 11H15C15.5523 11 16 10.5523 16 10C16 9.44772 15.5523 9 15 9H12.2808L11.9701 7.75746C11.8362 7.22167 11.2933 6.89591 10.7575 7.02986C10.2217 7.16381 9.89591 7.70674 10.0299 8.24254L10.2192 9H9Z" fill="#000"/>
</svg>
