<svg width="24" height="24" viewBox="0 0 24 24" fill="none" xmlns="http://www.w3.org/2000/svg">
<path fill-rule="evenodd" clip-rule="evenodd" d="M12 2C10.1243 2 8.54878 2.0992 7.25007 2.38782C5.94002 2.67897 4.85116 3.176 4.01358 4.01358C3.176 4.85116 2.67897 5.94002 2.38782 7.25007C2.0992 8.54878 2 10.1243 2 12C2 13.8757 2.0992 15.4512 2.38782 16.7499C2.67897 18.06 3.176 19.1488 4.01358 19.9864C4.85116 20.824 5.94002 21.321 7.25007 21.6122C8.54878 21.9008 10.1243 22 12 22C13.8757 22 15.4512 21.9008 16.7499 21.6122C18.06 21.321 19.1488 20.824 19.9864 19.9864C20.824 19.1488 21.321 18.06 21.6122 16.7499C21.9008 15.4512 22 13.8757 22 12C22 10.1243 21.9008 8.54878 21.6122 7.25007C21.321 5.94002 20.824 4.85116 19.9864 4.01358C19.1488 3.176 18.06 2.67897 16.7499 2.38782C15.4512 2.0992 13.8757 2 12 2ZM9 9C8.44772 9 8 9.44772 8 10C8 10.5523 8.44772 11 9 11H10.7192L11.2192 13H9C8.44772 13 8 13.4477 8 14C8 14.5523 8.44772 15 9 15H11.7192L12.0299 16.2425C12.1638 16.7783 12.7067 17.1041 13.2425 16.9701C13.7783 16.8362 14.1041 16.2933 13.9701 15.7575L13.7808 15H15C15.5523 15 16 14.5523 16 14C16 13.4477 15.5523 13 15 13H13.2808L12.7808 11H15C15.5523 11 16 10.5523 16 10C16 9.44772 15.5523 9 15 9H12.2808L11.9701 7.75746C11.8362 7.22167 11.2933 6.89591 10.7575 7.02986C10.2217 7.16381 9.89591 7.70674 10.0299 8.24254L10.2192 9H9Z" fill="#000"/>
</svg>
