<svg width="24" height="24" viewBox="0 0 24 24" fill="none" xmlns="http://www.w3.org/2000/svg">
<path fill-rule="evenodd" clip-rule="evenodd" d="M5.96802 2H18.032H18.032C18.4707 1.99999 18.8491 1.99998 19.1624 2.02135C19.4922 2.04386 19.8221 2.09336 20.1481 2.22836C20.8831 2.53284 21.4672 3.11687 21.7716 3.85195C21.9066 4.17788 21.9561 4.50779 21.9787 4.83762C22 5.15088 22 5.52936 22 5.96801V18.032C22 18.4706 22 18.8491 21.9787 19.1624C21.9561 19.4922 21.9066 19.8221 21.7716 20.1481C21.4672 20.8831 20.8831 21.4672 20.1481 21.7716C19.8221 21.9066 19.4922 21.9561 19.1624 21.9787C18.8491 22 18.4706 22 18.032 22H5.96801C5.52936 22 5.15088 22 4.83762 21.9787C4.50779 21.9561 4.17788 21.9066 3.85195 21.7716C3.11687 21.4672 2.53284 20.8831 2.22836 20.1481C2.09336 19.8221 2.04386 19.4922 2.02135 19.1624C1.99998 18.8491 1.99999 18.4707 2 18.032V18.032V5.96802V5.96797C1.99999 5.52934 1.99998 5.15087 2.02135 4.83762C2.04386 4.50779 2.09336 4.17788 2.22836 3.85195C2.53284 3.11687 3.11687 2.53284 3.85195 2.22836C4.17788 2.09336 4.50779 2.04386 4.83762 2.02135C5.15087 1.99998 5.52934 1.99999 5.96797 2H5.96802ZM17.2929 5.29289C17.6834 4.90237 18.3166 4.90237 18.7071 5.29289C19.0976 5.68342 19.0976 6.31658 18.7071 6.70711L6.70711 18.7071C6.31658 19.0976 5.68342 19.0976 5.29289 18.7071C4.90237 18.3166 4.90237 17.6834 5.29289 17.2929L17.2929 5.29289ZM9.5 6C9.5 5.44772 9.05228 5 8.5 5C7.94772 5 7.5 5.44772 7.5 6V7.5H6C5.44772 7.5 5 7.94771 5 8.5C5 9.05228 5.44772 9.5 6 9.5L7.5 9.5V11C7.5 11.5523 7.94772 12 8.5 12C9.05228 12 9.5 11.5523 9.5 11V9.5L11 9.5C11.5523 9.5 12 9.05228 12 8.5C12 7.94772 11.5523 7.5 11 7.5H9.5V6ZM13 17L18 17C18.5523 17 19 16.5523 19 16C19 15.4477 18.5523 15 18 15L13 15C12.4477 15 12 15.4477 12 16C12 16.5523 12.4477 17 13 17Z" fill="#000"/>
</svg>
