<svg width="24" height="24" viewBox="0 0 24 24" fill="none" xmlns="http://www.w3.org/2000/svg">
<path fill-rule="evenodd" clip-rule="evenodd" d="M16.7071 7.29289C17.0976 7.68342 17.0976 8.31658 16.7071 8.70711L3.70711 21.7071C3.31658 22.0976 2.68342 22.0976 2.29289 21.7071C1.90237 21.3166 1.90237 20.6834 2.29289 20.2929L15.2929 7.29289C15.6834 6.90237 16.3166 6.90237 16.7071 7.29289Z" fill="#323232"/>
<path d="M11.7966 18.287L20.4649 9.55132C22.4884 7.51917 22.3791 4.89732 20.9078 3.30651C20.187 2.52715 19.1611 2.02873 17.996 2.00121C16.8274 1.9736 15.5961 2.41952 14.4408 3.38615C14.4171 3.40595 14.3944 3.42684 14.3727 3.44875L5.69666 12.1922C5.13907 12.7541 4.82617 13.5136 4.82617 14.3053V16.3453L14.5858 6.58573C15.3668 5.80468 16.6332 5.80468 17.4142 6.58572C18.1953 7.36677 18.1953 8.6331 17.4142 9.41415L7.65451 19.1739L9.66706 19.1739C10.4667 19.1739 11.2333 18.8546 11.7966 18.287Z" fill="#323232"/>
</svg>
