<svg width="24" height="24" viewBox="0 0 24 24" fill="none" xmlns="http://www.w3.org/2000/svg">
<path fill-rule="evenodd" clip-rule="evenodd" d="M12 2C12.5523 2 13 2.44772 13 3L13 21C13 21.5523 12.5523 22 12 22C11.4477 22 11 21.5523 11 21L11 3C11 2.44772 11.4477 2 12 2Z" fill="#323232"/>
<path fill-rule="evenodd" clip-rule="evenodd" d="M6.05135 8.6838C6.5942 7.05533 9.00008 7.44578 9.00008 9.16234L9.00003 20C9.00005 21.1046 8.10453 22 7.00003 22L5.00003 22C3.33355 22 2.15682 20.3674 2.6838 18.7864L6.05135 8.6838Z" fill="#323232"/>
<path fill-rule="evenodd" clip-rule="evenodd" d="M17.9486 8.6838C17.4058 7.05533 14.9999 7.44578 14.9999 9.16234L15 20C14.9999 21.1046 15.8955 22 17 22L19 22C20.6664 22 21.8432 20.3674 21.3162 18.7864L17.9486 8.6838Z" fill="#323232"/>
</svg>
