<svg width="24" height="24" viewBox="0 0 24 24" fill="none" xmlns="http://www.w3.org/2000/svg">
<path fill-rule="evenodd" clip-rule="evenodd" d="M22 12C22 12.5523 21.5523 13 21 13L3 13C2.44772 13 2 12.5523 2 12C2 11.4477 2.44772 11 3 11L21 11C21.5523 11 22 11.4477 22 12Z" fill="#323232"/>
<path fill-rule="evenodd" clip-rule="evenodd" d="M15.3164 6.05135C16.9449 6.5942 16.5545 9.00008 14.8379 9.00008L4.00025 9.00003C2.89563 9.00005 2.0002 8.10453 2.0002 7.00003L2.0002 5.00003C2.0002 3.33355 3.63284 2.15681 5.2138 2.6838L15.3164 6.05135Z" fill="#323232"/>
<path fill-rule="evenodd" clip-rule="evenodd" d="M15.3164 17.9486C16.9449 17.4058 16.5545 14.9999 14.8379 14.9999L4.00025 15C2.89563 14.9999 2.0002 15.8955 2.0002 17L2.0002 19C2.0002 20.6664 3.63284 21.8432 5.2138 21.3162L15.3164 17.9486Z" fill="#323232"/>
</svg>
