<svg width="24" height="24" viewBox="0 0 24 24" fill="none" xmlns="http://www.w3.org/2000/svg">
<path fill-rule="evenodd" clip-rule="evenodd" d="M5.41959 3.23866C6.23018 3.05852 7.19557 3 8.312 3H9.92963C10.9327 3 11.8694 3.5013 12.4258 4.3359L13.2383 5.5547C13.4238 5.83288 13.736 6 14.0704 6H19.1258C20.7233 6 22.0181 7.26115 22.0029 8.8852C21.9847 10.8192 22 12.7539 22 14.688C22 15.8044 21.9415 16.7698 21.7613 17.5804C21.5787 18.4024 21.2579 19.1251 20.6915 19.6915C20.1251 20.2579 19.4024 20.5787 18.5804 20.7613C17.7698 20.9415 16.8044 21 15.688 21H8.312C7.19557 21 6.23018 20.9415 5.41959 20.7613C4.59764 20.5787 3.87488 20.2579 3.30848 19.6915C2.74209 19.1251 2.42133 18.4024 2.23866 17.5804C2.05852 16.7698 2 15.8044 2 14.688V9.312C2 8.19557 2.05852 7.23018 2.23866 6.41959C2.42133 5.59764 2.74209 4.87488 3.30848 4.30848C3.87488 3.74209 4.59764 3.42133 5.41959 3.23866ZM13 11C13 10.4477 12.5523 10 12 10C11.4477 10 11 10.4477 11 11L11 14.0858L10.2071 13.2929C9.81658 12.9024 9.18342 12.9024 8.79289 13.2929C8.40237 13.6834 8.40237 14.3166 8.79289 14.7071L11.2304 17.1446C11.2411 17.1553 11.252 17.1658 11.2631 17.176C11.4459 17.3751 11.7083 17.5 12 17.5C12.2917 17.5 12.5541 17.3751 12.7369 17.176C12.748 17.1658 12.7589 17.1553 12.7696 17.1446L15.2071 14.7071C15.5976 14.3166 15.5976 13.6834 15.2071 13.2929C14.8166 12.9024 14.1834 12.9024 13.7929 13.2929L13 14.0858V11Z" fill="#323232"/>
</svg>
