<svg width="24" height="24" viewBox="0 0 24 24" fill="none" xmlns="http://www.w3.org/2000/svg">
<rect width="24" height="24" fill="white"/>
<path fill-rule="evenodd" clip-rule="evenodd" d="M10.7071 10.2929C10.3166 9.90237 9.68342 9.90237 9.29289 10.2929C8.90237 10.6834 8.90237 11.3166 9.29289 11.7071L11.0858 13.5L9.29289 15.2929C8.90237 15.6834 8.90237 16.3166 9.29289 16.7071C9.68342 17.0976 10.3166 17.0976 10.7071 16.7071L12.5 14.9142L14.2929 16.7071C14.6834 17.0976 15.3166 17.0976 15.7071 16.7071C16.0976 16.3166 16.0976 15.6834 15.7071 15.2929L13.9142 13.5L15.7071 11.7071C16.0976 11.3166 16.0976 10.6834 15.7071 10.2929C15.3166 9.90237 14.6834 9.90237 14.2929 10.2929L12.5 12.0858L10.7071 10.2929ZM5.41959 3.23866C6.23018 3.05852 7.19557 3 8.312 3H9.92963C10.9327 3 11.8694 3.5013 12.4258 4.3359L13.2383 5.5547C13.4238 5.83288 13.736 6 14.0704 6H19.1258C20.7233 6 22.0181 7.26115 22.0029 8.8852C21.9847 10.8192 22 12.7539 22 14.688C22 15.8044 21.9415 16.7698 21.7613 17.5804C21.5787 18.4024 21.2579 19.1251 20.6915 19.6915C20.1251 20.2579 19.4024 20.5787 18.5804 20.7613C17.7698 20.9415 16.8044 21 15.688 21H8.312C7.19557 21 6.23018 20.9415 5.41959 20.7613C4.59764 20.5787 3.87488 20.2579 3.30848 19.6915C2.74209 19.1251 2.42133 18.4024 2.23866 17.5804C2.05852 16.7698 2 15.8044 2 14.688V9.312C2 8.19557 2.05852 7.23018 2.23866 6.41959C2.42133 5.59764 2.74209 4.87488 3.30848 4.30848C3.87488 3.74209 4.59764 3.42133 5.41959 3.23866Z" fill="#323232"/>
</svg>
