<svg width="24" height="24" viewBox="0 0 24 24" fill="none" xmlns="http://www.w3.org/2000/svg">
<path fill-rule="evenodd" clip-rule="evenodd" d="M22 9.93417L22 10L22 14.0658C22.0001 14.9523 22.0001 15.7161 21.9179 16.3278C21.8297 16.9833 21.631 17.6117 21.1213 18.1213C20.6117 18.631 19.9833 18.8297 19.3278 18.9179C18.7161 19.0001 17.9523 19.0001 17.0658 19H6.93418C6.04769 19.0001 5.28388 19.0001 4.67222 18.9179C4.0167 18.8297 3.38835 18.631 2.87869 18.1213C2.36902 17.6117 2.17028 16.9833 2.08215 16.3278C1.99991 15.7161 1.99995 14.9523 2 14.0658V14.0658V9.9342V9.93418C1.99995 9.04769 1.99991 8.28387 2.08215 7.67221C2.17028 7.0167 2.36902 6.38835 2.87869 5.87868C3.38835 5.36902 4.0167 5.17028 4.67222 5.08215C5.28388 4.99991 6.04769 4.99995 6.93418 5L17 5L17.0658 5C17.9523 4.99995 18.7161 4.99991 19.3278 5.08215C19.9833 5.17028 20.6117 5.36902 21.1213 5.87868C21.631 6.38835 21.8297 7.0167 21.9179 7.67221C22.0001 8.28387 22.0001 9.04769 22 9.93417ZM15 9C15.5523 9 16 9.44772 16 10V10.01C16 10.5623 15.5523 11.01 15 11.01C14.4477 11.01 14 10.5623 14 10.01V10C14 9.44772 14.4477 9 15 9ZM18 14C18 13.4477 17.5523 13 17 13C16.4477 13 16 13.4477 16 14V14.01C16 14.5623 16.4477 15.01 17 15.01C17.5523 15.01 18 14.5623 18 14.01V14ZM8.50001 8.5C9.0523 8.5 9.50001 8.94772 9.50001 9.5V11H11C11.5523 11 12 11.4477 12 12C12 12.5523 11.5523 13 11 13L9.50001 13V14.5C9.50001 15.0523 9.0523 15.5 8.50002 15.5C7.94773 15.5 7.50001 15.0523 7.50001 14.5V13L6.00001 13C5.44773 13 5.00001 12.5523 5.00001 12C5.00001 11.4477 5.44773 11 6.00001 11H7.50001V9.5C7.50001 8.94772 7.94773 8.5 8.50001 8.5Z" fill="#323232"/>
</svg>
