<svg width="24" height="24" viewBox="0 0 24 24" fill="none" xmlns="http://www.w3.org/2000/svg">
<path fill-rule="evenodd" clip-rule="evenodd" d="M3 16.3168L3 13.4642C3.37228 13.6792 3.78288 13.8362 4.21973 13.9231C4.61143 14.001 5.02655 14.0005 5.37106 14L5.417 14C9.80567 13.9965 14.1944 13.9965 18.5831 14L18.629 14C18.9735 14.0005 19.3886 14.001 19.7803 13.9231C20.2171 13.8362 20.6277 13.6792 21 13.4642L21 16.3168C21 17.1582 21.0001 17.8832 20.9179 18.4637C20.8297 19.0859 20.631 19.6823 20.1213 20.166C19.6117 20.6497 18.9833 20.8384 18.3278 20.922C17.7161 21.0001 16.9523 21 16.0658 21H7.93417C7.04768 21 6.28387 21.0001 5.67221 20.922C5.0167 20.8384 4.38835 20.6497 3.87868 20.166C3.36902 19.6823 3.17028 19.0859 3.08215 18.4637C2.99991 17.8832 2.99995 17.1582 3 16.3168ZM13 17C13 16.4477 12.5523 16 12 16C11.4477 16 11 16.4477 11 17V18C11 18.5523 11.4477 19 12 19C12.5523 19 13 18.5523 13 18V17Z" fill="#000"/>
<path fill-rule="evenodd" clip-rule="evenodd" d="M5.71099 2.87475C4.81028 3.77546 4.64197 4.98504 5.0038 6.00293C4.7912 6.008 4.59628 6.02163 4.41479 6.05773C3.22473 6.29444 2.29445 7.22471 2.05773 8.41476C1.99948 8.70761 1.99974 9.03544 2.00004 9.41613L2.00009 9.5L2.00004 9.58387C1.99974 9.96456 1.99948 10.2924 2.05773 10.5852C2.29445 11.7753 3.22473 12.7056 4.41479 12.9423C4.70765 13.0005 5.03548 13.0003 5.41617 13C9.80538 12.9965 14.1946 12.9965 18.5838 13C18.9645 13.0003 19.2924 13.0005 19.5852 12.9423C20.7753 12.7056 21.7056 11.7753 21.9423 10.5852C22.0005 10.2924 22.0003 9.9646 22 9.58393L21.9999 9.5L22 9.4161C22.0003 9.03544 22.0005 8.70759 21.9423 8.41476C21.7056 7.22471 20.7753 6.29445 19.5852 6.05773C19.4037 6.02163 19.2088 6.008 18.9961 6.00293C19.3579 4.98504 19.1896 3.77546 18.2889 2.87475C17.0258 1.61166 14.9413 1.72259 13.8232 3.12018L12 5.39921L10.1767 3.12018C9.05866 1.72259 6.97408 1.61166 5.71099 2.87475ZM12 7C11.4477 7 11 7.44772 11 8V10C11 10.5523 11.4477 11 12 11C12.5523 11 13 10.5523 13 10V8C13 7.44772 12.5523 7 12 7ZM7.82839 6C6.9434 6 6.49105 4.92312 7.1252 4.28897C7.54788 3.86629 8.24376 3.90552 8.61499 4.36957L9.91933 6H7.82839ZM16.1715 6C17.0565 6 17.5089 4.92312 16.8747 4.28897C16.452 3.86629 15.7562 3.90552 15.3849 4.36957L14.0806 6H16.1715Z" fill="#000"/>
</svg>
