<svg width="24" height="24" viewBox="0 0 24 24" fill="none" xmlns="http://www.w3.org/2000/svg">
<path fill-rule="evenodd" clip-rule="evenodd" d="M12 2C10.1243 2 8.54878 2.0992 7.25007 2.38782C5.94002 2.67897 4.85116 3.176 4.01358 4.01358C3.176 4.85116 2.67897 5.94002 2.38782 7.25007C2.0992 8.54878 2 10.1243 2 12C2 13.8757 2.0992 15.4512 2.38782 16.7499C2.67897 18.06 3.176 19.1488 4.01358 19.9864C4.85116 20.824 5.94002 21.321 7.25007 21.6122C8.54878 21.9008 10.1243 22 12 22C13.8757 22 15.4512 21.9008 16.7499 21.6122C18.06 21.321 19.1488 20.824 19.9864 19.9864C20.824 19.1488 21.321 18.06 21.6122 16.7499C21.9008 15.4512 22 13.8757 22 12C22 10.1243 21.9008 8.54878 21.6122 7.25007C21.321 5.94002 20.824 4.85116 19.9864 4.01358C19.1488 3.176 18.06 2.67897 16.7499 2.38782C15.4512 2.0992 13.8757 2 12 2ZM14.8546 15.4389C13.9021 18.0847 10.0568 17.7446 9.58356 14.9727C9.531 14.6648 9.28986 14.4237 8.98202 14.3711C6.21007 13.8979 5.86993 10.0526 8.51577 9.10011L12.422 7.69388C14.8104 6.83406 17.1206 9.14432 16.2608 11.5327L14.8546 15.4389ZM9.31862 12.3996C10.4631 12.5951 11.3596 13.4916 11.555 14.6361C11.6823 15.3816 12.7166 15.4731 12.9728 14.7615L14.379 10.8553C14.6656 10.0591 13.8956 9.28905 13.0994 9.57565L9.19321 10.9819C8.48155 11.2381 8.57304 12.2724 9.31862 12.3996Z" fill="#323232"/>
</svg>
