<svg width="24" height="24" viewBox="0 0 24 24" fill="none" xmlns="http://www.w3.org/2000/svg">
<path d="M11.5551 14.636C11.6824 15.3816 12.7167 15.4731 12.9729 14.7614L14.3791 10.8552C14.6658 10.0591 13.8957 9.28897 13.0995 9.57557L9.19332 10.9818C8.48166 11.238 8.57315 12.2723 9.31873 12.3996C10.4632 12.595 11.3597 13.4915 11.5551 14.636Z" fill="#323232"/>
<path fill-rule="evenodd" clip-rule="evenodd" d="M12 2C6.47715 2 2 6.47715 2 12C2 17.5228 6.47715 22 12 22C17.5228 22 22 17.5228 22 12C22 6.47715 17.5228 2 12 2ZM14.8547 15.4389C13.9022 18.0847 10.0569 17.7446 9.58368 14.9726C9.53113 14.6648 9.28999 14.4236 8.98215 14.3711C6.2102 13.8978 5.87005 10.0526 8.51589 9.10005L12.4221 7.69382C14.8105 6.834 17.1207 9.14426 16.2609 11.5326L14.8547 15.4389Z" fill="#323232"/>
</svg>
