<svg width="24" height="24" viewBox="0 0 24 24" fill="none" xmlns="http://www.w3.org/2000/svg">
<path fill-rule="evenodd" clip-rule="evenodd" d="M3.70711 2.29289C3.31658 1.90237 2.68342 1.90237 2.29289 2.29289C1.90237 2.68342 1.90237 3.31658 2.29289 3.70711L3.48127 4.89549C3.02111 5.43072 2.65769 6.05086 2.40602 6.72315C2.13731 7.44093 2 8.20727 2 8.9792C2 9.75113 2.13731 10.5175 2.40602 11.2352C2.67474 11.9531 3.07086 12.6115 3.57613 13.1705L9.77429 20.0287C10.9654 21.3467 13.0346 21.3467 14.2257 20.0287L16.3092 17.7234L18.2929 19.7071C18.6834 20.0976 19.3166 20.0976 19.7071 19.7071C20.0976 19.3166 20.0976 18.6834 19.7071 18.2929L3.70711 2.29289Z" fill="#323232"/>
<path d="M12.5759 4.78786C13.5977 3.65724 15.0066 3 16.4998 3C17.993 3 19.4019 3.65724 20.4237 4.78786C21.4425 5.91514 21.9998 7.42423 21.9998 8.97919C21.9998 10.5341 21.4425 12.0432 20.4237 13.1705L19.52 14.1705C19.1496 14.5802 18.5173 14.6122 18.1075 14.2419C17.6978 13.8716 17.6658 13.2392 18.0361 12.8295L18.9399 11.8295C19.6089 11.0892 19.9998 10.0654 19.9998 8.97919C19.9998 7.89302 19.6089 6.86916 18.9399 6.12888C18.2739 5.39194 17.3935 5 16.4998 5C15.6061 5 14.7257 5.39194 14.0597 6.12888C12.9573 7.34867 11.0423 7.34867 9.93993 6.12888C9.60964 5.76342 9.22307 5.47956 8.80527 5.28808C8.30321 5.05797 8.08275 4.46443 8.31285 3.96236C8.54296 3.4603 9.13651 3.23983 9.63857 3.46994C10.3127 3.77891 10.9183 4.2286 11.4237 4.78787C11.732 5.129 12.2676 5.129 12.5759 4.78786Z" fill="#323232"/>
</svg>
