<svg width="24" height="24" viewBox="0 0 24 24" fill="none" xmlns="http://www.w3.org/2000/svg">
<path fill-rule="evenodd" clip-rule="evenodd" d="M10.6285 4.22788C9.2835 3.20464 7.74905 2.78911 6.27966 3.10142C4.81008 3.41378 3.56197 4.4208 2.72271 5.93485C1.16856 8.73856 2.33054 11.5806 4.13352 13.6183L9.75326 19.9698C10.9472 21.3192 13.0529 21.3192 14.2468 19.9698L19.8666 13.6183C21.6696 11.5806 22.8315 8.73856 21.2774 5.93485C20.4381 4.4208 19.19 3.41378 17.7204 3.10142C16.251 2.78911 14.7166 3.20464 13.3716 4.22788C12.8355 4.63576 12.3629 5.07555 12 5.44205C11.6372 5.07555 11.1646 4.63576 10.6285 4.22788ZM12.4487 8.81623C12.6233 8.29228 12.3402 7.72596 11.8162 7.55132C11.2923 7.37667 10.726 7.65983 10.5513 8.18377L10.0513 9.68377C9.95373 9.97653 9.99677 10.2979 10.1679 10.5547L11.7981 13L10.1679 15.4453C9.8616 15.9048 9.98577 16.5257 10.4453 16.8321C10.9048 17.1384 11.5257 17.0142 11.8321 16.5547L13.8321 13.5547C14.056 13.2188 14.056 12.7812 13.8321 12.4453L12.1033 9.85224L12.4487 8.81623Z" fill="#000"/>
</svg>
