<svg width="24" height="24" viewBox="0 0 24 24" fill="none" xmlns="http://www.w3.org/2000/svg">
<path fill-rule="evenodd" clip-rule="evenodd" d="M10.6287 4.22788C9.28374 3.20464 7.7493 2.78911 6.27991 3.10142C4.81032 3.41378 3.56222 4.4208 2.72295 5.93485C1.1688 8.73856 2.33078 11.5806 4.13376 13.6183L9.75351 19.9698C10.9475 21.3192 13.0531 21.3192 14.2471 19.9698L19.8668 13.6183C21.6698 11.5806 22.8318 8.73856 21.2776 5.93485C20.4384 4.4208 19.1903 3.41378 17.7207 3.10142C16.2513 2.78911 14.7168 3.20464 13.3719 4.22788C12.8357 4.63576 12.3632 5.07555 12.0003 5.44205C11.6374 5.07555 11.1648 4.63576 10.6287 4.22788ZM12.4489 8.81623C12.6236 8.29228 12.3404 7.72596 11.8165 7.55132C11.2925 7.37667 10.7262 7.65983 10.5516 8.18377L10.0516 9.68377C9.95398 9.97653 9.99702 10.2979 10.1682 10.5547L11.7984 13L10.1682 15.4453C9.86184 15.9048 9.98602 16.5257 10.4455 16.8321C10.9051 17.1384 11.5259 17.0142 11.8323 16.5547L13.8323 13.5547C14.0562 13.2188 14.0562 12.7812 13.8323 12.4453L12.1036 9.85224L12.4489 8.81623Z" fill="#323232"/>
</svg>
