<svg width="24" height="24" viewBox="0 0 24 24" fill="none" xmlns="http://www.w3.org/2000/svg">
<path fill-rule="evenodd" clip-rule="evenodd" d="M15.2356 7.0067C14.2289 5.25275 11.7756 4.99421 9.55303 6.10552C9.05905 6.35251 8.85883 6.95318 9.10582 7.44716C9.35281 7.94114 9.95348 8.14136 10.4475 7.89437C12.2249 7.00566 13.2624 7.58655 13.5011 8.00232C13.6227 8.21422 13.6928 8.57536 13.4431 9.11901C13.388 9.23891 13.3176 9.36629 13.2296 9.49997L8 9.49997C7.44771 9.49997 7 9.94769 7 10.5C7 11.0523 7.44771 11.5 8 11.5H10.9812C10.5691 11.8163 10.2132 12.1521 9.9145 12.5H8C7.44771 12.5 7 12.9477 7 13.5C7 14.0523 7.44771 14.5 8 14.5H8.85163C8.66479 15.3083 8.76191 16.111 9.15286 16.8311C10.098 18.5722 12.3826 19.0761 14.4964 17.8682C14.9759 17.5942 15.1425 16.9833 14.8685 16.5038C14.5945 16.0243 13.9836 15.8577 13.5041 16.1317C12.1179 16.9239 11.1944 16.3998 10.9106 15.8769C10.7629 15.6049 10.6774 15.1097 10.9588 14.5H16C16.5523 14.5 17 14.0523 17 13.5C17 12.9477 16.5523 12.5 16 12.5H13.0277C13.4657 12.1754 13.8482 11.8411 14.1752 11.5H16C16.5523 11.5 17 11.0523 17 10.5C17 9.94769 16.5523 9.49997 16 9.49997H15.4378C15.7194 8.6273 15.6625 7.75046 15.2356 7.0067ZM2 12C2 6.47715 6.47715 2 12 2C17.5228 2 22 6.47715 22 12C22 17.5228 17.5228 22 12 22C6.47715 22 2 17.5228 2 12Z" fill="#323232"/>
</svg>
