<svg width="24" height="24" viewBox="0 0 24 24" fill="none" xmlns="http://www.w3.org/2000/svg">
<rect width="24" height="24" fill="white"/>
<path fill-rule="evenodd" clip-rule="evenodd" d="M21.7071 2.29289C22.0976 2.68342 22.0976 3.31658 21.7071 3.70711L19.9142 5.5L20.7071 6.29289C21.6499 7.2357 21.6499 8.7643 20.7071 9.70711L19.7071 10.7071C18.7643 11.6499 17.2357 11.6499 16.2929 10.7071L15.5 9.91421L13.7489 11.6653C14.5356 12.7403 15 14.0659 15 15.5C15 19.0898 12.0899 22 8.5 22C4.91015 22 2 19.0899 2 15.5C2 11.9101 4.91015 9 8.5 9C9.9341 9 11.2597 9.46443 12.3347 10.2511L20.2929 2.29289C20.6834 1.90237 21.3166 1.90237 21.7071 2.29289Z" fill="#323232"/>
</svg>
