<svg width="24" height="24" viewBox="0 0 24 24" fill="none" xmlns="http://www.w3.org/2000/svg">
<path d="M6.56873 3.88582C7.02433 2.74685 8.12745 2 9.35416 2H14.646C15.8727 2 16.9759 2.74686 17.4315 3.88584L19.8314 9.88584C20.6197 11.8564 19.1684 14 17.046 14H13.0001V20H16.0001C16.5524 20 17.0001 20.4477 17.0001 21C17.0001 21.5523 16.5524 22 16.0001 22H8.00012C7.44784 22 7.00012 21.5523 7.00012 21C7.00012 20.4477 7.44784 20 8.00012 20H11.0001V14H6.95413C4.83173 14 3.38046 11.8564 4.1687 9.88582L6.56873 3.88582Z" fill="#323232"/>
</svg>
