<svg width="24" height="24" viewBox="0 0 24 24" fill="none" xmlns="http://www.w3.org/2000/svg">
<path fill-rule="evenodd" clip-rule="evenodd" d="M5.20002 20.3953C5.12444 20.6752 5.04637 20.9642 4.96485 21.2631C4.81953 21.7959 4.26979 22.1101 3.73697 21.9648C3.20414 21.8194 2.89001 21.2697 3.03533 20.7369C3.11723 20.4366 3.19671 20.141 3.27493 19.8501C3.89353 17.5496 4.43267 15.5445 5.45782 13.856C6.65988 11.8761 8.48011 10.3833 11.6154 9.07691C12.1252 8.86449 12.7107 9.10557 12.9231 9.61537C13.1356 10.1252 12.8945 10.7106 12.3847 10.9231C9.52005 12.1167 8.09032 13.3738 7.1674 14.894C6.29985 16.3229 5.83872 18.0304 5.20002 20.3953Z" fill="#323232"/>
<path d="M19.7876 2.63999C13.4875 1.13059 8.1545 2.16695 4.98951 5.03284C1.93684 7.79703 1.1376 12.0409 3.15904 16.6257C3.54045 15.4554 3.98936 14.3476 4.60288 13.3371C5.94458 11.1272 7.96014 9.51658 11.2307 8.15384C12.2503 7.72901 13.4212 8.21116 13.8461 9.23076C14.2709 10.2504 13.7888 11.4213 12.7692 11.8461C10.0401 12.9833 8.80547 14.1226 8.02204 15.413C7.44205 16.3682 7.05658 17.474 6.62903 18.9706C11.9349 18.773 15.6883 17.5773 18.1717 15.2934C20.7446 12.9272 21.7683 9.56634 21.9638 5.5431C22.0302 4.17924 21.1174 2.9586 19.7876 2.63999Z" fill="#323232"/>
</svg>
