<svg width="24" height="24" viewBox="0 0 24 24" fill="none" xmlns="http://www.w3.org/2000/svg">
<path fill-rule="evenodd" clip-rule="evenodd" d="M9 2L8.93417 2C8.04768 1.99995 7.28387 1.99991 6.67221 2.08215C6.01669 2.17028 5.38834 2.36902 4.87868 2.87868C4.36902 3.38835 4.17027 4.0167 4.08214 4.67221C3.9999 5.28387 3.99995 6.04769 4 6.93417L4 7V10.5V16.1707C2.83481 16.5825 2 17.6938 2 19C2 20.6569 3.34315 22 5 22H15.9966L16 22C17.6569 22 19 20.6569 19 19V9.00001V7.00001H19.5C20.8807 7.00001 22 5.88072 22 4.50001C22 3.11929 20.8807 2.00001 19.5 2.00001C19.3961 2.00001 19.2937 2.00634 19.1932 2.01865C19.1307 2.00641 19.0661 2 19 2H9ZM13.1707 20C13.0602 19.6872 13 19.3506 13 19V18H5C4.44772 18 4 18.4477 4 19C4 19.5523 4.44772 20 5 20H13.1707ZM19 5.00001H19.5C19.7761 5.00001 20 4.77615 20 4.50001C20 4.22386 19.7761 4.00001 19.5 4.00001C19.2239 4.00001 19 4.22386 19 4.50001V5.00001ZM8 7C8 6.44772 8.44772 6 9 6H14C14.5523 6 15 6.44772 15 7C15 7.55228 14.5523 8 14 8H9C8.44772 8 8 7.55228 8 7ZM9 10C8.44772 10 8 10.4477 8 11C8 11.5523 8.44772 12 9 12H14C14.5523 12 15 11.5523 15 11C15 10.4477 14.5523 10 14 10H9Z" fill="#323232"/>
</svg>
