<svg width="24" height="24" viewBox="0 0 24 24" fill="none" xmlns="http://www.w3.org/2000/svg">
<path fill-rule="evenodd" clip-rule="evenodd" d="M2 12C2 6.47715 6.47715 2 12 2C17.5228 2 22 6.47715 22 12C22 17.5228 17.5228 22 12 22C6.47715 22 2 17.5228 2 12ZM12.2652 8.23697C12.1198 8.35815 12 8.5447 12 8.87498V10H13C13.5523 10 14 10.4477 14 11C14 11.5523 13.5523 12 13 12H12V13H13C13.5523 13 14 13.4477 14 14C14 14.5523 13.5523 15 13 15H12C12 15.3925 11.867 15.7332 11.7124 16H15C15.5523 16 16 16.4477 16 17C16 17.5523 15.5523 18 15 18H9.22071C8.6515 18 8.29293 17.5825 8.19824 17.1973C8.10428 16.8151 8.22506 16.29 8.71265 16.0214C9.01989 15.852 9.39758 15.6042 9.68289 15.3413C9.82517 15.2102 9.9183 15.0991 9.97028 15.0165C9.97399 15.0106 9.97734 15.0051 9.98034 15H9C8.44772 15 8 14.5523 8 14C8 13.4477 8.44772 13 9 13H10V12H9C8.44772 12 8 11.5523 8 11C8 10.4477 8.44772 10 9 10H10V8.87498C10 7.95527 10.3802 7.20433 10.9848 6.70052C11.5665 6.21583 12.3037 6 13 6C13.6963 6 14.4335 6.21584 15.0152 6.70052C15.6198 7.20433 16 7.95527 16 8.87498C16 9.42727 15.5523 9.87498 15 9.87498C14.4477 9.87498 14 9.42727 14 8.87498C14 8.54471 13.8802 8.35816 13.7348 8.23697C13.5665 8.09667 13.3037 8 13 8C12.6963 8 12.4335 8.09666 12.2652 8.23697Z" fill="#323232"/>
</svg>
