<svg width="24" height="24" viewBox="0 0 24 24" fill="none" xmlns="http://www.w3.org/2000/svg">
<path fill-rule="evenodd" clip-rule="evenodd" d="M9 7C9 6.44772 9.44772 6 10 6L21 6C21.5523 6 22 6.44772 22 7C22 7.55229 21.5523 8 21 8L10 8C9.44771 8 9 7.55228 9 7Z" fill="#323232"/>
<path fill-rule="evenodd" clip-rule="evenodd" d="M9 10C9 9.44772 9.44772 9 10 9L17 9C17.5523 9 18 9.44772 18 10C18 10.5523 17.5523 11 17 11L10 11C9.44771 11 9 10.5523 9 10Z" fill="#323232"/>
<path fill-rule="evenodd" clip-rule="evenodd" d="M9 14C9 13.4477 9.44772 13 10 13L21 13C21.5523 13 22 13.4477 22 14C22 14.5523 21.5523 15 21 15L10 15C9.44771 15 9 14.5523 9 14Z" fill="#323232"/>
<path fill-rule="evenodd" clip-rule="evenodd" d="M9 17C9 16.4477 9.44772 16 10 16L17 16C17.5523 16 18 16.4477 18 17C18 17.5523 17.5523 18 17 18L10 18C9.44771 18 9 17.5523 9 17Z" fill="#323232"/>
<path fill-rule="evenodd" clip-rule="evenodd" d="M2 8.5C2 7.11929 3.11929 6 4.5 6C5.88071 6 7 7.11929 7 8.5C7 9.88071 5.88071 11 4.5 11C3.11929 11 2 9.88071 2 8.5Z" fill="#323232"/>
<path fill-rule="evenodd" clip-rule="evenodd" d="M2 15.5C2 14.1193 3.11929 13 4.5 13C5.88071 13 7 14.1193 7 15.5C7 16.8807 5.88071 18 4.5 18C3.11929 18 2 16.8807 2 15.5Z" fill="#323232"/>
</svg>
