<svg width="24" height="24" viewBox="0 0 24 24" fill="none" xmlns="http://www.w3.org/2000/svg">
<path d="M10 12C10 10.8954 10.8954 10 12 10C13.1046 10 14 10.8954 14 12C14 13.1046 13.1046 14 12 14C10.8954 14 10 13.1046 10 12Z" fill="#323232"/>
<path fill-rule="evenodd" clip-rule="evenodd" d="M13 3C13 2.44772 12.5523 2 12 2C11.4477 2 11 2.44772 11 3V4.06189C7.38128 4.51314 4.51314 7.38128 4.06189 11H3C2.44772 11 2 11.4477 2 12C2 12.5523 2.44772 13 3 13H4.06189C4.51314 16.6187 7.38128 19.4869 11 19.9381V21C11 21.5523 11.4477 22 12 22C12.5523 22 13 21.5523 13 21V19.9381C16.6187 19.4869 19.4869 16.6187 19.9381 13H21C21.5523 13 22 12.5523 22 12C22 11.4477 21.5523 11 21 11H19.9381C19.4869 7.38128 16.6187 4.51314 13 4.06189V3ZM12 8C9.79086 8 8 9.79086 8 12C8 14.2091 9.79086 16 12 16C14.2091 16 16 14.2091 16 12C16 9.79086 14.2091 8 12 8Z" fill="#323232"/>
</svg>
