<svg width="24" height="24" viewBox="0 0 24 24" fill="none" xmlns="http://www.w3.org/2000/svg">
<path fill-rule="evenodd" clip-rule="evenodd" d="M7 16C7 15.4477 7.44772 15 8 15H16C16.5523 15 17 15.4477 17 16C17 16.5523 16.5523 17 16 17H8C7.44772 17 7 16.5523 7 16ZM7 10C7 9.44772 7.44772 9 8 9H16C16.5523 9 17 9.44772 17 10C17 10.5523 16.5523 11 16 11H8C7.44772 11 7 10.5523 7 10ZM8 5V5.04669C7.88637 5.05637 7.77706 5.06804 7.67221 5.08214C7.0167 5.17027 6.38835 5.36902 5.87868 5.87868C5.36902 6.38834 5.17028 7.01669 5.08214 7.67221C4.99991 8.28387 4.99995 9.04768 5 9.93417L5 16.0658C4.99995 16.9523 4.99991 17.7161 5.08214 18.3278C5.17028 18.9833 5.36902 19.6117 5.87868 20.1213C6.21056 20.4532 6.59275 20.6532 7 20.7767V21C7 21.5523 7.44772 22 8 22C8.55229 22 9 21.5523 9 21V20.9959C9.29352 21 9.60541 21 9.93417 21H14.0658C14.3946 21 14.7065 21 15 20.9959V21C15 21.5523 15.4477 22 16 22C16.5523 22 17 21.5523 17 21V20.7767C17.4073 20.6532 17.7895 20.4532 18.1213 20.1213C18.631 19.6117 18.8297 18.9833 18.9179 18.3278C19.0001 17.7161 19.0001 16.9523 19 16.0658V9.93417C19.0001 9.04768 19.0001 8.28387 18.9179 7.67221C18.8297 7.01669 18.631 6.38834 18.1213 5.87868C17.6117 5.36902 16.9833 5.17027 16.3278 5.08214C16.223 5.06804 16.1136 5.05637 16 5.04669V5C16 3.34315 14.6569 2 13 2H11C9.34315 2 8 3.34315 8 5ZM11 4C10.4477 4 10 4.44772 10 5H14C14 4.44772 13.5523 4 13 4H11Z" fill="#000"/>
</svg>
