<svg width="24" height="24" viewBox="0 0 24 24" fill="none" xmlns="http://www.w3.org/2000/svg">
<path fill-rule="evenodd" clip-rule="evenodd" d="M7.42225 2.50959C7.90033 2.23354 8.41139 2.03459 9.01144 2.04997C9.6115 2.06534 10.1117 2.2902 10.575 2.59038C11.0043 2.86853 11.4809 3.26576 12.027 3.72088L14.0074 5.37123C14.4444 5.73537 14.539 5.80583 14.617 5.84493C14.883 5.97831 15.1946 5.98629 15.4671 5.86672C15.547 5.83166 15.6451 5.76614 16.1001 5.42485L16.2774 5.29156C16.5958 5.0518 16.9147 4.81172 17.2457 4.58979C17.5452 4.38894 17.8682 4.19785 18.22 4.10314C19.6885 3.70779 21.2205 4.4738 21.7853 5.8858C21.9206 6.22405 21.9616 6.59713 21.9806 6.95727C21.9999 7.3219 21.9999 7.78387 21.9999 8.34635V15L22.0001 15.1676C22.0016 15.98 22.0029 16.7022 21.6832 17.3416C21.3635 17.981 20.7849 18.4133 20.1341 18.8996C19.6675 19.2482 19.2017 19.598 18.7359 19.9477L18.0856 20.4357L18.0856 20.4357L18.0854 20.4359C17.5168 20.8624 17.0205 21.2346 16.5776 21.4904C16.0995 21.7665 15.5884 21.9654 14.9884 21.95C14.3883 21.9346 13.8881 21.7098 13.4248 21.4096C12.9955 21.1315 12.5189 20.7343 11.9729 20.2792L11.9728 20.2791L9.99238 18.6288C9.55541 18.2646 9.46079 18.1942 9.38281 18.1551C9.11681 18.0217 8.80523 18.0137 8.53275 18.1333C8.45287 18.1683 8.35476 18.2339 7.89972 18.5751L7.72301 18.708L7.72296 18.7081C7.40436 18.9479 7.08534 19.1882 6.75417 19.4102C6.45462 19.6111 6.13159 19.8021 5.7798 19.8969C4.31131 20.2922 2.77931 19.5262 2.21449 18.1142C2.07919 17.7759 2.03824 17.4029 2.01919 17.0427C1.9999 16.6781 1.99991 16.2162 1.99991 15.6537C1.99991 14.9086 2.00033 14.1634 2.00075 13.4183C2.00162 11.8897 2.00248 10.361 1.99971 8.83239C1.99824 8.01998 1.99693 7.29776 2.31663 6.65835C2.63633 6.01895 3.2149 5.58666 3.8657 5.1004L3.86571 5.1004C4.32239 4.75917 4.7783 4.41689 5.2342 4.07461L5.23425 4.07457L5.86928 3.59797L5.91422 3.56426C6.48291 3.13769 6.97924 2.7654 7.42225 2.50959ZM14.9999 8C15.5522 8 15.9999 8.44772 15.9999 9V19C15.9999 19.5523 15.5522 20 14.9999 20C14.4476 20 13.9999 19.5523 13.9999 19V9C13.9999 8.44772 14.4476 8 14.9999 8ZM9.99988 5C9.99988 4.44772 9.55216 4 8.99988 4C8.44759 4 7.99988 4.44772 7.99988 5V15C7.99988 15.5523 8.44759 16 8.99988 16C9.55216 16 9.99988 15.5523 9.99988 15V5Z" fill="#323232"/>
</svg>
