<svg width="24" height="24" viewBox="0 0 24 24" fill="none" xmlns="http://www.w3.org/2000/svg">
<path d="M9 12C9 10.3431 10.3431 9 12 9C13.6569 9 15 10.3431 15 12C15 13.6569 13.6569 15 12 15C10.3431 15 9 13.6569 9 12Z" fill="#323232"/>
<path fill-rule="evenodd" clip-rule="evenodd" d="M6.93417 2C6.04769 1.99995 5.28387 1.99991 4.67221 2.08215C4.0167 2.17028 3.38835 2.36902 2.87868 2.87868C2.36902 3.38835 2.17028 4.0167 2.08215 4.67221C1.99991 5.28387 1.99995 6.04769 2 6.93417V17.0658C1.99995 17.9523 1.99991 18.7161 2.08215 19.3278C2.17028 19.9833 2.36902 20.6117 2.87868 21.1213C3.38835 21.631 4.0167 21.8297 4.67221 21.9179C5.28388 22.0001 6.0477 22.0001 6.9342 22H17.0658C17.9523 22.0001 18.7161 22.0001 19.3278 21.9179C19.9833 21.8297 20.6117 21.631 21.1213 21.1213C21.631 20.6117 21.8297 19.9833 21.9179 19.3278C22.0001 18.7161 22.0001 17.9523 22 17.0658V6.9342C22.0001 6.0477 22.0001 5.28388 21.9179 4.67221C21.8297 4.0167 21.631 3.38835 21.1213 2.87868C20.6117 2.36902 19.9833 2.17028 19.3278 2.08215C18.7161 1.99991 17.9523 1.99995 17.0658 2H6.93417ZM12 7C9.23858 7 7 9.23858 7 12C7 14.7614 9.23858 17 12 17C14.7614 17 17 14.7614 17 12C17 9.23858 14.7614 7 12 7Z" fill="#323232"/>
</svg>
