<svg width="24" height="24" viewBox="0 0 24 24" fill="none" xmlns="http://www.w3.org/2000/svg">
<path d="M12 12C11.4477 12 11 12.4477 11 13C11 13.5523 11.4477 14 12 14C12.5523 14 13 13.5523 13 13C13 12.4477 12.5523 12 12 12Z" fill="#323232"/>
<path fill-rule="evenodd" clip-rule="evenodd" d="M12 3C6.47715 3 2 7.47715 2 13C2 15.8586 3.20071 18.4383 5.12251 20.2595C5.66965 20.778 6.37952 21 7.0505 21H16.9495C17.6205 21 18.3303 20.778 18.8775 20.2595C20.7993 18.4383 22 15.8586 22 13C22 7.47715 17.5228 3 12 3ZM16.7071 8.29289C17.0976 8.68342 17.0976 9.31658 16.7071 9.70711L14.7076 11.7066C14.895 12.0982 15 12.5369 15 13C15 14.6569 13.6569 16 12 16C10.3431 16 9 14.6569 9 13C9 11.3431 10.3431 10 12 10C12.4631 10 12.9018 10.105 13.2934 10.2924L15.2929 8.29289C15.6834 7.90237 16.3166 7.90237 16.7071 8.29289Z" fill="#323232"/>
</svg>
