<svg width="24" height="24" viewBox="0 0 24 24" fill="none" xmlns="http://www.w3.org/2000/svg">
<path fill-rule="evenodd" clip-rule="evenodd" d="M9.93417 2C9.95604 2 9.97799 2 10 2L14.0658 2C14.9523 1.99995 15.7161 1.99991 16.3278 2.08215C16.9833 2.17028 17.6117 2.36902 18.1213 2.87868C18.631 3.38835 18.8297 4.0167 18.9179 4.67221C19.0001 5.28387 19.0001 6.04769 19 6.93417V17.0658C19.0001 17.9523 19.0001 18.7161 18.9179 19.3278C18.8297 19.9833 18.631 20.6117 18.1213 21.1213C17.6117 21.631 16.9833 21.8297 16.3278 21.9179C15.7161 22.0001 14.9523 22.0001 14.0658 22H9.9342C9.0477 22.0001 8.28388 22.0001 7.67221 21.9179C7.0167 21.8297 6.38835 21.631 5.87868 21.1213C5.36902 20.6117 5.17028 19.9833 5.08215 19.3278C4.99991 18.7161 4.99995 17.9523 5 17.0658L5 7C5 6.97799 5 6.95604 5 6.93417C4.99995 6.04769 4.99991 5.28387 5.08215 4.67221C5.17028 4.0167 5.36902 3.38835 5.87868 2.87868C6.38835 2.36902 7.0167 2.17028 7.67221 2.08215C8.28387 1.99991 9.04769 1.99995 9.93417 2ZM10.5 18C10.5 17.4477 10.9477 17 11.5 17H12.5C13.0523 17 13.5 17.4477 13.5 18C13.5 18.5523 13.0523 19 12.5 19H11.5C10.9477 19 10.5 18.5523 10.5 18Z" fill="#323232"/>
</svg>
