<svg width="24" height="24" viewBox="0 0 24 24" fill="none" xmlns="http://www.w3.org/2000/svg">
<path fill-rule="evenodd" clip-rule="evenodd" d="M8.23129 2.24042C9.24338 1.78689 10.1202 2.81139 9.80357 3.70092C8.72924 6.71921 9.38932 10.1473 11.6193 12.3765C13.8606 14.6169 17.3114 15.2755 20.3395 14.1818C21.2206 13.8636 22.2173 14.7318 21.7817 15.7198C21.7688 15.749 21.7558 15.7782 21.7427 15.8073C20.9674 17.5266 19.7272 19.1434 18.1227 20.2274C16.4125 21.3827 14.3957 22.0001 12.3316 22H12.3306C9.93035 21.9974 7.6057 21.1603 5.75517 19.6321C3.90463 18.1038 2.64345 15.9797 2.18793 13.6237C1.73241 11.2677 2.11094 8.82666 3.2586 6.71911C4.34658 4.72115 6.17608 3.16851 8.20153 2.2538L8.23129 2.24042Z" fill="#323232"/>
</svg>
