<svg width="24" height="24" viewBox="0 0 24 24" fill="none" xmlns="http://www.w3.org/2000/svg">
<path fill-rule="evenodd" clip-rule="evenodd" d="M7.25007 2.38782C8.54878 2.0992 10.1243 2 12 2C13.8757 2 15.4512 2.0992 16.7499 2.38782C18.06 2.67897 19.1488 3.176 19.9864 4.01358C20.824 4.85116 21.321 5.94002 21.6122 7.25007C21.9008 8.54878 22 10.1243 22 12C22 13.8757 21.9008 15.4512 21.6122 16.7499C21.321 18.06 20.824 19.1488 19.9864 19.9864C19.1488 20.824 18.06 21.321 16.7499 21.6122C15.4512 21.9008 13.8757 22 12 22C10.1243 22 8.54878 21.9008 7.25007 21.6122C5.94002 21.321 4.85116 20.824 4.01358 19.9864C3.176 19.1488 2.67897 18.06 2.38782 16.7499C2.0992 15.4512 2 13.8757 2 12C2 10.1243 2.0992 8.54878 2.38782 7.25007C2.67897 5.94002 3.176 4.85116 4.01358 4.01358C4.85116 3.176 5.94002 2.67897 7.25007 2.38782ZM7 12C7 11.4477 7.44772 11 8 11H8.01C8.56228 11 9.01 11.4477 9.01 12C9.01 12.5523 8.56228 13 8.01 13H8C7.44772 13 7 12.5523 7 12ZM11 12C11 11.4477 11.4477 11 12 11H12.01C12.5623 11 13.01 11.4477 13.01 12C13.01 12.5523 12.5623 13 12.01 13H12C11.4477 13 11 12.5523 11 12ZM16 11C15.4477 11 15 11.4477 15 12C15 12.5523 15.4477 13 16 13H16.01C16.5623 13 17.01 12.5523 17.01 12C17.01 11.4477 16.5623 11 16.01 11H16Z" fill="#323232"/>
</svg>
