<svg width="24" height="24" viewBox="0 0 24 24" fill="none" xmlns="http://www.w3.org/2000/svg">
<rect width="24" height="24" fill="white"/>
<path fill-rule="evenodd" clip-rule="evenodd" d="M7.25007 2.38782C8.54878 2.0992 10.1243 2 12 2C13.8757 2 15.4512 2.0992 16.7499 2.38782C18.06 2.67897 19.1488 3.176 19.9864 4.01358C20.824 4.85116 21.321 5.94002 21.6122 7.25007C21.9008 8.54878 22 10.1243 22 12C22 13.8757 21.9008 15.4512 21.6122 16.7499C21.321 18.06 20.824 19.1488 19.9864 19.9864C19.1488 20.824 18.06 21.321 16.7499 21.6122C15.4512 21.9008 13.8757 22 12 22C10.1243 22 8.54878 21.9008 7.25007 21.6122C5.94002 21.321 4.85116 20.824 4.01358 19.9864C3.176 19.1488 2.67897 18.06 2.38782 16.7499C2.0992 15.4512 2 13.8757 2 12C2 10.1243 2.0992 8.54878 2.38782 7.25007C2.67897 5.94002 3.176 4.85116 4.01358 4.01358C4.85116 3.176 5.94002 2.67897 7.25007 2.38782ZM11.0049 8.005C11.0049 8.55728 11.4526 9.005 12.0049 9.005C12.5572 9.005 13.0049 8.55728 13.0049 8.005V7.995C13.0049 7.44271 12.5572 6.995 12.0049 6.995C11.4526 6.995 11.0049 7.44271 11.0049 7.995V8.005ZM12.0049 13.005C11.4526 13.005 11.0049 12.5573 11.0049 12.005V11.995C11.0049 11.4427 11.4526 10.995 12.0049 10.995C12.5572 10.995 13.0049 11.4427 13.0049 11.995V12.005C13.0049 12.5573 12.5572 13.005 12.0049 13.005ZM12.0049 17.005C11.4526 17.005 11.0049 16.5573 11.0049 16.005V15.995C11.0049 15.4427 11.4526 14.995 12.0049 14.995C12.5572 14.995 13.0049 15.4427 13.0049 15.995V16.005C13.0049 16.5573 12.5572 17.005 12.0049 17.005Z" fill="#323232"/>
</svg>
