<svg width="24" height="24" viewBox="0 0 24 24" fill="none" xmlns="http://www.w3.org/2000/svg">
<path d="M15 15C13.8954 15 13 15.8954 13 17V20C13 21.1046 13.8954 22 15 22H15.024C16.2771 22 17.3524 21.9342 18.2508 21.7345C19.1607 21.5323 19.9494 21.1798 20.5646 20.5646C21.1798 19.9494 21.5323 19.1607 21.7345 18.2508C21.8262 17.8382 21.8867 17.4194 21.9264 16.9979C22.0301 15.8982 21.1046 15 20 15H15Z" fill="#323232"/>
<path d="M2 15.024V13C2 11.8954 2.89543 11 4 11H9C10.1046 11 11 11.8954 11 13V20C11 21.1046 10.1046 22 9 22H8.976C7.72287 22 6.64762 21.9342 5.74915 21.7345C4.83933 21.5323 4.05065 21.1798 3.43543 20.5646C2.82021 19.9494 2.46772 19.1607 2.26552 18.2508C2.06584 17.3524 2 16.2771 2 15.024Z" fill="#323232"/>
<path d="M22 11C22 12.1046 21.1046 13 20 13H15C13.8954 13 13 12.1046 13 11V4C13 2.89543 13.8954 2 15 2H15.024C16.2771 2 17.3524 2.06584 18.2508 2.26552C19.1607 2.46772 19.9494 2.82021 20.5646 3.43543C21.1798 4.05065 21.5323 4.83933 21.7345 5.74915C21.9342 6.64762 22 7.72287 22 8.976V11Z" fill="#323232"/>
<path d="M11 4C11 2.89543 10.1046 2 9 2H8.976C7.72287 2 6.64762 2.06584 5.74915 2.26552C4.83933 2.46772 4.05065 2.82021 3.43543 3.43543C2.82021 4.05065 2.46772 4.83933 2.26552 5.74915C2.17381 6.1618 2.11329 6.58063 2.07356 7.0021C1.96991 8.1018 2.89543 9 4 9H9C10.1046 9 11 8.10457 11 7V4Z" fill="#323232"/>
</svg>
