<svg width="24" height="24" viewBox="0 0 24 24" fill="none" xmlns="http://www.w3.org/2000/svg">
<path fill-rule="evenodd" clip-rule="evenodd" d="M18 7.00001L18 6.93417C18.0001 6.04769 18.0001 5.28387 17.9179 4.67221C17.8297 4.0167 17.631 3.38835 17.1213 2.87868C16.6117 2.36902 15.9833 2.17028 15.3278 2.08215C14.7161 1.99991 13.9523 1.99995 13.0658 2L13 2.00001L6.93418 2C6.04769 1.99995 5.28387 1.99991 4.67221 2.08215C4.0167 2.17028 3.38835 2.36902 2.87869 2.87868C2.36902 3.38835 2.17028 4.0167 2.08215 4.67221C1.99991 5.28387 1.99995 6.04769 2 6.93417L2 17.0658C1.99995 17.9523 1.99991 18.7161 2.08215 19.3278C2.17028 19.9833 2.36902 20.6117 2.87868 21.1213C3.38835 21.631 4.0167 21.8297 4.67221 21.9179C5.28387 22.0001 6.04767 22.0001 6.93414 22H13.0659C13.1103 22 13.1544 22 13.1982 22L17.0658 22C17.9523 22.0001 18.7161 22.0001 19.3278 21.9179C19.9833 21.8297 20.6117 21.631 21.1213 21.1213C21.631 20.6117 21.8297 19.9833 21.9179 19.3278C22.0001 18.7161 22.0001 17.9523 22 17.0658L22 14L22 13.9342C22.0001 13.0477 22.0001 12.2839 21.9179 11.6722C21.8297 11.0167 21.631 10.3883 21.1213 9.87869C20.6117 9.36902 19.9833 9.17028 19.3278 9.08215C18.943 9.03041 18.4979 9.01124 18 9.00415V7.00001ZM18 11.0046L18 17.0658V17.0659C18.0001 17.9523 18.0001 18.7161 17.9179 19.3278C17.8872 19.5557 17.8432 19.7804 17.7774 19.9979C18.3286 19.9935 18.7358 19.9795 19.0613 19.9357C19.495 19.8774 19.631 19.7832 19.7071 19.7071C19.7832 19.631 19.8774 19.495 19.9357 19.0613C19.9979 18.5988 20 17.9711 20 17V14C20 13.0289 19.9979 12.4012 19.9357 11.9387C19.8774 11.505 19.7832 11.369 19.7071 11.2929C19.631 11.2168 19.495 11.1226 19.0613 11.0643C18.7813 11.0267 18.4407 11.011 18 11.0046ZM14 12C14 12.5523 13.5523 13 13 13L7 13C6.44772 13 6 12.5523 6 12C6 11.4477 6.44772 11 7 11L13 11C13.5523 11 14 11.4477 14 12ZM14 16C14 16.5523 13.5523 17 13 17L7 17C6.44772 17 6 16.5523 6 16C6 15.4477 6.44772 15 7 15L13 15C13.5523 15 14 15.4477 14 16ZM14 8C14 8.55228 13.5523 9 13 9L7 9C6.44772 9 6 8.55228 6 8C6 7.44771 6.44772 7 7 7L13 7C13.5523 7 14 7.44772 14 8Z" fill="#323232"/>
</svg>
