<svg width="24" height="24" viewBox="0 0 24 24" fill="none" xmlns="http://www.w3.org/2000/svg">
<path fill-rule="evenodd" clip-rule="evenodd" d="M13.314 22.0001C13.8798 22.0008 14.3813 22.0015 14.8588 21.8376C15.3364 21.6738 15.7318 21.3654 16.178 21.0174C16.208 20.994 16.2382 20.9705 16.2687 20.9468L20.0697 17.9904C20.1132 17.9566 20.1564 17.9232 20.1992 17.8899C20.8281 17.4026 21.387 16.9695 21.695 16.3399C22.0029 15.7103 22.0016 15.0032 22.0002 14.2076C22.0001 14.1534 22 14.0987 22 14.0437L22 6.93414C22.0001 6.04767 22.0001 5.28387 21.9179 4.67221C21.8297 4.0167 21.631 3.38835 21.1213 2.87868C20.6117 2.36902 19.9833 2.17028 19.3278 2.08215C18.7161 1.99991 17.9523 1.99995 17.0658 2H6.9342C6.0477 1.99995 5.28388 1.99991 4.67221 2.08215C4.0167 2.17028 3.38835 2.36902 2.87868 2.87868C2.36902 3.38835 2.17028 4.0167 2.08215 4.67221C1.99991 5.28387 1.99995 6.04769 2 6.93417L2.00001 17C2.00001 17.022 2 17.044 2 17.0658C1.99995 17.9523 1.99991 18.7161 2.08215 19.3278C2.17028 19.9833 2.36902 20.6117 2.87869 21.1213C3.38835 21.631 4.0167 21.8297 4.67221 21.9179C5.28387 22.0001 6.04769 22.0001 6.93418 22C6.95604 22 6.97799 22 7.00001 22H13.199C13.2376 22 13.2759 22.0001 13.314 22.0001ZM18 12C18 11.4477 17.5523 11 17 11L12.3284 11C11.5949 11 11 11.5945 11 12.3283L11 17C11 17.5522 11.4477 18 12 18C12.5523 18 13 17.5522 13 17L13 13L17 13C17.5523 13 18 12.5522 18 12Z" fill="#323232"/>
</svg>
