<svg width="24" height="24" viewBox="0 0 24 24" fill="none" xmlns="http://www.w3.org/2000/svg">
<path fill-rule="evenodd" clip-rule="evenodd" d="M14 22H8H5C3.34315 22 2 20.6569 2 19V5C2 3.34315 3.34315 2 5 2H8H14H20C21.6569 2 23 3.34315 23 5V7V17V19C23 20.6569 21.6569 22 20 22H14ZM5.17071 20C5.06015 19.6872 5 19.3506 5 19V17V7V5C5 4.64936 5.06015 4.31278 5.17071 4H5C4.44772 4 4 4.44772 4 5V19C4 19.5523 4.44771 20 5 20H5.17071ZM9 8.01455C8.99911 7.46227 9.44611 7.01383 9.99839 7.01294L17.9984 7.00006C18.5506 6.99917 18.9991 7.44616 19 7.99845C19.0009 8.55073 18.5539 8.99917 18.0016 9.00006L10.0016 9.01294C9.44933 9.01383 9.00089 8.56683 9 8.01455ZM9 12.0275C8.99911 11.4752 9.44611 11.0268 9.99839 11.0259L17.9984 11.013C18.5506 11.0121 18.9991 11.4591 19 12.0114C19.0009 12.5637 18.5539 13.0121 18.0016 13.013L10.0016 13.0259C9.44933 13.0268 9.00089 12.5798 9 12.0275ZM9 16.0275C8.99911 15.4752 9.44611 15.0268 9.99839 15.0259L17.9984 15.013C18.5506 15.0121 18.9991 15.4591 19 16.0114C19.0009 16.5637 18.5539 17.0121 18.0016 17.013L10.0016 17.0259C9.44933 17.0268 9.00089 16.5798 9 16.0275Z" fill="#323232"/>
</svg>
