<svg width="24" height="24" viewBox="0 0 24 24" fill="none" xmlns="http://www.w3.org/2000/svg">
<path fill-rule="evenodd" clip-rule="evenodd" d="M4.78849 4.6279C4.97615 3.12661 6.25235 2 7.76532 2H12.9998C14.8101 2 16.22 2.76825 17.1556 3.9378C18.0709 5.08194 18.4998 6.56356 18.4998 8C18.4998 9.43644 18.0709 10.9181 17.1556 12.0622C16.22 13.2317 14.8101 14 12.9998 14H9.99976C9.91154 14 9.83626 14.0638 9.82175 14.1508L9.26469 17.4932C9.02359 18.9398 7.77202 20 6.3055 20H4.99976C3.86727 20 2.99105 19.0074 3.13152 17.8837L4.78849 4.6279Z" fill="#323232"/>
<path d="M6.3457 20.9998C6.65591 21.5895 7.27417 22 7.99989 22H9.43834C10.8149 22 12.0149 21.0631 12.3488 19.7276L12.7275 18.2127C12.7587 18.0877 12.8711 18 12.9999 18H15.9999C17.5804 18 18.8649 17.4139 19.7934 16.4706C20.7062 15.5432 21.2332 14.3158 21.4206 13.0674C21.7273 11.0235 21.1397 8.64017 19.4627 7.21863C19.4877 7.48017 19.4999 7.74123 19.4999 7.99999C19.4999 9.62261 19.0174 11.3359 17.9367 12.6869C16.8155 14.0884 15.1207 15 12.9999 15H10.6942L10.2513 17.6576C9.93201 19.5732 8.28377 20.9807 6.3457 20.9998Z" fill="#323232"/>
</svg>
