<svg width="24" height="24" viewBox="0 0 24 24" fill="none" xmlns="http://www.w3.org/2000/svg">
<path fill-rule="evenodd" clip-rule="evenodd" d="M2.14089 4.4021C2.34025 2.92963 3.63956 2 4.99004 2H7.55848C8.84977 2 9.99619 2.82629 10.4045 4.05132L11.454 7.19963C11.905 8.55283 11.1086 10.0036 9.72482 10.3496C9.38646 10.4342 9.26975 10.8555 9.51637 11.1022L12.8978 14.4836C13.1445 14.7303 13.5658 14.6135 13.6504 14.2752C13.9964 12.8914 15.4472 12.095 16.8004 12.546L19.9487 13.5955C21.1737 14.0038 22 15.1502 22 16.4415V19.01C22 20.3604 21.0704 21.6598 19.5979 21.8591C18.9114 21.9521 18.211 22 17.5 22C8.93959 22 2 15.0604 2 6.5C2 5.78898 2.04794 5.08863 2.14089 4.4021Z" fill="#323232"/>
<path d="M15.7071 2.29289C15.3166 1.90237 14.6834 1.90237 14.2929 2.29289C13.9024 2.68342 13.9024 3.31658 14.2929 3.70711L16.5858 6L14.2929 8.29289C13.9024 8.68342 13.9024 9.31658 14.2929 9.70711C14.6834 10.0976 15.3166 10.0976 15.7071 9.70711L18 7.41421L20.2929 9.70711C20.6834 10.0976 21.3166 10.0976 21.7071 9.70711C22.0976 9.31658 22.0976 8.68342 21.7071 8.29289L19.4142 6L21.7071 3.70711C22.0976 3.31658 22.0976 2.68342 21.7071 2.29289C21.3166 1.90237 20.6834 1.90237 20.2929 2.29289L18 4.58579L15.7071 2.29289Z" fill="#323232"/>
</svg>
