<svg width="24" height="24" viewBox="0 0 24 24" fill="none" xmlns="http://www.w3.org/2000/svg">
<path fill-rule="evenodd" clip-rule="evenodd" d="M2.14089 4.4021C2.34025 2.92963 3.63956 2 4.99004 2H7.55848C8.84977 2 9.99619 2.82629 10.4045 4.05132L11.454 7.19963C11.905 8.55283 11.1086 10.0036 9.72482 10.3496C9.38646 10.4342 9.26975 10.8555 9.51637 11.1022L12.8978 14.4836C13.1445 14.7303 13.5658 14.6135 13.6504 14.2752C13.9964 12.8914 15.4472 12.095 16.8004 12.546L19.9487 13.5955C21.1737 14.0038 22 15.1502 22 16.4415V19.01C22 20.3604 21.0704 21.6598 19.5979 21.8591C18.9114 21.9521 18.211 22 17.5 22C8.93959 22 2 15.0604 2 6.5C2 5.78898 2.04794 5.08863 2.14089 4.4021Z" fill="#323232"/>
<path d="M20 7C20 7.55229 20.4477 8 21 8C21.5523 8 22 7.55229 22 7L22 3.5C22 2.67157 21.3284 2 20.5 2H17C16.4477 2 16 2.44772 16 3C16 3.55228 16.4477 4 17 4L18.5858 4L14.2929 8.29289C13.9024 8.68342 13.9024 9.31658 14.2929 9.70711C14.6834 10.0976 15.3166 10.0976 15.7071 9.70711L20 5.41421L20 7Z" fill="#323232"/>
</svg>
