<svg width="24" height="24" viewBox="0 0 24 24" fill="none" xmlns="http://www.w3.org/2000/svg">
<path fill-rule="evenodd" clip-rule="evenodd" d="M17.968 2.00002C18.3659 2.00002 18.7652 1.99427 19.1624 2.02137C19.4922 2.04388 19.8221 2.09338 20.1481 2.22838C20.8832 2.53287 21.4672 3.11689 21.7717 3.85197C21.9067 4.1779 21.9562 4.50781 21.9787 4.83764C22.0058 5.23487 22 5.6341 22 6.03201C22 6.47066 22 6.84915 21.9787 7.16241C21.9562 7.49223 21.9067 7.82215 21.7717 8.14807C21.4672 8.88316 20.8832 9.46718 20.1481 9.77166C19.8221 9.90667 19.4922 9.95617 19.1624 9.97867C18.7652 10.0058 18.3659 10 17.968 10C17.5294 10 17.1509 10 16.8376 9.97867C16.5078 9.95617 16.1779 9.90667 15.852 9.77166C15.1169 9.46718 14.5329 8.88316 14.2284 8.14807C14.0934 7.82215 14.0439 7.49223 14.0214 7.16241C14 6.84915 14 6.47066 14 6.03201C14 5.6341 13.9943 5.23487 14.0214 4.83764C14.0439 4.50781 14.0934 4.1779 14.2284 3.85197C14.5329 3.11689 15.1169 2.53287 15.852 2.22838C16.1779 2.09338 16.5078 2.04388 16.8376 2.02137C17.1509 2 17.5294 2.00001 17.968 2.00002Z" fill="#323232"/>
<path fill-rule="evenodd" clip-rule="evenodd" d="M6.03201 2.00002C6.47066 2.00001 6.84915 2 7.16241 2.02137C7.49223 2.04388 7.82215 2.09338 8.14807 2.22838C8.88316 2.53287 9.46718 3.11689 9.77166 3.85197C9.90667 4.1779 9.95617 4.50781 9.97867 4.83764C10.0058 5.23487 10 5.6341 10 6.03201C10 6.47066 10 6.84915 9.97867 7.16241C9.95617 7.49223 9.90667 7.82215 9.77166 8.14807C9.46718 8.88316 8.88316 9.46718 8.14807 9.77166C7.82215 9.90667 7.49223 9.95617 7.16241 9.97867C6.84915 10 6.47066 10 6.03201 10C5.6341 10 5.23487 10.0058 4.83764 9.97867C4.50781 9.95617 4.1779 9.90667 3.85197 9.77166C3.11689 9.46718 2.53287 8.88316 2.22838 8.14807C2.09338 7.82215 2.04388 7.49223 2.02137 7.16241C2 6.84915 2.00001 6.47066 2.00002 6.03201C2.00002 5.6341 1.99427 5.23487 2.02137 4.83764C2.04388 4.50781 2.09338 4.1779 2.22838 3.85197C2.53287 3.11689 3.11689 2.53287 3.85197 2.22838C4.1779 2.09338 4.50781 2.04388 4.83764 2.02137C5.23487 1.99427 5.6341 2.00002 6.03201 2.00002Z" fill="#323232"/>
<path fill-rule="evenodd" clip-rule="evenodd" d="M5.96804 14C6.36595 14 6.76517 13.9943 7.16241 14.0214C7.49223 14.0439 7.82215 14.0934 8.14807 14.2284C8.88316 14.5329 9.46718 15.1169 9.77166 15.852C9.90667 16.1779 9.95617 16.5078 9.97867 16.8376C10 17.1509 10 17.5294 10 17.968C10 18.3659 10.0058 18.7652 9.97867 19.1624C9.95617 19.4922 9.90667 19.8221 9.77166 20.1481C9.46718 20.8832 8.88316 21.4672 8.14807 21.7717C7.82215 21.9067 7.49223 21.9562 7.16241 21.9787C6.84915 22 6.47066 22 6.03201 22C5.6341 22 5.23487 22.0058 4.83764 21.9787C4.50781 21.9562 4.1779 21.9067 3.85197 21.7717C3.11689 21.4672 2.53287 20.8832 2.22838 20.1481C2.09338 19.8221 2.04388 19.4922 2.02137 19.1624C1.99427 18.7652 2.00002 18.3659 2.00002 17.968C2.00001 17.5294 2 17.1509 2.02137 16.8376C2.04388 16.5078 2.09338 16.1779 2.22838 15.852C2.53287 15.1169 3.11689 14.5329 3.85197 14.2284C4.1779 14.0934 4.50781 14.0439 4.83764 14.0214C5.1509 14 5.52939 14 5.96804 14Z" fill="#323232"/>
<path fill-rule="evenodd" clip-rule="evenodd" d="M12 2C12.5523 2 13 2.44772 13 3V6C13 6.55228 12.5523 7 12 7C11.4477 7 11 6.55228 11 6V3C11 2.44772 11.4477 2 12 2Z" fill="#323232"/>
<path fill-rule="evenodd" clip-rule="evenodd" d="M19 18C19 18.5523 18.5523 19 18 19H15C14.4477 19 14 18.5523 14 18C14 17.4477 14.4477 17 15 17H18C18.5523 17 19 17.4477 19 18Z" fill="#323232"/>
<path fill-rule="evenodd" clip-rule="evenodd" d="M22 15C22 15.5523 21.5523 16 21 16H18C17.4477 16 17 15.5523 17 15C17 14.4477 17.4477 14 18 14H21C21.5523 14 22 14.4477 22 15Z" fill="#323232"/>
<path fill-rule="evenodd" clip-rule="evenodd" d="M10 12C10 12.5523 9.55228 13 9 13L3 13C2.44772 13 2 12.5523 2 12C2 11.4477 2.44772 11 3 11L9 11C9.55228 11 10 11.4477 10 12Z" fill="#323232"/>
<path fill-rule="evenodd" clip-rule="evenodd" d="M22 12C22 12.5523 21.5523 13 21 13L13 13C11.8954 13 11 12.1046 11 11L11 9C11 8.44771 11.4477 8 12 8C12.5523 8 13 8.44771 13 9L13 11L21 11C21.5523 11 22 11.4477 22 12Z" fill="#323232"/>
<path fill-rule="evenodd" clip-rule="evenodd" d="M13.5 21C13.5 21.5523 13.9477 22 14.5 22L20 22C21.1046 22 22 21.1046 22 20L22 18C22 17.4477 21.5523 17 21 17C20.4477 17 20 17.4477 20 18L20 20L14.5 20C13.9477 20 13.5 20.4477 13.5 21Z" fill="#323232"/>
<path fill-rule="evenodd" clip-rule="evenodd" d="M12 22C11.4477 22 11 21.5523 11 21L11 16C11 14.8954 11.8954 14 13 14L15 14C15.5523 14 16 14.4477 16 15C16 15.5523 15.5523 16 15 16L13 16L13 21C13 21.5523 12.5523 22 12 22Z" fill="#323232"/>
</svg>
