<svg width="24" height="24" viewBox="0 0 24 24" fill="none" xmlns="http://www.w3.org/2000/svg">
<path fill-rule="evenodd" clip-rule="evenodd" d="M16.986 9.98212C16.5474 9.98211 16.1689 9.9821 15.8556 10.0035C15.5258 10.026 15.1959 10.0755 14.8699 10.2105C14.1349 10.515 13.5508 11.099 13.2464 11.8341C13.1113 12.16 13.0618 12.4899 13.0393 12.8197C12.9904 13.5374 13.018 14.2631 13.018 14.9821C13.018 16.639 14.3611 17.9821 16.018 17.9821H17.018V18.229C17.018 19.7668 18.8773 20.537 19.9647 19.4496C20.1937 19.2206 20.4225 18.9914 20.6518 18.7627C21.1325 18.2835 21.5592 17.8582 21.7896 17.3017C22.0201 16.7453 22.0192 16.1429 22.0181 15.4641C22.0167 14.5582 22.0625 13.6399 21.9707 12.7378C21.9205 12.2446 21.809 11.7593 21.5124 11.3154C21.2935 10.9878 21.0123 10.7066 20.6847 10.4877C20.2408 10.1911 19.7555 10.0796 19.2623 10.0294C18.508 9.95266 17.7434 9.98212 16.986 9.98212Z" fill="#323232"/>
<path fill-rule="evenodd" clip-rule="evenodd" d="M5.97575 4.00556C5.5371 4.00555 5.15861 4.00554 4.84535 4.02691C4.51553 4.04941 4.18562 4.09892 3.85969 4.23392C3.1246 4.5384 2.54058 5.12243 2.2361 5.85751C2.10109 6.18344 2.05159 6.51335 2.02909 6.84318C1.98012 7.56087 2.00774 8.28654 2.00774 9.00556C2.00774 10.6624 3.35088 12.0056 5.00774 12.0056H6.00774V12.2524C6.00774 13.7903 7.86707 14.5604 8.95449 13.473C9.18347 13.244 9.4122 13.0148 9.64153 12.7862C10.1223 12.3069 10.5489 11.8816 10.7794 11.3252C11.0098 10.7688 11.0089 10.1663 11.0079 9.48753C11.0065 8.58163 11.0522 7.66333 10.9605 6.76128C10.9103 6.26804 10.7988 5.78277 10.5021 5.33885C10.2833 5.01128 10.002 4.73003 9.67445 4.51115C9.23053 4.21453 8.74526 4.103 8.25202 4.05283C7.49772 3.97609 6.73317 4.00556 5.97575 4.00556Z" fill="#323232"/>
</svg>
