<svg width="24" height="24" viewBox="0 0 24 24" fill="none" xmlns="http://www.w3.org/2000/svg">
<rect width="24" height="24" fill="white"/>
<path fill-rule="evenodd" clip-rule="evenodd" d="M12 2C10.1243 2 8.54878 2.0992 7.25007 2.38782C5.94002 2.67897 4.85116 3.176 4.01358 4.01358C3.176 4.85116 2.67897 5.94002 2.38782 7.25007C2.0992 8.54878 2 10.1243 2 12C2 13.8757 2.0992 15.4512 2.38782 16.7499C2.67897 18.06 3.176 19.1488 4.01358 19.9864C4.85116 20.824 5.94002 21.321 7.25007 21.6122C8.54878 21.9008 10.1243 22 12 22C13.8757 22 15.4512 21.9008 16.7499 21.6122C18.06 21.321 19.1488 20.824 19.9864 19.9864C20.824 19.1488 21.321 18.06 21.6122 16.7499C21.9008 15.4512 22 13.8757 22 12C22 10.1243 21.9008 8.54878 21.6122 7.25007C21.321 5.94002 20.824 4.85116 19.9864 4.01358C19.1488 3.176 18.06 2.67897 16.7499 2.38782C15.4512 2.0992 13.8757 2 12 2ZM11 7C10.4477 7 10 7.44772 10 8V11H9C8.44772 11 8 11.4477 8 12C8 12.5523 8.44772 13 9 13H10V14H9C8.44772 14 8 14.4477 8 15C8 15.5523 8.44772 16 9 16H10V17C10 17.5523 10.4477 18 11 18C11.5523 18 12 17.5523 12 17V16H15C15.5523 16 16 15.5523 16 15C16 14.4477 15.5523 14 15 14H12V13H13.5C14.4829 13 15.3104 12.6663 15.8946 12.0821C16.4694 11.5073 16.75 10.7474 16.75 10C16.75 9.25264 16.4694 8.49269 15.8946 7.91789C15.3104 7.33369 14.4829 7 13.5 7H11Z" fill="#323232"/>
<path fill-rule="evenodd" clip-rule="evenodd" d="M12 11V9H13.5C14.0171 9 14.3146 9.16631 14.4804 9.33211C14.6556 9.50731 14.75 9.74736 14.75 10C14.75 10.2526 14.6556 10.4927 14.4804 10.6679C14.3146 10.8337 14.0171 11 13.5 11H12Z" fill="#323232"/>
</svg>
