<svg width="24" height="24" viewBox="0 0 24 24" fill="none" xmlns="http://www.w3.org/2000/svg">
<path fill-rule="evenodd" clip-rule="evenodd" d="M12 2C10.1243 2 8.54878 2.0992 7.25007 2.38782C5.94002 2.67897 4.85116 3.176 4.01358 4.01358C3.176 4.85116 2.67897 5.94002 2.38782 7.25007C2.0992 8.54878 2 10.1243 2 12C2 13.8757 2.0992 15.4512 2.38782 16.7499C2.67897 18.06 3.176 19.1488 4.01358 19.9864C4.85116 20.824 5.94002 21.321 7.25007 21.6122C8.54878 21.9008 10.1243 22 12 22C13.8757 22 15.4512 21.9008 16.7499 21.6122C18.06 21.321 19.1488 20.824 19.9864 19.9864C20.824 19.1488 21.321 18.06 21.6122 16.7499C21.9008 15.4512 22 13.8757 22 12C22 10.1243 21.9008 8.54878 21.6122 7.25007C21.321 5.94002 20.824 4.85116 19.9864 4.01358C19.1488 3.176 18.06 2.67897 16.7499 2.38782C15.4512 2.0992 13.8757 2 12 2ZM8 7C8 6.44772 8.44772 6 9 6H15C15.5523 6 16 6.44772 16 7C16 7.55228 15.5523 8 15 8H13.0108C13.3164 8.46303 13.5255 8.97391 13.6414 9.5H15C15.5523 9.5 16 9.94772 16 10.5C16 11.0523 15.5523 11.5 15 11.5H13.6414C13.4817 12.2254 13.1446 12.9214 12.6221 13.5034C12.1965 13.9776 11.6627 14.3596 11.0332 14.619L12.7071 16.2929C13.0976 16.6834 13.0976 17.3166 12.7071 17.7071C12.3166 18.0976 11.6834 18.0976 11.2929 17.7071L8.41475 14.829C8.05891 14.4731 8.04079 13.9866 8.19245 13.6413C8.34028 13.3047 8.68316 13.013 9.14206 12.9976C10.0966 12.9656 10.7334 12.6135 11.1338 12.1675C11.3106 11.9705 11.451 11.7442 11.5529 11.5H9C8.44772 11.5 8 11.0523 8 10.5C8 9.94772 8.44772 9.5 9 9.5H11.5529C11.4396 9.22839 11.2786 8.97913 11.0729 8.76729C10.6533 8.33533 9.99038 8 9 8C8.44772 8 8 7.55228 8 7Z" fill="#323232"/>
</svg>
