<svg width="24" height="24" viewBox="0 0 24 24" fill="none" xmlns="http://www.w3.org/2000/svg">
<path fill-rule="evenodd" clip-rule="evenodd" d="M11.0001 2C9.34327 2 8.00012 3.34315 8.00012 5V6.00038C7.39496 6.00219 6.86126 6.01237 6.41273 6.06902C5.82363 6.14344 5.2573 6.31027 4.76914 6.73364C4.28099 7.15702 4.03574 7.69406 3.87877 8.26672C3.73298 8.79855 3.63773 9.46561 3.52808 10.2335L2.65235 16.3636C2.50919 17.3653 2.38699 18.2204 2.38575 18.9086C2.38444 19.6412 2.51604 20.3617 3.03982 20.9656C3.56359 21.5695 4.25825 21.8017 4.98366 21.904C5.66508 22.0001 6.52889 22.0001 7.54076 22H16.4596C17.4714 22.0001 18.3352 22.0001 19.0167 21.904C19.7421 21.8017 20.4367 21.5695 20.9605 20.9656C21.4843 20.3617 21.6159 19.6412 21.6146 18.9086C21.6133 18.2204 21.4911 17.3653 21.348 16.3635L20.4722 10.2335C20.3626 9.46561 20.2673 8.79855 20.1215 8.26672C19.9646 7.69406 19.7193 7.15702 19.2312 6.73364C18.743 6.31027 18.1767 6.14344 17.5876 6.06902C17.139 6.01237 16.6053 6.00219 16.0001 6.00038V5C16.0001 3.34315 14.657 2 13.0001 2H11.0001ZM14.0001 6V5C14.0001 4.44772 13.5524 4 13.0001 4H11.0001C10.4478 4 10.0001 4.44772 10.0001 5V6L14.0001 6ZM9.00012 8C9.55241 8 10.0001 8.44772 10.0001 9V11C10.0001 11.5523 9.55241 12 9.00012 12C8.44784 12 8.00012 11.5523 8.00012 11V9C8.00012 8.44772 8.44784 8 9.00012 8ZM16.0001 9C16.0001 8.44772 15.5524 8 15.0001 8C14.4478 8 14.0001 8.44772 14.0001 9V11C14.0001 11.5523 14.4478 12 15.0001 12C15.5524 12 16.0001 11.5523 16.0001 11V9Z" fill="#323232"/>
</svg>
