<svg width="24" height="24" viewBox="0 0 24 24" fill="none" xmlns="http://www.w3.org/2000/svg">
<path fill-rule="evenodd" clip-rule="evenodd" d="M12.8903 3.70589C13.2265 2.61318 14.7733 2.61317 15.1095 3.70589L16.663 8.75461C16.7552 9.05418 16.9825 9.29321 17.277 9.40032L21.3417 10.8784C22.3891 11.2593 22.3891 12.7407 21.3417 13.1216L17.277 14.5996C16.9825 14.7067 16.7552 14.9458 16.663 15.2453L15.1095 20.2941C14.7733 21.3868 13.2265 21.3868 12.8903 20.2941L11.3368 15.2453C11.2447 14.9458 11.0174 14.7067 10.7228 14.5996L6.65816 13.1216C5.61069 12.7407 5.61069 11.2593 6.65816 10.8784L10.7228 9.40032C11.0174 9.29321 11.2447 9.05418 11.3368 8.75461L12.8903 3.70589Z" fill="#323232"/>
<path fill-rule="evenodd" clip-rule="evenodd" d="M3.80133 3.43379C4.18531 2.28184 5.81471 2.28184 6.1987 3.43379C6.25654 3.60732 6.39271 3.74349 6.56624 3.80133C7.71819 4.18531 7.71819 5.81471 6.56624 6.1987C6.39271 6.25654 6.25654 6.39271 6.1987 6.56624C5.81471 7.71819 4.18531 7.71819 3.80133 6.56624C3.74349 6.39271 3.60732 6.25654 3.43379 6.1987C2.28184 5.81471 2.28184 4.18531 3.43379 3.80133C3.60732 3.74349 3.74349 3.60732 3.80133 3.43379Z" fill="#323232"/>
<path fill-rule="evenodd" clip-rule="evenodd" d="M4.80133 17.4338C5.18531 16.2818 6.81471 16.2818 7.1987 17.4338C7.25654 17.6073 7.39271 17.7435 7.56624 17.8013C8.71819 18.1853 8.71819 19.8147 7.56624 20.1987C7.39271 20.2565 7.25654 20.3927 7.1987 20.5662C6.81471 21.7182 5.18531 21.7182 4.80133 20.5662C4.74349 20.3927 4.60732 20.2565 4.43379 20.1987C3.28184 19.8147 3.28184 18.1853 4.43379 17.8013C4.60732 17.7435 4.74349 17.6073 4.80133 17.4338Z" fill="#323232"/>
</svg>
