<svg width="24" height="24" viewBox="0 0 24 24" fill="none" xmlns="http://www.w3.org/2000/svg">
<path fill-rule="evenodd" clip-rule="evenodd" d="M11.9998 5.6L13.0639 8.15385C13.5297 9.27179 14.622 10 15.8331 10H18.5856L16.7927 11.7929C16.4021 12.1834 16.4021 12.8166 16.7927 13.2071C17.1832 13.5976 17.8164 13.5976 18.2069 13.2071L21.6313 9.78268C22.2892 9.12483 21.8232 8 20.8929 8H15.8331C15.4294 8 15.0653 7.75726 14.91 7.38462L12.986 2.76683C12.6207 1.89022 11.3788 1.89022 11.0136 2.76683L9.8267 5.61538C9.61428 6.12519 9.85536 6.71066 10.3652 6.92308C10.875 7.13549 11.4604 6.89442 11.6728 6.38462L11.9998 5.6Z" fill="#323232"/>
<path fill-rule="evenodd" clip-rule="evenodd" d="M3.70711 2.29295C3.31658 1.90243 2.68342 1.90243 2.29289 2.29295C1.90237 2.68348 1.90237 3.31664 2.29289 3.70717L6.58579 8.00006H3.13547C2.19457 8.00006 1.72337 9.13764 2.38868 9.80296L6.46076 13.875C6.71756 14.1318 6.81495 14.5077 6.71518 14.8569L5.09488 20.5279C4.81997 21.4901 5.89292 22.2733 6.72553 21.7182L11.4453 18.5717C11.7812 18.3478 12.2188 18.3478 12.5547 18.5717L17.2823 21.7235C18.1122 22.2767 19.1817 21.4961 18.9077 20.537L18.8217 20.236L20.2929 21.7072C20.6834 22.0977 21.3166 22.0977 21.7071 21.7072C22.0976 21.3166 22.0976 20.6835 21.7071 20.293L3.70711 2.29295Z" fill="#323232"/>
</svg>
