<svg width="24" height="24" viewBox="0 0 24 24" fill="none" xmlns="http://www.w3.org/2000/svg">
    <path fill-rule="evenodd" clip-rule="evenodd" d="M5.31658 2C4.71647 2 4.17682 2.36536 3.95395 2.92254L2.25722 7.16437C1.97198 7.87746 2.34402 8.64132 3 8.90453V9C3 9.8885 3.38625 10.6868 4 11.2361V20H3C2.44772 20 2 20.4477 2 21C2 21.5523 2.44772 22 3 22H21C21.5523 22 22 21.5523 22 21C22 20.4477 21.5523 20 21 20H20V11.2361C20.6137 10.6868 21 9.8885 21 9V8.90453C21.656 8.64132 22.028 7.87746 21.7428 7.16437L20.0461 2.92254C19.8232 2.36536 19.2835 2 18.6834 2H5.31658ZM12 17C11.4477 17 11 17.4477 11 18V19C11 19.5523 10.5523 20 10 20C9.44772 20 9 19.5523 9 19V18C9 16.3431 10.3431 15 12 15C13.6569 15 15 16.3431 15 18V19C15 19.5523 14.5523 20 14 20C13.4477 20 13 19.5523 13 19V18C13 17.4477 12.5523 17 12 17ZM8 8C8.55229 8 9 8.44772 9 9C9 9.55228 9.44772 10 10 10C10.5523 10 11 9.55228 11 9C11 8.44772 11.4477 8 12 8C12.5523 8 13 8.44772 13 9C13 9.55229 13.4477 10 14 10C14.5523 10 15 9.55228 15 9C15 8.44772 15.4477 8 16 8C16.5523 8 17 8.44772 17 9C17 9.55228 17.4477 10 18 10C18.5523 10 19 10.4477 19 11C19 11.5523 18.5523 12 18 12C17.2316 12 16.5308 11.7111 16 11.2361C15.4692 11.7111 14.7684 12 14 12C13.2316 12 12.5308 11.7111 12 11.2361C11.4692 11.7111 10.7684 12 10 12C9.23165 12 8.53076 11.7111 8 11.2361C7.46924 11.7111 6.76835 12 6 12C5.44771 12 5 11.5523 5 11C5 10.4477 5.44771 10 6 10C6.55228 10 7 9.55228 7 9C7 8.44772 7.44772 8 8 8Z" fill="#323232"/>
</svg>
