<svg width="24" height="24" viewBox="0 0 24 24" fill="none" xmlns="http://www.w3.org/2000/svg">
<path fill-rule="evenodd" clip-rule="evenodd" d="M10 18C9.44772 18 9 17.5523 9 17L9 11C9 10.4477 9.44771 10 10 10C10.5523 10 11 10.4477 11 11L11 17C11 17.5523 10.5523 18 10 18ZM14 18C13.4477 18 13 17.5523 13 17L13 11C13 10.4477 13.4477 10 14 10C14.5523 10 15 10.4477 15 11L15 17C15 17.5523 14.5523 18 14 18ZM11.9342 2C11.0477 1.99995 10.2839 1.99991 9.67221 2.08215C9.01669 2.17028 8.38834 2.36902 7.87868 2.87868C7.36902 3.38835 7.17027 4.0167 7.08214 4.67221C7.0304 5.05703 7.01123 5.50208 7.00414 6H4C3.44772 6 3 6.44772 3 7C3 7.55229 3.44772 8 4 8H5.00001L5 17.0658C4.99995 17.9523 4.99991 18.7161 5.08215 19.3278C5.17028 19.9833 5.36902 20.6117 5.87868 21.1213C6.38835 21.631 7.0167 21.8297 7.67221 21.9179C8.28387 22.0001 9.04769 22.0001 9.93417 22H14.0658C14.9523 22.0001 15.7161 22.0001 16.3278 21.9179C16.9833 21.8297 17.6117 21.631 18.1213 21.1213C18.631 20.6117 18.8297 19.9833 18.9179 19.3278C19.0001 18.7161 19.0001 17.9523 19 17.0659L19 8H20C20.5523 8 21 7.55229 21 7C21 6.44772 20.5523 6 20 6H16.9959C16.9888 5.50208 16.9696 5.05703 16.9179 4.67221C16.8297 4.0167 16.631 3.38835 16.1213 2.87869C15.6117 2.36902 14.9833 2.17028 14.3278 2.08215C13.7161 1.99991 12.9523 1.99995 12.0658 2H11.9342ZM14.9955 6C14.989 5.55932 14.9733 5.21873 14.9357 4.93871C14.8774 4.50497 14.7832 4.36902 14.7071 4.2929C14.631 4.21677 14.495 4.12263 14.0613 4.06431C13.5988 4.00213 12.9711 4 12 4C11.0289 4 10.4012 4.00213 9.9387 4.06431C9.50496 4.12263 9.36902 4.21677 9.29289 4.2929C9.21677 4.36902 9.12262 4.50497 9.06431 4.93871C9.02666 5.21873 9.01102 5.55932 9.00455 6H14.9955Z" fill="#323232"/>
</svg>
