<svg width="24" height="24" viewBox="0 0 24 24" fill="none" xmlns="http://www.w3.org/2000/svg">
<path fill-rule="evenodd" clip-rule="evenodd" d="M5 9.5C5 7.01472 7.01472 5 9.5 5C11.9853 5 14 7.01472 14 9.5C14 11.9853 11.9853 14 9.5 14C7.01472 14 5 11.9853 5 9.5Z" fill="#323232"/>
<path fill-rule="evenodd" clip-rule="evenodd" d="M4.64115 15.6993C5.87351 15.1644 7.49045 15 9.49995 15C11.5112 15 13.1293 15.1647 14.3621 15.7008C15.705 16.2847 16.5212 17.2793 16.949 18.6836C17.1495 19.3418 16.6551 20 15.9738 20H3.02801C2.34589 20 1.85045 19.3408 2.05157 18.6814C2.47994 17.2769 3.29738 16.2826 4.64115 15.6993Z" fill="#323232"/>
<path d="M19 3C19 2.44772 18.5523 2 18 2C17.4477 2 17 2.44772 17 3V5H15C14.4477 5 14 5.44772 14 6C14 6.55228 14.4477 7 15 7H17V9C17 9.55228 17.4477 10 18 10C18.5523 10 19 9.55228 19 9V7H21C21.5523 7 22 6.55228 22 6C22 5.44772 21.5523 5 21 5H19V3Z" fill="#323232"/>
</svg>
